<?xml version="1.0" standalone="no"?>
<!DOCTYPE svg PUBLIC "-//W3C//DTD SVG 1.1//EN" "http://www.w3.org/Graphics/SVG/1.1/DTD/svg11.dtd" >
<svg xmlns="http://www.w3.org/2000/svg">
<metadata></metadata>
<defs>
<font id="mt001regular" horiz-adv-x="1228" >
<font-face units-per-em="2048" ascent="1618" descent="-430" />
<missing-glyph horiz-adv-x="542" />
<glyph horiz-adv-x="0" />
<glyph horiz-adv-x="0" />
<glyph unicode="&#xd;" horiz-adv-x="681" />
<glyph unicode=" "  horiz-adv-x="542" />
<glyph unicode="&#x09;" horiz-adv-x="542" />
<glyph unicode="&#xa0;" horiz-adv-x="542" />
<glyph unicode="!" horiz-adv-x="532" d="M168 85q0 39 29.5 68t68.5 29t69 -29t30 -68q0 -40 -30 -69.5t-69 -29.5t-68.5 29.5t-29.5 69.5zM195 1434h142l-19 -989h-105z" />
<glyph unicode="&#x22;" horiz-adv-x="1037" d="M300 979v496h117v-496h-117zM620 979v496h116v-496h-116z" />
<glyph unicode="#" horiz-adv-x="1490" d="M128 391l23 104h238l95 450h-238l21 105h240l82 384h109l-82 -384h400l82 384h109l-82 -384h237l-23 -105h-236l-95 -450h235l-21 -104h-237l-83 -391h-109l83 391h-400l-83 -391h-109l83 391h-239zM499 495h399l95 450h-399z" />
<glyph unicode="$" horiz-adv-x="1433" d="M179 173l65 96q73 -55 191 -98.5t238 -51.5l-1 549l-46 5q-196 22 -303.5 115t-106.5 245q1 115 61.5 202.5t162.5 135t232 55.5v197h108v-196q258 -14 454 -150l-62 -98q-174 120 -392 134v-541l56 -6q197 -24 309.5 -113.5t111.5 -244.5q-1 -91 -38 -165.5t-102 -123 t-150.5 -77.5t-186.5 -36v-201h-107v200q-135 7 -271.5 54t-222.5 114zM338 1036q-2 -211 334 -252v529q-150 -12 -241.5 -85.5t-92.5 -191.5zM780 120q161 13 258 84t98 197q1 105 -89.5 169.5t-264.5 84.5h-2v-535z" />
<glyph unicode="%" horiz-adv-x="1957" d="M103 1087.5q0 154.5 104.5 258t259.5 103.5q157 0 262 -103.5t105 -258t-105 -258.5t-262 -104q-155 0 -259.5 104t-104.5 258.5zM213 1087.5q0 -112.5 72.5 -186t181.5 -73.5q111 0 184 73.5t73 186t-73 186t-184 73.5q-109 0 -181.5 -73.5t-72.5 -186zM466 0l904 1434 h123l-904 -1434h-123zM1125 346q0 155 104 259t259 104q157 0 262 -104t105 -259t-105 -258t-262 -103q-155 0 -259 103t-104 258zM1235 346q0 -113 72 -186t181 -73q111 0 184.5 73t73.5 186t-73.5 186t-184.5 73q-109 0 -181 -73t-72 -186z" />
<glyph unicode="&#x26;" horiz-adv-x="1412" d="M119 332q0 70 23.5 132t69.5 117t91.5 95.5t112.5 89.5q-120 118 -169 196.5t-49 177.5q0 129 96 219t243 90t242 -86t95 -215q0 -59 -21.5 -113.5t-66.5 -104t-86.5 -85.5t-106.5 -84l354 -346l236 347l94 -60l-248 -367l342 -335h-169l-244 238q-44 -56 -87 -99 t-97 -79.5t-119.5 -55.5t-140.5 -19q-180 0 -287.5 93.5t-107.5 253.5zM244 335q0 -106 77 -173.5t199 -67.5q111 0 193 56t165 166l-383 373q-57 -43 -96.5 -77.5t-78 -80t-57.5 -94.5t-19 -102zM323 1133q0 -69 39.5 -128t151.5 -168q56 42 92.5 72t73 69.5t54.5 80.5 t18 84q0 85 -60 140.5t-155 55.5q-94 0 -154 -58.5t-60 -147.5z" />
<glyph unicode="'" horiz-adv-x="717" d="M300 979v496h117v-496h-117z" />
<glyph unicode="(" horiz-adv-x="818" d="M155 582q0 307 148.5 548t388.5 328l40 -107q-204 -78 -328.5 -290.5t-124.5 -479t124.5 -478.5t328.5 -289l-40 -108q-158 57 -279.5 184.5t-189.5 308t-68 383.5z" />
<glyph unicode=")" horiz-adv-x="818" d="M86 -185q204 78 329 290t125 478.5t-125 478.5t-329 290l40 107q158 -57 279.5 -184.5t190 -308t68.5 -382.5q0 -307 -149 -548.5t-389 -328.5z" />
<glyph unicode="*" horiz-adv-x="886" d="M108 1197l27 86l264 -87v279h90v-278l263 86l27 -86l-263 -86l164 -224l-73 -52l-164 223l-162 -223l-73 52l163 224z" />
<glyph unicode="+" d="M178 486v106h380v386h108v-386h385v-106h-385v-381h-108v381h-380z" />
<glyph unicode="," horiz-adv-x="499" d="M146 -255l64 495h136l-98 -495h-102z" />
<glyph unicode="-" horiz-adv-x="855" d="M151 486v106h555v-106h-555z" />
<glyph unicode="." horiz-adv-x="532" d="M168 83q0 40 29.5 69t68.5 29t69 -29t30 -69q0 -39 -30 -68.5t-69 -29.5t-68.5 29.5t-29.5 68.5z" />
<glyph unicode="/" horiz-adv-x="1007" d="M4 -205l869 1782h128l-869 -1782h-128z" />
<glyph unicode="0" horiz-adv-x="1451" d="M140 717q0 168 46 307t126 231.5t186.5 143t227.5 50.5t227.5 -50.5t186 -143t125.5 -231.5t46 -307q0 -167 -46 -306.5t-125.5 -232t-186 -143t-227.5 -50.5t-227.5 50.5t-186.5 143t-126 232t-46 306.5zM266 716.5q0 -285.5 131.5 -451t328.5 -165.5t328 165.5 t131 451.5q0 144 -36 262t-99 194.5t-146 118t-178 41.5q-198 0 -329 -165.5t-131 -451z" />
<glyph unicode="1" horiz-adv-x="875" d="M71 1074v126l579 248v-1448h-121v1273z" />
<glyph unicode="2" horiz-adv-x="1117" d="M91 1212q153 237 427 237q210 0 329.5 -122.5t119.5 -311.5q0 -120 -53 -218t-141 -189l-469 -493h715v-115h-893v94l555 584q160 167 160 337q0 138 -86.5 228.5t-239.5 90.5q-120 0 -199 -52t-138 -140z" />
<glyph unicode="3" horiz-adv-x="1123" d="M71 164l76 81q147 -147 369 -148q99 0 179 30.5t131.5 97.5t51.5 161q0 130 -105.5 206.5t-262.5 76.5h-198v110h198q147 0 241.5 73.5t94.5 208.5q0 123 -98 199t-249 76q-105 0 -190.5 -46.5t-140.5 -121.5l-88 74q67 94 175.5 150.5t250.5 56.5q208 0 337 -107 t129 -276q0 -129 -65.5 -215.5t-179.5 -126.5q126 -40 201.5 -128.5t75.5 -214.5q0 -97 -40.5 -174.5t-109.5 -125t-154.5 -72t-180.5 -24.5q-283 0 -448 179z" />
<glyph unicode="4" horiz-adv-x="1179" d="M56 314v94l536 1025h136l-527 -1005h543v409h120v-409h259v-114h-259v-314h-120v314h-688z" />
<glyph unicode="5" horiz-adv-x="1178" d="M91 204l81 79q73 -88 176.5 -136t219.5 -48q166 0 262.5 91.5t96.5 232.5t-103 227t-314 86h-302l20 698h762v-114h-651l-17 -469h224q124 0 221.5 -32.5t159 -89.5t93.5 -132.5t32 -163.5q0 -207 -136.5 -327.5t-346.5 -120.5q-299 0 -478 219z" />
<glyph unicode="6" horiz-adv-x="1177" d="M84 445q0 140 93 291l434 698h148l-359 -567q92 40 196 40q212 0 351 -131.5t139 -330.5q0 -198 -142 -329t-358 -131t-359 131.5t-143 328.5zM208 445.5q0 -151.5 107 -250.5t271 -99q163 0 270 99t107 250.5t-107 251t-270 99.5q-164 0 -271 -99.5t-107 -251z" />
<glyph unicode="7" horiz-adv-x="1120" d="M84 1320v114h966v-95l-664 -1339h-140l659 1320h-821z" />
<glyph unicode="8" horiz-adv-x="1286" d="M119 378q0 130 75 217t201 131q-111 44 -176.5 129t-65.5 211q0 177 140 280t349 103t349.5 -103t140.5 -280q0 -125 -66.5 -210t-176.5 -130q126 -44 201.5 -131t75.5 -217q0 -123 -71.5 -213.5t-189 -135t-263.5 -44.5t-263.5 44.5t-188.5 135t-71 213.5zM246 385 q0 -137 112.5 -213t283.5 -76t283.5 76t112.5 213q0 90 -54 156t-142.5 98t-199.5 32t-199.5 -32t-142.5 -98t-54 -156zM281 1060q0 -135 102 -209.5t259 -74.5t260 74.5t103 209.5q0 131 -103 203.5t-260 72.5q-156 0 -258.5 -72.5t-102.5 -203.5z" />
<glyph unicode="9" horiz-adv-x="1177" d="M91 988q0 198 142 329.5t359 131.5q216 0 359 -131.5t143 -329.5q0 -140 -94 -291l-434 -697h-147l357 566q-91 -40 -195 -40q-212 0 -351 132t-139 330zM215 988.5q0 -151.5 106.5 -251t270.5 -99.5t270.5 99t107.5 251q0 152 -107 250.5t-271 98.5t-270.5 -98.5 t-106.5 -250z" />
<glyph unicode=":" horiz-adv-x="532" d="M168 85q0 39 29.5 68t68.5 29t69 -29t30 -68q0 -40 -30 -69.5t-69 -29.5t-68.5 29.5t-29.5 69.5zM168 881q0 40 29.5 69t68.5 29t69 -29t30 -69q0 -39 -30 -69t-69 -30t-68.5 30t-29.5 69z" />
<glyph unicode=";" horiz-adv-x="499" d="M146 -255l64 495h136l-98 -495h-102zM159 881q0 40 29.5 69t68.5 29t68 -29t29 -69q0 -39 -29 -69t-68 -30t-68.5 30t-29.5 69z" />
<glyph unicode="&#x3c;" d="M221 482v116l789 377v-125l-672 -309l672 -311v-125z" />
<glyph unicode="=" d="M178 306v107h873v-107h-873zM178 667v105h873v-105h-873z" />
<glyph unicode="&#x3e;" d="M220 105v125l672 310l-672 310v125l789 -377v-116z" />
<glyph unicode="?" horiz-adv-x="868" d="M146 1443q67 10 144 10q229 0 368 -108.5t139 -287.5q0 -173 -120.5 -279t-337.5 -126l-7 -207h-107v318h50q183 0 288 77.5t105 212.5q0 127 -105.5 202.5t-278.5 75.5q-43 0 -127 -7zM180 83q0 40 30 69t68.5 29t68.5 -29t30 -69q0 -39 -30 -68.5t-68.5 -29.5 t-68.5 29.5t-30 68.5z" />
<glyph unicode="@" horiz-adv-x="2026" d="M180 512q0 171 64 323t174 261.5t265.5 173t330.5 63.5q236 0 425.5 -100t298.5 -281.5t109 -408.5q0 -191 -87.5 -316t-233.5 -125q-91 0 -147 47t-72 127q-49 -79 -130.5 -125t-189.5 -46q-167 0 -280 116.5t-113 290.5t113 290.5t280 116.5q104 0 183.5 -45.5 t128.5 -122.5v154h101v-496q0 -213 131 -213q93 0 151.5 92.5t58.5 254.5q0 154 -56 284t-153 220.5t-231 141t-287 50.5t-287.5 -56t-231 -151.5t-152.5 -230.5t-56 -289q0 -156 56 -292.5t152.5 -234t231 -153t287.5 -55.5q250 0 451 144l56 -76q-224 -163 -507 -162 q-175 0 -330.5 64t-265.5 174.5t-174 264t-64 326.5zM697 512q0 -133 85.5 -222t218 -89t218 88.5t85.5 222.5t-85.5 222.5t-218 88.5t-218 -89t-85.5 -222z" />
<glyph unicode="A" horiz-adv-x="1439" d="M41 0l602 1434h154l602 -1434h-134l-174 419h-746l-174 -419h-130zM395 538h645l-322 774z" />
<glyph unicode="B" horiz-adv-x="1432" d="M214 0v1434h554q115 0 205.5 -21t159 -64.5t105.5 -116.5t37 -170q0 -126 -66 -209t-181 -115q128 -33 202.5 -121t74.5 -226q0 -199 -135.5 -295t-377.5 -96h-578zM339 118h447q186 0 287 64.5t101 213t-101 212.5t-287 64h-447v-554zM339 788h426q179 0 279.5 60.5 t100.5 204.5q0 74 -28 126t-81 81t-119.5 42.5t-152.5 13.5h-425v-528z" />
<glyph unicode="C" horiz-adv-x="1564" d="M129 717q0 159 56.5 295.5t153.5 232t232.5 150.5t291.5 55q184 0 339.5 -79t240.5 -216l-105 -70q-75 114 -200 179t-275 65q-126 0 -237.5 -44.5t-192.5 -124t-127.5 -194.5t-46.5 -249t46.5 -249.5t127.5 -194.5t192.5 -124t237.5 -45q150 0 275 64.5t199 179.5 l103 -75q-90 -135 -243 -212t-334 -77q-156 0 -291.5 54.5t-232.5 150.5t-153.5 232.5t-56.5 295.5z" />
<glyph unicode="D" horiz-adv-x="1640" d="M214 0v1434h523q357 0 566 -193t209 -524t-208.5 -524t-566.5 -193h-523zM339 119h398q308 0 476 160.5t168 437.5q0 278 -168 438t-476 160h-398v-1196z" />
<glyph unicode="E" horiz-adv-x="1373" d="M214 0v1434h980v-118h-855v-536h830v-116h-830v-546h862v-118h-987z" />
<glyph unicode="F" horiz-adv-x="1317" d="M214 0v1434h975v-119h-850v-534h816v-118h-816v-663h-125z" />
<glyph unicode="G" horiz-adv-x="1676" d="M129 717q0 212 96.5 380t263.5 260.5t374 92.5q167 0 311.5 -64.5t243.5 -180.5l-92 -89q-83 100 -203.5 156.5t-259.5 56.5q-126 0 -237.5 -44.5t-192.5 -124t-127.5 -194.5t-46.5 -249q0 -179 80 -320t216 -217t302 -76q245 0 392.5 144t161.5 391h-485v117h620 q2 -13 2 -34q0 -210 -83 -377t-241.5 -263.5t-366.5 -96.5q-143 0 -274.5 51t-232.5 143t-161 232t-60 306z" />
<glyph unicode="H" horiz-adv-x="1602" d="M214 0v1434h125v-653h924v653h125v-1434h-125v663h-924v-663h-125z" />
<glyph unicode="I" horiz-adv-x="553" d="M214 0v1434h125v-1434h-125z" />
<glyph unicode="J" horiz-adv-x="1178" d="M46 175l84 86q134 -157 347 -157q169 0 271 110t102 311v909h125v-920q0 -249 -139 -389t-358 -140q-265 0 -432 190z" />
<glyph unicode="K" horiz-adv-x="1399" d="M214 0v1434h125v-654h191l630 654h162l-691 -706l734 -728h-170l-667 662h-189v-662h-125z" />
<glyph unicode="L" horiz-adv-x="1232" d="M214 0v1434h125v-1315h851v-119h-976z" />
<glyph unicode="M" horiz-adv-x="1904" d="M214 0v1434h188l550 -1118l549 1118h189v-1434h-125v1291l-547 -1121h-132l-547 1115v-1285h-125z" />
<glyph unicode="N" horiz-adv-x="1606" d="M214 0v1434h113l940 -1219v1219h125v-1434h-113l-939 1219l-1 -1219h-125z" />
<glyph unicode="O" horiz-adv-x="1725" d="M129 717q0 159 56.5 295.5t153.5 232t233 150.5t291.5 55t291 -55t233 -150.5t153.5 -232t56 -295.5t-56 -295.5t-153.5 -232.5t-233 -150.5t-291 -54.5t-291.5 54.5t-233 150.5t-153.5 232.5t-56.5 295.5zM259 717q0 -134 46.5 -249.5t127.5 -194.5t192.5 -124 t237.5 -45t237 45t192 124t127.5 194.5t46.5 249.5t-46.5 249t-127.5 194.5t-192 124t-237 44.5t-237.5 -44.5t-192.5 -124t-127.5 -194.5t-46.5 -249z" />
<glyph unicode="P" horiz-adv-x="1362" d="M214 0v1434h532q238 0 372.5 -112.5t134.5 -313t-134.5 -312.5t-372.5 -112h-407v-584h-125zM339 702h404q182 0 281 78t99 228.5t-99 229t-281 78.5h-404v-614z" />
<glyph unicode="Q" horiz-adv-x="1725" d="M129 717q0 159 56.5 295.5t153.5 232t233 150.5t291.5 55t291 -55t233 -150.5t153.5 -232t56 -295.5q0 -274 -159 -470l196 -247h-147l-131 161q-202 -177 -493 -177q-156 0 -291.5 54.5t-232.5 150.5t-153.5 232.5t-56.5 295.5zM259 717q0 -134 46.5 -249.5 t127.5 -194.5t192.5 -124t237.5 -45q246 0 414 155l-352 441h149l282 -350q110 155 110 363q0 139 -46 253q-47 115 -128 194.5t-192 124t-237 44.5t-237.5 -44.5t-192.5 -124t-127.5 -194.5t-46.5 -249z" />
<glyph unicode="R" horiz-adv-x="1373" d="M214 0v1434h547q238 0 366 -104t128 -295q0 -185 -132.5 -292t-360.5 -107h-56l542 -636h-155l-535 636h-219v-636h-125zM339 750h421q178 0 272 73.5t94 211.5q0 137 -94.5 209t-271.5 72h-421v-566z" />
<glyph unicode="S" horiz-adv-x="1375" d="M128 164l69 99q83 -66 214.5 -113t270.5 -47q191 0 312.5 75t121.5 214q0 115 -90 176.5t-273 81.5l-163 19q-202 23 -311.5 114t-109.5 253q0 128 71.5 223.5t190.5 142.5t268 47q290 0 512 -158l-64 -101q-199 140 -449 140q-176 0 -287.5 -76.5t-111.5 -209.5 q0 -109 85 -172.5t265 -84.5l157 -17q440 -49 440 -368q0 -101 -44 -182t-122 -131.5t-178.5 -77t-218.5 -26.5q-156 0 -306 50t-249 129z" />
<glyph unicode="T" horiz-adv-x="1244" d="M43 1315v119h1158v-119h-517v-1315h-125v1315h-516z" />
<glyph unicode="U" horiz-adv-x="1546" d="M193 558v876h124v-867q0 -116 34.5 -205.5t96.5 -144.5t144 -84t180 -29q204 0 329.5 118t125.5 345v867h126v-876q0 -140 -45 -250.5t-125 -180.5t-184.5 -106t-226.5 -36t-226.5 36t-183.5 106t-124 180.5t-45 250.5z" />
<glyph unicode="V" horiz-adv-x="1418" d="M41 1434h133l537 -1310l537 1310h129l-591 -1434h-154z" />
<glyph unicode="W" horiz-adv-x="2260" d="M66 1434h132l429 -1296l435 1296h140l434 -1294l430 1294h129l-483 -1434h-152l-430 1271l-429 -1271h-152z" />
<glyph unicode="X" horiz-adv-x="1405" d="M71 0l554 733l-528 701h152l456 -606l456 606h149l-530 -701l555 -733h-151l-482 639l-484 -639h-147z" />
<glyph unicode="Y" horiz-adv-x="1293" d="M12 1434h150l486 -702l487 702h146l-571 -820v-614h-125v616z" />
<glyph unicode="Z" horiz-adv-x="1358" d="M128 0v97l931 1218h-916v119h1083v-97l-932 -1218h936v-119h-1102z" />
<glyph unicode="[" horiz-adv-x="755" d="M214 -269v1703h456v-109h-336v-1486h336v-108h-456z" />
<glyph unicode="\" horiz-adv-x="1007" d="M6 1577h128l870 -1782h-128z" />
<glyph unicode="]" horiz-adv-x="755" d="M86 -161h336v1486h-336v109h456v-1703h-456v108z" />
<glyph unicode="^" d="M193 672l364 762h115l364 -762h-127l-297 641l-296 -641h-123z" />
<glyph unicode="_" horiz-adv-x="957" d="M-5 -154h968v-105h-968v105z" />
<glyph unicode="`" horiz-adv-x="925" d="M276 1415h148l225 -307h-115z" />
<glyph unicode="a" horiz-adv-x="1273" d="M110 481q0 214 138.5 356t342.5 142q127 0 224 -54t158 -147v186h116v-964h-116v185q-60 -94 -157.5 -147t-224.5 -53q-204 0 -342.5 141t-138.5 355zM228 481q0 -164 106.5 -275.5t269.5 -111.5t269 110t106 277t-106 277.5t-269 110.5q-164 0 -270 -111t-106 -277z" />
<glyph unicode="b" horiz-adv-x="1274" d="M186 0v1475h117v-695q60 92 157 145.5t223 53.5q205 0 343.5 -142t138.5 -356t-138.5 -355t-343.5 -141q-127 0 -224 52.5t-156 145.5v-183h-117zM295 481q0 -167 106.5 -277t268.5 -110q165 0 270.5 111t105.5 276t-106 276.5t-270 111.5q-162 0 -268.5 -110.5 t-106.5 -277.5z" />
<glyph unicode="c" horiz-adv-x="1047" d="M110 481q0 214 138.5 356t354.5 142q106 0 198.5 -39t156.5 -111l-75 -78q-118 118 -280 118h-3q-159 0 -265.5 -110t-106.5 -278q0 -167 106.5 -277t265.5 -110q164 0 286 120l72 -80q-134 -149 -352 -149h-3q-216 0 -354.5 141t-138.5 355z" />
<glyph unicode="d" horiz-adv-x="1273" d="M110 481q0 214 138.5 356t342.5 142q127 0 224 -54t158 -147v697h116v-1475h-116v185q-60 -94 -157.5 -147t-224.5 -53q-204 0 -342.5 141t-138.5 355zM228 481q0 -164 106.5 -275.5t269.5 -111.5t269 110t106 277t-106 277.5t-269 110.5q-164 0 -270 -111t-106 -277z " />
<glyph unicode="e" horiz-adv-x="1147" d="M110 481q0 217 136 357.5t341 140.5q194 0 321.5 -138.5t129.5 -353.5q0 -19 -2 -48h-808q12 -164 116.5 -258.5t256.5 -94.5q186 0 326 137l62 -80q-155 -158 -392 -158h-3q-212 0 -348 138.5t-136 357.5zM230 540h690q-13 150 -106 243t-229 93q-144 0 -240.5 -94 t-114.5 -242z" />
<glyph unicode="f" horiz-adv-x="896" d="M56 857v107h237v165q0 168 76.5 264.5t241.5 96.5q143 0 260 -72l-42 -97q-98 59 -211 59q-209 0 -208 -251v-165h414v-107h-414v-857h-117v857h-237z" />
<glyph unicode="g" horiz-adv-x="1265" d="M110 487q0 214 136.5 353t341.5 139q126 0 221.5 -54.5t154.5 -149.5v189h116v-898q0 -156 -68 -268t-180.5 -166t-257.5 -54q-119 0 -226 37t-179 102l59 85q149 -117 343 -117h3q170 0 280 97t110 278v138q-58 -95 -154 -149t-222 -54q-205 0 -341.5 138.5 t-136.5 353.5zM228 487q0 -163 104.5 -273t267.5 -110q162 0 267.5 110t105.5 273.5t-105.5 272.5t-267.5 109t-267 -110t-105 -272z" />
<glyph unicode="h" horiz-adv-x="1226" d="M186 0v1475h117v-678q54 91 146 136.5t197 45.5q182 0 294 -105.5t112 -282.5v-591h-117v555q0 146 -81.5 229.5t-227.5 83.5q-137 0 -230 -89.5t-93 -229.5v-549h-117z" />
<glyph unicode="i" horiz-adv-x="488" d="M162 1310q0 36 24 60.5t59 24.5t59.5 -24.5t24.5 -60.5q0 -35 -24 -59t-60 -24t-59.5 23.5t-23.5 59.5zM186 0v964h117v-964h-117z" />
<glyph unicode="j" horiz-adv-x="491" d="M-42 -388l29 100q42 -24 91 -24h4q108 0 107 135v1141h117v-1146q0 -116 -56.5 -178t-158.5 -62q-76 0 -133 34zM164 1310q0 36 24 60.5t59 24.5t59.5 -24.5t24.5 -60.5q0 -35 -24 -59t-60 -24t-59.5 23.5t-23.5 59.5z" />
<glyph unicode="k" horiz-adv-x="1067" d="M186 0v1475h117v-918h157l405 407h148l-459 -455l467 -509h-149l-412 452h-157v-452h-117z" />
<glyph unicode="l" horiz-adv-x="488" d="M186 0v1475h117v-1475h-117z" />
<glyph unicode="m" horiz-adv-x="1976" d="M186 0v964h116v-169q54 92 146.5 138t197.5 46q135 0 233.5 -59t141.5 -165q51 113 152.5 168.5t221.5 55.5q182 0 294 -105.5t112 -282.5v-591h-117v555q0 146 -81.5 229.5t-228.5 83.5q-137 0 -229.5 -89.5t-92.5 -229.5v-549h-117v555q0 146 -81.5 229.5t-227.5 83.5 q-137 0 -230 -89.5t-93 -229.5v-549h-117z" />
<glyph unicode="n" horiz-adv-x="1226" d="M186 0v964h116v-169q54 92 146.5 138t197.5 46q182 0 294 -105.5t112 -282.5v-591h-117v555q0 146 -81.5 229.5t-227.5 83.5q-137 0 -230 -89.5t-93 -229.5v-549h-117z" />
<glyph unicode="o" horiz-adv-x="1220" d="M110 481q0 213 142.5 355.5t356.5 142.5t358 -142.5t144 -355.5t-144 -354.5t-358 -141.5t-356.5 141.5t-142.5 354.5zM228 481q0 -167 109 -277t272 -110q164 0 273 109.5t109 277.5t-109 278t-273 110q-163 0 -272 -110t-109 -278z" />
<glyph unicode="p" horiz-adv-x="1274" d="M186 -410v1374h117v-184q60 92 157 145.5t223 53.5q205 0 343.5 -142t138.5 -356t-138.5 -355t-343.5 -141q-127 0 -224 52.5t-156 145.5v-593h-117zM295 481q0 -167 106.5 -277t268.5 -110q165 0 270.5 111t105.5 276t-106 276.5t-270 111.5q-162 0 -268.5 -110.5 t-106.5 -277.5z" />
<glyph unicode="q" horiz-adv-x="1273" d="M110 481q0 214 138.5 356t342.5 142q127 0 224 -54t158 -147v186h116v-1374h-116v595q-60 -94 -157.5 -147t-224.5 -53q-204 0 -342.5 141t-138.5 355zM228 481q0 -164 106.5 -275.5t269.5 -111.5t269 110t106 277t-106 277.5t-269 110.5q-164 0 -270 -111t-106 -277z " />
<glyph unicode="r" horiz-adv-x="833" d="M186 0v964h115v-164q47 85 125 132.5t172 47.5q105 0 180 -37l-29 -114q-72 39 -171 39q-122 0 -199 -89.5t-77 -234.5v-544h-116z" />
<glyph unicode="s" horiz-adv-x="997" d="M93 108l54 87q139 -109 343 -109q135 0 214.5 46t79.5 134q0 135 -222 160l-124 13q-159 18 -235.5 84.5t-76.5 172.5q0 131 103 207t272 76q111 0 210.5 -30t167.5 -79l-51 -90q-55 39 -143.5 68t-182.5 29q-115 0 -185.5 -47.5t-70.5 -127.5q0 -67 53.5 -104.5 t165.5 -50.5l123 -15q316 -37 316 -259q0 -135 -113 -211.5t-302 -76.5q-234 0 -396 123z" />
<glyph unicode="t" horiz-adv-x="925" d="M56 857v107h222v314h116v-314h445v-107h-445v-525q0 -119 57.5 -178.5t156.5 -59.5q123 0 215 74l56 -87q-115 -96 -280 -96q-154 0 -237.5 86.5t-83.5 258.5v527h-222z" />
<glyph unicode="u" horiz-adv-x="1214" d="M175 398v566h117v-555q0 -152 86 -233.5t229 -81.5q142 0 229 81.5t87 233.5v555h116v-566q0 -197 -122.5 -305t-309.5 -108q-90 0 -168 26.5t-137 77t-93 130.5t-34 179z" />
<glyph unicode="v" horiz-adv-x="1054" d="M35 964h127l366 -848l369 848h123l-425 -966h-134z" />
<glyph unicode="w" horiz-adv-x="1766" d="M52 964h124l326 -844l316 844h131l318 -845l326 845h121l-378 -964h-137l-317 842l-316 -842h-136z" />
<glyph unicode="x" horiz-adv-x="1030" d="M37 0l401 493l-388 471h144l323 -392l325 392h138l-388 -470l401 -494h-143l-339 408l-337 -408h-137z" />
<glyph unicode="y" horiz-adv-x="1052" d="M25 964h131l388 -634l363 634h128l-797 -1377h-129l368 628z" />
<glyph unicode="z" horiz-adv-x="1091" d="M130 0v85l673 772h-652v107h802v-86l-667 -773h676v-105h-832z" />
<glyph unicode="{" horiz-adv-x="859" d="M129 528v109q117 0 181.5 65t57.5 196l-9 154q-10 184 82.5 283t264.5 99h67v-109h-67q-110 0 -172 -65.5t-55 -195.5l8 -153q7 -132 -47 -215t-160 -113q106 -31 160.5 -114t46.5 -215l-8 -153q-7 -130 55 -195.5t172 -65.5h67v-108h-67q-172 0 -264.5 98.5t-82.5 283.5 l9 153q7 131 -57.5 196t-181.5 65z" />
<glyph unicode="|" horiz-adv-x="717" d="M300 -271v1705h117v-1705h-117z" />
<glyph unicode="}" horiz-adv-x="859" d="M86 -160h68q110 0 171.5 65.5t54.5 195.5l-8 153q-7 132 47 215t161 114q-106 31 -160.5 113.5t-47.5 214.5l8 153q7 130 -55 195.5t-171 65.5h-68v109h68q172 0 264 -99t82 -283l-8 -154q-7 -131 57 -196t181 -65v-109q-117 0 -181.5 -65t-56.5 -196l8 -153 q10 -184 -82 -283t-264 -99h-68v108z" />
<glyph unicode="~" d="M166 519q54 60 115.5 89t144.5 29q62 0 116 -14.5t86 -32.5t80 -32t100 -14q55 0 98 22t90 69l65 -74q-54 -60 -115.5 -89t-144.5 -29q-62 0 -115.5 14.5t-86 32.5t-80.5 32.5t-100 14.5q-55 0 -98 -22t-91 -70z" />
<glyph unicode="&#xa1;" horiz-adv-x="532" d="M168 879q0 40 29.5 69.5t68.5 29.5t69 -29.5t30 -69.5q0 -39 -30 -68.5t-69 -29.5t-68.5 29.5t-29.5 68.5zM196 -470l18 988h105l19 -988h-142z" />
<glyph unicode="&#xa2;" horiz-adv-x="1433" d="M282 717q0 191 118 327.5t309 162.5v227h108v-222q206 -9 337 -148l-70 -76q-113 109 -267 119v-780q157 10 272 119l65 -76q-132 -140 -337 -150v-220h-108v225q-190 27 -308.5 163t-118.5 329zM396 716.5q0 -147.5 87 -252.5t226 -131v768q-138 -27 -225.5 -132 t-87.5 -252.5z" />
<glyph unicode="&#xa3;" horiz-adv-x="1433" d="M195 0v115h191v549h-191v106h191v175q0 122 36.5 219.5t100 158.5t147 93.5t179.5 32.5q239 0 371 -177l-90 -77q-100 139 -281 139q-153 0 -248 -101t-95 -297v-166h558v-106h-558v-549h733v-115h-1044z" />
<glyph unicode="&#xa4;" horiz-adv-x="1433" d="M231 298l147 146q-94 119 -94 272.5t94 270.5l-147 148l68 69l148 -148q118 95 271.5 95t270.5 -94l148 147l68 -69l-146 -148q95 -118 95 -270.5t-95 -272.5l147 -146l-69 -70l-148 148q-117 -94 -270 -94t-273 95l-146 -149zM381 717q0 -142 98.5 -240.5t239.5 -98.5 t239.5 98t98.5 241q0 141 -98.5 239.5t-239.5 98.5t-239.5 -98.5t-98.5 -239.5z" />
<glyph unicode="&#xa5;" horiz-adv-x="1433" d="M121 1434h143l457 -631l451 631h142l-480 -668h366v-97h-419v-226h419v-97h-419v-346h-121v346h-419v97h419v226h-419v97h366z" />
<glyph unicode="&#xa6;" horiz-adv-x="717" d="M300 -271v710h117v-710h-117zM300 723v711h117v-711h-117z" />
<glyph unicode="&#xa7;" horiz-adv-x="1341" d="M154 -129l61 94q82 -62 196 -105t247 -43q172 0 280.5 61.5t109.5 177.5q0 91 -89.5 143t-241.5 68l-147 16q-176 18 -280.5 97t-104.5 216q0 167 166 260q-145 83 -145 243q0 161 136.5 255.5t343.5 94.5q262 0 462 -146l-56 -96q-181 132 -405 132q-160 0 -260.5 -63 t-101.5 -170q0 -181 325 -213l138 -13q112 -11 198.5 -45.5t143.5 -103t57 -163.5q0 -172 -170 -264q150 -83 149 -238q0 -117 -70.5 -199.5t-183 -120.5t-254.5 -38q-146 0 -279 45.5t-225 117.5zM304 602q0 -177 325 -211l140 -15q75 -8 138 -28q161 63 161 211 q0 91 -89.5 144.5t-240.5 67.5l-146 14q-72 8 -131 26q-74 -30 -115.5 -83.5t-41.5 -125.5z" />
<glyph unicode="&#xa8;" horiz-adv-x="935" d="M175 1256.5q0 35.5 24 60t59 24.5t59.5 -24.5t24.5 -60.5q0 -35 -24 -58.5t-60 -23.5q-35 0 -59 23.5t-24 59zM594 1256.5q0 35.5 24 60t59 24.5q36 0 60.5 -24.5t24.5 -60.5q0 -35 -24.5 -58.5t-60.5 -23.5t-59.5 23.5t-23.5 59z" />
<glyph unicode="&#xa9;" horiz-adv-x="1943" d="M155 723q0 165 64.5 315.5t174 259.5t261 173.5t317.5 64.5t317.5 -64.5t261 -173.5t174.5 -259.5t65 -315.5q0 -166 -65 -316.5t-174.5 -260t-261 -174t-317.5 -64.5t-317.5 64.5t-261 174t-174 260t-64.5 316.5zM261 723q0 -145 56.5 -277t151 -227t226.5 -151.5 t277 -56.5t276.5 56.5t227 151.5t151.5 227t56 277q0 144 -56 276.5t-151.5 227t-227.5 151t-276.5 56.5t-276.5 -56.5t-226.5 -151t-151 -227t-56.5 -276.5zM562 723q0 190 123.5 313t308.5 123q109 0 201 -48t146 -131l-87 -59q-42 65 -110.5 100.5t-150.5 35.5 q-136 0 -228.5 -94t-92.5 -240q0 -151 93 -242.5t229 -91.5q82 0 150.5 36t111.5 99l82 -64q-56 -82 -145.5 -127.5t-198.5 -45.5q-185 0 -308.5 122t-123.5 314z" />
<glyph unicode="&#xaa;" horiz-adv-x="799" d="M86 840q0 90 72.5 142t205.5 52h210v8q0 201 -203 201q-117 0 -209 -77l-39 75q111 88 258 88q135 0 213 -69t78 -208v-403h-95v103q-102 -114 -253 -114q-109 0 -173.5 56t-64.5 146zM187 842q0 -53 42.5 -88.5t115.5 -35.5q134 0 230 112v136h-197q-95 0 -143 -34.5 t-48 -89.5z" />
<glyph unicode="&#xab;" horiz-adv-x="1021" d="M142 540l198 372h126l-199 -372l199 -373h-126zM530 540l198 372h126l-199 -372l199 -373h-126z" />
<glyph unicode="&#xac;" d="M178 486v106h873v-430h-109v324h-764z" />
<glyph unicode="&#xad;" horiz-adv-x="855" d="M151 486v106h555v-106h-555z" />
<glyph unicode="&#xae;" horiz-adv-x="901" d="M51 1072q0 163 117 278t285 115q165 0 281 -115t116 -278q0 -162 -117 -276.5t-280 -114.5q-168 0 -285 114.5t-117 276.5zM130 1072q0 -133 94 -226.5t229 -93.5q132 0 225 93.5t93 226.5q0 134 -92.5 228t-225.5 94q-135 0 -229 -94t-94 -228zM310 887v377h166 q68 0 107 -31.5t39 -85.5q0 -47 -33 -77.5t-91 -35.5l126 -147h-77l-121 147h-51v-147h-65zM375 1086h100q38 0 59.5 15.5t21.5 45.5q0 29 -21.5 44.5t-59.5 15.5h-100v-121z" />
<glyph unicode="&#xaf;" horiz-adv-x="925" d="M164 1208v96h599v-96h-599z" />
<glyph unicode="&#xb0;" horiz-adv-x="786" d="M51 1111q0 139 100.5 238.5t242 99.5t241.5 -99.5t100 -238.5q0 -141 -100 -240.5t-241.5 -99.5t-242 99.5t-100.5 240.5zM152 1111q0 -102 70.5 -173.5t170.5 -71.5q99 0 170.5 72t71.5 173q0 100 -71 171.5t-171 71.5t-170.5 -71.5t-70.5 -171.5z" />
<glyph unicode="&#xb1;" d="M178 74v106h873v-106h-873zM178 638v106h380v370h108v-370h385v-106h-385v-333h-108v333h-380z" />
<glyph unicode="&#xb2;" horiz-adv-x="672" d="M68 1310q92 132 251 132q118 0 185.5 -67t67.5 -173q0 -118 -112 -230l-230 -233h370v-90h-508v76l299 302q82 82 82 168q0 67 -43.5 110.5t-118.5 43.5q-108 -1 -180 -100z" />
<glyph unicode="&#xb3;" horiz-adv-x="673" d="M52 740l57 65q79 -77 193 -77q78 0 129.5 36t51.5 103q0 61 -53 97.5t-132 36.5h-105v86h105q74 0 121.5 36t47.5 100q0 58 -47.5 94.5t-123.5 36.5q-112 0 -181 -86l-60 61q91 113 245 113q118 0 192.5 -59t74.5 -153q0 -68 -36 -115.5t-100 -70.5q71 -22 112 -69.5 t41 -115.5q0 -105 -81 -162t-197 -57q-159 0 -254 100z" />
<glyph unicode="&#xb4;" horiz-adv-x="925" d="M276 1108l226 307h147l-257 -307h-116z" />
<glyph unicode="&#xb5;" horiz-adv-x="1225" d="M175 -410v1374h117v-555q0 -146 81.5 -230t227.5 -84q137 0 230 89.5t93 230.5v549h116v-964h-115v169q-54 -92 -146.5 -138t-197.5 -46q-184 0 -290 109v-504h-116z" />
<glyph unicode="&#xb6;" horiz-adv-x="1143" d="M154 1100q0 158 103.5 246t290.5 88h95v-1434h-93v767h-2q-185 0 -289.5 88t-104.5 245zM751 0v1434h93v-1434h-93z" />
<glyph unicode="&#xb7;" horiz-adv-x="766" d="M286 540q0 40 29.5 69t68.5 29t68 -29t29 -69q0 -39 -29 -69t-68 -30t-68.5 30t-29.5 69z" />
<glyph unicode="&#xb8;" horiz-adv-x="996" d="M385 -331l111 337l116 -1l-105 -336h-122z" />
<glyph unicode="&#xb9;" horiz-adv-x="553" d="M52 1208v97l335 136v-792h-97v657z" />
<glyph unicode="&#xba;" horiz-adv-x="869" d="M86 984.5q0 148.5 99.5 246.5t249 98t249 -98t99.5 -246.5t-99.5 -247.5t-249 -99t-249 99t-99.5 247.5zM185 984q0 -111 71.5 -183t177.5 -72q108 0 179.5 72t71.5 183q0 110 -71.5 182.5t-179.5 72.5q-106 0 -177.5 -72.5t-71.5 -182.5z" />
<glyph unicode="&#xbb;" horiz-adv-x="1021" d="M168 167l199 373l-199 372h126l198 -372l-198 -373h-126zM556 167l199 373l-199 372h126l198 -372l-198 -373h-126z" />
<glyph unicode="&#xbc;" horiz-adv-x="1619" d="M52 1208v97l335 136v-792h-97v657zM280 0l904 1434h118l-905 -1434h-117zM976 161v70l280 551h107l-272 -532h259v222h97v-222h131v-89h-131v-161h-97v161h-374z" />
<glyph unicode="&#xbd;" horiz-adv-x="1679" d="M52 1208v97l335 136v-792h-97v657zM280 0l904 1434h118l-905 -1434h-117zM1074 660q92 132 252 133q118 0 185.5 -67.5t67.5 -172.5q0 -118 -113 -230l-229 -233h370v-90h-508v76l299 302q82 82 82 168q0 67 -43.5 110t-118.5 43q-108 0 -180 -99z" />
<glyph unicode="&#xbe;" horiz-adv-x="1717" d="M52 740l57 65q79 -77 193 -77q78 0 129.5 36t51.5 103q0 61 -53 97.5t-132 36.5h-105v86h105q74 0 121.5 36t47.5 100q0 58 -47.5 94.5t-123.5 36.5q-112 0 -181 -86l-60 61q91 113 245 113q118 0 192.5 -59t74.5 -153q0 -68 -36 -115.5t-100 -70.5q71 -22 112 -69.5 t41 -115.5q0 -105 -81 -162t-197 -57q-159 0 -254 100zM378 0l904 1434h118l-904 -1434h-118zM1073 161v70l281 551h106l-272 -532h259v222h97v-222h131v-89h-131v-161h-97v161h-374z" />
<glyph unicode="&#xbf;" horiz-adv-x="868" d="M72 -93q0 172 120 278.5t336 124.5l9 208h106v-317h-50q-183 0 -287.5 -77.5t-104.5 -212.5q0 -127 105.5 -203t278.5 -76q43 0 127 8l10 -119q-67 -10 -143 -10q-229 0 -368 108.5t-139 287.5zM492 881q0 39 29.5 68.5t68.5 29.5t68.5 -29.5t29.5 -68.5 q0 -40 -29.5 -69.5t-68.5 -29.5t-68.5 29.5t-29.5 69.5z" />
<glyph unicode="&#xc0;" horiz-adv-x="1439" d="M41 0l602 1434h154l602 -1434h-134l-174 419h-746l-174 -419h-130zM395 538h645l-322 774zM473 1840h148l225 -307h-116z" />
<glyph unicode="&#xc1;" horiz-adv-x="1439" d="M41 0l602 1434h154l602 -1434h-134l-174 419h-746l-174 -419h-130zM395 538h645l-322 774zM586 1533l225 307h147l-257 -307h-115z" />
<glyph unicode="&#xc2;" horiz-adv-x="1439" d="M41 0l602 1434h154l602 -1434h-134l-174 419h-746l-174 -419h-130zM389 1539l254 289h154l254 -289h-126l-205 210l-205 -210h-126zM395 538h645l-322 774z" />
<glyph unicode="&#xc3;" horiz-adv-x="1439" d="M41 0l602 1434h154l602 -1434h-134l-174 419h-746l-174 -419h-130zM372 1671q43 57 92.5 85t118.5 28q46 0 87 -14t65 -30.5t56.5 -30t64.5 -13.5q77 0 141 79l71 -67q-45 -58 -94.5 -86t-117.5 -28q-46 0 -86 14t-64.5 31t-57.5 30.5t-65 13.5q-42 0 -74.5 -18.5 t-67.5 -59.5zM395 538h645l-322 774z" />
<glyph unicode="&#xc4;" horiz-adv-x="1439" d="M41 0l602 1434h154l602 -1434h-134l-174 419h-746l-174 -419h-130zM395 538h645l-322 774zM427 1681q0 36 24 60.5t59 24.5t59.5 -24.5t24.5 -60.5q0 -35 -24 -59t-60 -24q-35 0 -59 24.5t-24 58.5zM846 1681q0 36 24 60.5t59 24.5q36 0 60.5 -25t24.5 -59.5t-24.5 -59 t-60.5 -24.5t-59.5 24.5t-23.5 58.5z" />
<glyph unicode="&#xc5;" horiz-adv-x="1439" d="M41 0l602 1434h154l602 -1434h-134l-174 419h-746l-174 -419h-130zM395 538h645l-322 774zM500 1735q0 90 64.5 154t155.5 64t155.5 -64t64.5 -154t-64.5 -154t-155.5 -64t-155.5 64t-64.5 154zM579 1734.5q0 -59.5 41.5 -101.5t99.5 -42t99.5 42t41.5 101.5t-41.5 101 t-99.5 41.5t-99.5 -41.5t-41.5 -101z" />
<glyph unicode="&#xc6;" horiz-adv-x="2319" d="M33 0l1092 1434h1015v-118h-855v-536h831v-116h-831v-546h862v-118h-987v399h-674l-303 -399h-150zM578 518h582v766z" />
<glyph unicode="&#xc7;" horiz-adv-x="1564" d="M129 717q0 159 56.5 295.5t153.5 232t232.5 150.5t291.5 55q184 0 339.5 -79t240.5 -216l-105 -70q-75 114 -200 179t-275 65q-126 0 -237.5 -44.5t-192.5 -124t-127.5 -194.5t-46.5 -249t46.5 -249.5t127.5 -194.5t192.5 -124t237.5 -45q150 0 275 64.5t199 179.5 l103 -75q-82 -123 -215.5 -198t-295.5 -88l-100 -318h-127l105 317q-194 12 -348 107t-242 258.5t-88 365.5z" />
<glyph unicode="&#xc8;" horiz-adv-x="1373" d="M214 0v1434h980v-118h-855v-536h830v-116h-830v-546h862v-118h-987zM451 1840h147l225 -307h-115z" />
<glyph unicode="&#xc9;" horiz-adv-x="1373" d="M214 0v1434h980v-118h-855v-536h830v-116h-830v-546h862v-118h-987zM563 1533l225 307h148l-257 -307h-116z" />
<glyph unicode="&#xca;" horiz-adv-x="1373" d="M214 0v1434h980v-118h-855v-536h830v-116h-830v-546h862v-118h-987zM367 1539l254 289h153l254 -289h-126l-205 210l-204 -210h-126z" />
<glyph unicode="&#xcb;" horiz-adv-x="1373" d="M214 0v1434h980v-118h-855v-536h830v-116h-830v-546h862v-118h-987zM404 1681q0 36 24.5 60.5t59 24.5t59 -24.5t24.5 -60.5q0 -35 -24 -59t-60 -24q-35 0 -59 24.5t-24 58.5zM823 1681q0 36 24 60.5t59 24.5q36 0 60.5 -25t24.5 -59.5t-24.5 -59t-60.5 -24.5t-59.5 24.5 t-23.5 58.5z" />
<glyph unicode="&#xcc;" horiz-adv-x="553" d="M30 1840h147l225 -307h-115zM214 0v1434h125v-1434h-125z" />
<glyph unicode="&#xcd;" horiz-adv-x="553" d="M142 1533l226 307h147l-257 -307h-116zM214 0v1434h125v-1434h-125z" />
<glyph unicode="&#xce;" horiz-adv-x="553" d="M-54 1539l254 289h153l254 -289h-126l-205 210l-204 -210h-126zM214 0v1434h125v-1434h-125z" />
<glyph unicode="&#xcf;" horiz-adv-x="553" d="M-16 1681q0 36 24 60.5t58.5 24.5t59.5 -24.5t25 -60.5q0 -35 -24.5 -59t-60 -24t-59 24.5t-23.5 58.5zM214 0v1434h125v-1434h-125zM402 1681q0 36 24.5 60.5t59 24.5t59.5 -25t25 -59.5t-24.5 -59t-60.5 -24.5q-35 0 -59 24.5t-24 58.5z" />
<glyph unicode="&#xd0;" horiz-adv-x="1817" d="M128 663v118h263v653h523q357 0 566.5 -193t209.5 -524t-209 -524t-567 -193h-523v663h-263zM516 119h398q308 0 476.5 160.5t168.5 437.5q0 278 -168 438t-477 160h-398v-534h430v-118h-430v-544z" />
<glyph unicode="&#xd1;" horiz-adv-x="1606" d="M214 0v1434h113l940 -1219v1219h125v-1434h-113l-939 1219l-1 -1219h-125zM455 1671q43 57 92.5 85t118.5 28q46 0 87 -14t65 -30.5t56.5 -30t64.5 -13.5q77 0 141 79l71 -67q-45 -58 -94.5 -86t-117.5 -28q-46 0 -86 14t-64.5 31t-57.5 30.5t-65 13.5q-42 0 -74.5 -18.5 t-67.5 -59.5z" />
<glyph unicode="&#xd2;" horiz-adv-x="1725" d="M129 717q0 159 56.5 295.5t153.5 232t233 150.5t291.5 55t291 -55t233 -150.5t153.5 -232t56 -295.5t-56 -295.5t-153.5 -232.5t-233 -150.5t-291 -54.5t-291.5 54.5t-233 150.5t-153.5 232.5t-56.5 295.5zM259 717q0 -134 46.5 -249.5t127.5 -194.5t192.5 -124 t237.5 -45t237 45t192 124t127.5 194.5t46.5 249.5t-46.5 249t-127.5 194.5t-192 124t-237 44.5t-237.5 -44.5t-192.5 -124t-127.5 -194.5t-46.5 -249zM616 1840h148l225 -307h-116z" />
<glyph unicode="&#xd3;" horiz-adv-x="1725" d="M129 717q0 159 56.5 295.5t153.5 232t233 150.5t291.5 55t291 -55t233 -150.5t153.5 -232t56 -295.5t-56 -295.5t-153.5 -232.5t-233 -150.5t-291 -54.5t-291.5 54.5t-233 150.5t-153.5 232.5t-56.5 295.5zM259 717q0 -134 46.5 -249.5t127.5 -194.5t192.5 -124 t237.5 -45t237 45t192 124t127.5 194.5t46.5 249.5t-46.5 249t-127.5 194.5t-192 124t-237 44.5t-237.5 -44.5t-192.5 -124t-127.5 -194.5t-46.5 -249zM729 1533l225 307h148l-257 -307h-116z" />
<glyph unicode="&#xd4;" horiz-adv-x="1725" d="M129 717q0 159 56.5 295.5t153.5 232t233 150.5t291.5 55t291 -55t233 -150.5t153.5 -232t56 -295.5t-56 -295.5t-153.5 -232.5t-233 -150.5t-291 -54.5t-291.5 54.5t-233 150.5t-153.5 232.5t-56.5 295.5zM259 717q0 -134 46.5 -249.5t127.5 -194.5t192.5 -124 t237.5 -45t237 45t192 124t127.5 194.5t46.5 249.5t-46.5 249t-127.5 194.5t-192 124t-237 44.5t-237.5 -44.5t-192.5 -124t-127.5 -194.5t-46.5 -249zM532 1539l254 289h154l254 -289h-126l-205 210l-205 -210h-126z" />
<glyph unicode="&#xd5;" horiz-adv-x="1725" d="M129 717q0 159 56.5 295.5t153.5 232t233 150.5t291.5 55t291 -55t233 -150.5t153.5 -232t56 -295.5t-56 -295.5t-153.5 -232.5t-233 -150.5t-291 -54.5t-291.5 54.5t-233 150.5t-153.5 232.5t-56.5 295.5zM259 717q0 -134 46.5 -249.5t127.5 -194.5t192.5 -124 t237.5 -45t237 45t192 124t127.5 194.5t46.5 249.5t-46.5 249t-127.5 194.5t-192 124t-237 44.5t-237.5 -44.5t-192.5 -124t-127.5 -194.5t-46.5 -249zM515 1671q43 57 92.5 85t118.5 28q46 0 87 -14t65 -30.5t57 -30t64 -13.5q77 0 142 79l70 -67q-45 -58 -94.5 -86 t-117.5 -28q-46 0 -86 14t-64.5 31t-57 30.5t-65.5 13.5q-42 0 -74 -18.5t-67 -59.5z" />
<glyph unicode="&#xd6;" horiz-adv-x="1725" d="M129 717q0 159 56.5 295.5t153.5 232t233 150.5t291.5 55t291 -55t233 -150.5t153.5 -232t56 -295.5t-56 -295.5t-153.5 -232.5t-233 -150.5t-291 -54.5t-291.5 54.5t-233 150.5t-153.5 232.5t-56.5 295.5zM259 717q0 -134 46.5 -249.5t127.5 -194.5t192.5 -124 t237.5 -45t237 45t192 124t127.5 194.5t46.5 249.5t-46.5 249t-127.5 194.5t-192 124t-237 44.5t-237.5 -44.5t-192.5 -124t-127.5 -194.5t-46.5 -249zM570 1681q0 36 24 60.5t59 24.5t59.5 -24.5t24.5 -60.5q0 -35 -24 -59t-60 -24q-35 0 -59 24.5t-24 58.5zM989 1681 q0 36 24 60.5t59 24.5q36 0 60.5 -25t24.5 -59.5t-24.5 -59t-60.5 -24.5t-59.5 24.5t-23.5 58.5z" />
<glyph unicode="&#xd7;" d="M231 844l78 77l304 -306l309 309l74 -76l-307 -308l308 -309l-76 -76l-310 308l-303 -304l-76 75l304 304z" />
<glyph unicode="&#xd8;" horiz-adv-x="1725" d="M129 717q0 159 56.5 295.5t153.5 232t232.5 150.5t291.5 55q282 0 483 -168l166 167l83 -83l-167 -167q169 -199 169 -482q0 -159 -56 -295.5t-153.5 -232.5t-233 -150.5t-291.5 -54.5q-283 0 -483 168l-166 -166l-83 82l166 165q-168 201 -168 484zM259 717 q0 -231 129 -392l867 867q-165 137 -392 137q-126 0 -237.5 -44.5t-192.5 -124t-127.5 -194.5t-46.5 -249zM469 241q165 -136 394 -137q126 0 237 45t192 124t127.5 194.5t46.5 249.5q0 228 -129 391z" />
<glyph unicode="&#xd9;" horiz-adv-x="1546" d="M193 558v876h124v-867q0 -116 34.5 -205.5t96.5 -144.5t144 -84t180 -29q204 0 329.5 118t125.5 345v867h126v-876q0 -140 -45 -250.5t-125 -180.5t-184.5 -106t-226.5 -36t-226.5 36t-183.5 106t-124 180.5t-45 250.5zM525 1840h148l225 -307h-116z" />
<glyph unicode="&#xda;" horiz-adv-x="1546" d="M193 558v876h124v-867q0 -116 34.5 -205.5t96.5 -144.5t144 -84t180 -29q204 0 329.5 118t125.5 345v867h126v-876q0 -140 -45 -250.5t-125 -180.5t-184.5 -106t-226.5 -36t-226.5 36t-183.5 106t-124 180.5t-45 250.5zM638 1533l225 307h148l-257 -307h-116z" />
<glyph unicode="&#xdb;" horiz-adv-x="1546" d="M193 558v876h124v-867q0 -116 34.5 -205.5t96.5 -144.5t144 -84t180 -29q204 0 329.5 118t125.5 345v867h126v-876q0 -140 -45 -250.5t-125 -180.5t-184.5 -106t-226.5 -36t-226.5 36t-183.5 106t-124 180.5t-45 250.5zM441 1539l254 289h154l254 -289h-126l-205 210 l-205 -210h-126z" />
<glyph unicode="&#xdc;" horiz-adv-x="1546" d="M193 558v876h124v-867q0 -116 34.5 -205.5t96.5 -144.5t144 -84t180 -29q204 0 329.5 118t125.5 345v867h126v-876q0 -140 -45 -250.5t-125 -180.5t-184.5 -106t-226.5 -36t-226.5 36t-183.5 106t-124 180.5t-45 250.5zM479 1681q0 36 24 60.5t59 24.5t59.5 -24.5 t24.5 -60.5q0 -35 -24 -59t-60 -24t-59.5 24.5t-23.5 58.5zM898 1681q0 36 24 60.5t59 24.5t60 -25t25 -59.5t-24.5 -59t-60.5 -24.5q-35 0 -59 24.5t-24 58.5z" />
<glyph unicode="&#xdd;" horiz-adv-x="1293" d="M12 1434h150l486 -702l487 702h146l-571 -820v-614h-125v616zM514 1533l225 307h148l-257 -307h-116z" />
<glyph unicode="&#xde;" horiz-adv-x="1362" d="M214 0v1434h125v-277h407q238 0 372.5 -112t134.5 -313t-134.5 -313t-372.5 -112h-407v-307h-125zM339 426h404q182 0 281 78t99 228.5t-99 228.5t-281 78h-404v-613z" />
<glyph unicode="&#xdf;" horiz-adv-x="1245" d="M177 0v1044q0 199 121.5 322.5t338.5 123.5q196 0 327 -107t131 -279q0 -132 -66.5 -222.5t-173.5 -126.5q121 -31 201 -129.5t80 -231.5q0 -187 -121 -298t-299 -111q-142 0 -251 50l29 105q91 -47 204 -47q142 0 230.5 80t88.5 225q0 140 -98 218t-261 78h-72v106h49 q71 0 130 15.5t107.5 49t76 90t27.5 131.5q0 139 -97 216.5t-244 77.5q-156 0 -248.5 -92t-92.5 -252v-1036h-117z" />
<glyph unicode="&#xe0;" horiz-adv-x="1273" d="M110 481q0 214 138.5 356t342.5 142q127 0 224 -54t158 -147v186h116v-964h-116v185q-60 -94 -157.5 -147t-224.5 -53q-204 0 -342.5 141t-138.5 355zM228 481q0 -164 106.5 -275.5t269.5 -111.5t269 110t106 277t-106 277.5t-269 110.5q-164 0 -270 -111t-106 -277z M356 1415h148l225 -307h-116z" />
<glyph unicode="&#xe1;" horiz-adv-x="1273" d="M110 481q0 214 138.5 356t342.5 142q127 0 224 -54t158 -147v186h116v-964h-116v185q-60 -94 -157.5 -147t-224.5 -53q-204 0 -342.5 141t-138.5 355zM228 481q0 -164 106.5 -275.5t269.5 -111.5t269 110t106 277t-106 277.5t-269 110.5q-164 0 -270 -111t-106 -277z M500 1108l225 307h147l-257 -307h-115z" />
<glyph unicode="&#xe2;" horiz-adv-x="1273" d="M110 481q0 214 138.5 356t342.5 142q127 0 224 -54t158 -147v186h116v-964h-116v185q-60 -94 -157.5 -147t-224.5 -53q-204 0 -342.5 141t-138.5 355zM228 481q0 -164 106.5 -275.5t269.5 -111.5t269 110t106 277t-106 277.5t-269 110.5q-164 0 -270 -111t-106 -277z M290 1114l254 289h153l254 -289h-126l-204 210l-205 -210h-126z" />
<glyph unicode="&#xe3;" horiz-adv-x="1273" d="M110 481q0 214 138.5 356t342.5 142q127 0 224 -54t158 -147v186h116v-964h-116v185q-60 -94 -157.5 -147t-224.5 -53q-204 0 -342.5 141t-138.5 355zM228 481q0 -164 106.5 -275.5t269.5 -111.5t269 110t106 277t-106 277.5t-269 110.5q-164 0 -270 -111t-106 -277z M284 1246q43 57 92.5 85t118.5 28q46 0 87 -14t65 -30.5t56.5 -30t64.5 -13.5q77 0 141 79l71 -67q-45 -58 -94.5 -86t-117.5 -28q-46 0 -86 14t-64.5 31t-57.5 30.5t-65 13.5q-42 0 -74.5 -18.5t-67.5 -59.5z" />
<glyph unicode="&#xe4;" horiz-adv-x="1273" d="M110 481q0 214 138.5 356t342.5 142q127 0 224 -54t158 -147v186h116v-964h-116v185q-60 -94 -157.5 -147t-224.5 -53q-204 0 -342.5 141t-138.5 355zM228 481q0 -164 106.5 -275.5t269.5 -111.5t269 110t106 277t-106 277.5t-269 110.5q-164 0 -270 -111t-106 -277z M328 1256.5q0 35.5 24 60t58.5 24.5t59.5 -24.5t25 -60.5q0 -35 -24.5 -58.5t-60 -23.5t-59 23.5t-23.5 59zM746 1256.5q0 35.5 24.5 60t59 24.5t59.5 -24.5t25 -60.5q0 -35 -24.5 -58.5t-60.5 -23.5q-35 0 -59 23.5t-24 59z" />
<glyph unicode="&#xe5;" horiz-adv-x="1273" d="M110 481q0 214 138.5 356t342.5 142q127 0 224 -54t158 -147v186h116v-964h-116v185q-60 -94 -157.5 -147t-224.5 -53q-204 0 -342.5 141t-138.5 355zM228 481q0 -164 106.5 -275.5t269.5 -111.5t269 110t106 277t-106 277.5t-269 110.5q-164 0 -270 -111t-106 -277z M400 1310q0 90 64.5 154t156 64t156 -64t64.5 -154t-64.5 -154t-156 -64t-156 64t-64.5 154zM479 1309.5q0 -59.5 41.5 -101.5t100 -42t100 42t41.5 101.5t-41.5 101t-100 41.5t-100 -41.5t-41.5 -101z" />
<glyph unicode="&#xe6;" horiz-adv-x="1862" d="M110 264q0 126 103 201t296 75h316v29q0 155 -80 229.5t-228 74.5q-162 0 -295 -102l-55 87q158 121 364 121q302 0 374 -237q56 109 163 173t235 64q194 0 321 -138.5t129 -354.5q0 -18 -2 -47h-807q12 -164 116 -258.5t256 -94.5q186 0 325 136l63 -79 q-155 -159 -394 -158q-130 0 -235 53.5t-169 150.5q-72 -92 -181.5 -148t-243.5 -56q-170 0 -270.5 76.5t-100.5 202.5zM234 264q0 -78 70.5 -127.5t194.5 -49.5q104 0 202.5 51.5t159.5 139.5q-30 77 -36 164h-304q-147 0 -217 -48t-70 -130zM946 540h688 q-12 148 -105.5 241t-228.5 93q-144 0 -239.5 -93t-114.5 -241z" />
<glyph unicode="&#xe7;" horiz-adv-x="1047" d="M110 481q0 214 138.5 356t354.5 142q106 0 198.5 -39t156.5 -111l-75 -78q-119 119 -283 118q-159 0 -265.5 -110t-106.5 -278q0 -167 106.5 -277t265.5 -110q164 0 286 120l72 -80q-117 -129 -305 -146l-99 -319h-122l105 320q-190 23 -308.5 159.5t-118.5 332.5z" />
<glyph unicode="&#xe8;" horiz-adv-x="1147" d="M110 481q0 217 136 357.5t341 140.5q194 0 321.5 -138.5t129.5 -353.5q0 -19 -2 -48h-808q12 -164 116.5 -258.5t256.5 -94.5q186 0 326 137l62 -80q-156 -159 -395 -158q-212 0 -348 138.5t-136 357.5zM230 540h690q-13 150 -106 243t-229 93q-144 0 -240.5 -94 t-114.5 -242zM321 1415h147l225 -307h-115z" />
<glyph unicode="&#xe9;" horiz-adv-x="1147" d="M110 481q0 217 136 357.5t341 140.5q194 0 321.5 -138.5t129.5 -353.5q0 -19 -2 -48h-808q12 -164 116.5 -258.5t256.5 -94.5q186 0 326 137l62 -80q-156 -159 -395 -158q-212 0 -348 138.5t-136 357.5zM230 540h690q-13 150 -106 243t-229 93q-144 0 -240.5 -94 t-114.5 -242zM464 1108l225 307h148l-257 -307h-116z" />
<glyph unicode="&#xea;" horiz-adv-x="1147" d="M110 481q0 217 136 357.5t341 140.5q194 0 321.5 -138.5t129.5 -353.5q0 -19 -2 -48h-808q12 -164 116.5 -258.5t256.5 -94.5q186 0 326 137l62 -80q-156 -159 -395 -158q-212 0 -348 138.5t-136 357.5zM230 540h690q-13 150 -106 243t-229 93q-144 0 -240.5 -94 t-114.5 -242zM254 1114l254 289h154l253 -289h-125l-205 210l-205 -210h-126z" />
<glyph unicode="&#xeb;" horiz-adv-x="1147" d="M110 481q0 217 136 357.5t341 140.5q194 0 321.5 -138.5t129.5 -353.5q0 -19 -2 -48h-808q12 -164 116.5 -258.5t256.5 -94.5q186 0 326 137l62 -80q-156 -159 -395 -158q-212 0 -348 138.5t-136 357.5zM230 540h690q-13 150 -106 243t-229 93q-144 0 -240.5 -94 t-114.5 -242zM292 1256.5q0 35.5 24 60t59 24.5t59.5 -24.5t24.5 -60.5q0 -35 -24 -58.5t-60 -23.5q-35 0 -59 23.5t-24 59zM711 1256.5q0 35.5 24 60t59 24.5q36 0 60.5 -24.5t24.5 -60.5q0 -35 -25 -58.5t-60.5 -23.5t-59 23.5t-23.5 59z" />
<glyph unicode="&#xec;" horiz-adv-x="488" d="M-19 1415h147l225 -307h-115zM186 0v964h117v-964h-117z" />
<glyph unicode="&#xed;" horiz-adv-x="488" d="M124 1108l225 307h148l-257 -307h-116zM186 0v964h117v-964h-117z" />
<glyph unicode="&#xee;" horiz-adv-x="488" d="M-86 1114l254 289h154l253 -289h-125l-205 210l-205 -210h-126zM186 0v964h117v-964h-117z" />
<glyph unicode="&#xef;" horiz-adv-x="488" d="M-48 1256.5q0 35.5 24 60t59 24.5t59.5 -24.5t24.5 -60.5q0 -35 -24 -58.5t-60 -23.5q-35 0 -59 23.5t-24 59zM186 0v964h117v-964h-117zM371 1256.5q0 35.5 24 60t59 24.5q36 0 60.5 -24.5t24.5 -60.5q0 -35 -25 -58.5t-60.5 -23.5t-59 23.5t-23.5 59z" />
<glyph unicode="&#xf0;" horiz-adv-x="1217" d="M110 474q0 210 137.5 351t340.5 141q104 0 192.5 -40.5t149.5 -114.5q-94 215 -308 387l-266 -154l-43 71l236 138q-113 78 -242 137l52 94q157 -68 292 -171l253 146l44 -70l-227 -133q171 -151 279 -352.5t108 -415.5q0 -215 -143.5 -359t-355.5 -144q-213 0 -356 140 t-143 349zM228 474q0 -164 109 -272t272 -108q164 0 273 107.5t109 272.5q0 166 -109 274t-273 108q-163 0 -272 -108t-109 -274z" />
<glyph unicode="&#xf1;" horiz-adv-x="1226" d="M186 0v964h116v-169q54 92 146.5 138t197.5 46q182 0 294 -105.5t112 -282.5v-591h-117v555q0 146 -81.5 229.5t-227.5 83.5q-137 0 -230 -89.5t-93 -229.5v-549h-117zM292 1246q43 57 92.5 85t118.5 28q46 0 87 -14t65 -30.5t56.5 -30t64.5 -13.5q77 0 142 79l70 -67 q-45 -58 -94.5 -86t-117.5 -28q-46 0 -86 14t-64.5 31t-57 30.5t-65.5 13.5q-42 0 -74.5 -18.5t-67.5 -59.5z" />
<glyph unicode="&#xf2;" horiz-adv-x="1220" d="M110 481q0 213 142.5 355.5t356.5 142.5t358 -142.5t144 -355.5t-144 -354.5t-358 -141.5t-356.5 141.5t-142.5 354.5zM228 481q0 -167 109 -277t272 -110q164 0 273 109.5t109 277.5t-109 278t-273 110q-163 0 -272 -110t-109 -278zM346 1415h148l225 -307h-116z" />
<glyph unicode="&#xf3;" horiz-adv-x="1220" d="M110 481q0 213 142.5 355.5t356.5 142.5t358 -142.5t144 -355.5t-144 -354.5t-358 -141.5t-356.5 141.5t-142.5 354.5zM228 481q0 -167 109 -277t272 -110q164 0 273 109.5t109 277.5t-109 278t-273 110q-163 0 -272 -110t-109 -278zM489 1108l226 307h147l-257 -307 h-116z" />
<glyph unicode="&#xf4;" horiz-adv-x="1220" d="M110 481q0 213 142.5 355.5t356.5 142.5t358 -142.5t144 -355.5t-144 -354.5t-358 -141.5t-356.5 141.5t-142.5 354.5zM228 481q0 -167 109 -277t272 -110q164 0 273 109.5t109 277.5t-109 278t-273 110q-163 0 -272 -110t-109 -278zM280 1114l254 289h153l254 -289h-126 l-205 210l-204 -210h-126z" />
<glyph unicode="&#xf5;" horiz-adv-x="1220" d="M110 481q0 213 142.5 355.5t356.5 142.5t358 -142.5t144 -355.5t-144 -354.5t-358 -141.5t-356.5 141.5t-142.5 354.5zM228 481q0 -167 109 -277t272 -110q164 0 273 109.5t109 277.5t-109 278t-273 110q-163 0 -272 -110t-109 -278zM273 1246q43 57 93 85t118 28 q46 0 87 -14t65 -30.5t57 -30t65 -13.5q77 0 141 79l71 -67q-45 -58 -95 -86t-117 -28q-46 0 -86 14t-64.5 31t-57.5 30.5t-66 13.5q-42 0 -74 -18.5t-67 -59.5z" />
<glyph unicode="&#xf6;" horiz-adv-x="1220" d="M110 481q0 213 142.5 355.5t356.5 142.5t358 -142.5t144 -355.5t-144 -354.5t-358 -141.5t-356.5 141.5t-142.5 354.5zM228 481q0 -167 109 -277t272 -110q164 0 273 109.5t109 277.5t-109 278t-273 110q-163 0 -272 -110t-109 -278zM317 1256.5q0 35.5 24.5 60t59 24.5 t59 -24.5t24.5 -60.5q0 -35 -24 -58.5t-59.5 -23.5t-59.5 23.5t-24 59zM736 1256.5q0 35.5 24 60t59 24.5t60 -24.5t25 -60.5q0 -35 -24.5 -58.5t-60.5 -23.5q-35 0 -59 23.5t-24 59z" />
<glyph unicode="&#xf7;" d="M178 486v106h873v-106h-873zM532 221q0 34 24.5 58t58.5 24q33 0 57.5 -24t24.5 -58q0 -33 -24.5 -57.5t-57 -24.5t-58 24.5t-25.5 57.5zM532 858q0 33 25.5 57.5t58 24.5t57 -24.5t24.5 -57.5t-24.5 -58t-57 -25t-58 25t-25.5 58z" />
<glyph unicode="&#xf8;" horiz-adv-x="1220" d="M101 43l119 119q-111 135 -110 319q0 213 142.5 355.5t356.5 142.5q181 0 320 -109l119 119l71 -69l-120 -120q112 -136 112 -319q0 -213 -144 -354.5t-358 -141.5q-184 0 -318 106l-118 -118zM228 481q0 -136 75 -236l545 545q-103 79 -239 79q-163 0 -272 -110 t-109 -278zM373 173q101 -79 236 -79q164 0 273 109.5t109 277.5q0 133 -73 237z" />
<glyph unicode="&#xf9;" horiz-adv-x="1214" d="M175 398v566h117v-555q0 -152 86 -233.5t229 -81.5q142 0 229 81.5t87 233.5v555h116v-566q0 -197 -122.5 -305t-309.5 -108q-90 0 -168 26.5t-137 77t-93 130.5t-34 179zM343 1415h147l226 -307h-116z" />
<glyph unicode="&#xfa;" horiz-adv-x="1214" d="M175 398v566h117v-555q0 -152 86 -233.5t229 -81.5q142 0 229 81.5t87 233.5v555h116v-566q0 -197 -122.5 -305t-309.5 -108q-90 0 -168 26.5t-137 77t-93 130.5t-34 179zM486 1108l226 307h147l-257 -307h-116z" />
<glyph unicode="&#xfb;" horiz-adv-x="1214" d="M175 398v566h117v-555q0 -152 86 -233.5t229 -81.5q142 0 229 81.5t87 233.5v555h116v-566q0 -197 -122.5 -305t-309.5 -108q-90 0 -168 26.5t-137 77t-93 130.5t-34 179zM276 1114l254 289h154l254 -289h-126l-205 210l-205 -210h-126z" />
<glyph unicode="&#xfc;" horiz-adv-x="1214" d="M175 398v566h117v-555q0 -152 86 -233.5t229 -81.5q142 0 229 81.5t87 233.5v555h116v-566q0 -197 -122.5 -305t-309.5 -108q-90 0 -168 26.5t-137 77t-93 130.5t-34 179zM314 1256.5q0 35.5 24 60t59 24.5t59.5 -24.5t24.5 -60.5q0 -35 -24 -58.5t-60 -23.5 q-35 0 -59 23.5t-24 59zM733 1256.5q0 35.5 24 60t59 24.5q36 0 60.5 -24.5t24.5 -60.5q0 -35 -24.5 -58.5t-60.5 -23.5t-59.5 23.5t-23.5 59z" />
<glyph unicode="&#xfd;" horiz-adv-x="1052" d="M25 964h131l388 -634l363 634h128l-797 -1377h-129l368 628zM411 1108l225 307h147l-257 -307h-115z" />
<glyph unicode="&#xfe;" horiz-adv-x="1274" d="M186 -410v1885h117v-695q60 92 157 145.5t223 53.5q205 0 343.5 -142t138.5 -356t-138.5 -355t-343.5 -141q-127 0 -224 52.5t-156 145.5v-593h-117zM295 481q0 -167 106.5 -277t268.5 -110q164 0 270 111t106 276t-106.5 276.5t-269.5 111.5q-162 0 -268.5 -110.5 t-106.5 -277.5z" />
<glyph unicode="&#xff;" horiz-adv-x="1052" d="M25 964h131l388 -634l363 634h128l-797 -1377h-129l368 628zM239 1256.5q0 35.5 24 60t58.5 24.5t59.5 -24.5t25 -60.5q0 -35 -24.5 -58.5t-59.5 -23.5t-59 23.5t-24 59zM657 1256.5q0 35.5 24 60t59 24.5q36 0 60.5 -24.5t24.5 -60.5q0 -35 -24.5 -58.5t-60 -23.5 t-59.5 23.5t-24 59z" />
<glyph unicode="&#x152;" horiz-adv-x="2314" d="M129 717q0 331 208.5 524t566.5 193h1231v-118h-855v-536h830v-116h-830v-546h862v-118h-1238q-358 0 -566.5 193t-208.5 524zM259 716.5q0 -277.5 168 -437.5t477 -160h251v1196h-251q-309 0 -477 -160.5t-168 -438z" />
<glyph unicode="&#x153;" horiz-adv-x="2029" d="M110 481q0 213 142.5 355.5t356.5 142.5q144 0 260 -72.5t177 -195.5q57 124 169 196t253 72q194 0 321.5 -138.5t130.5 -353.5q0 -27 -3 -48h-807q12 -164 116 -258.5t257 -94.5q184 0 325 136l63 -79q-156 -159 -395 -158q-148 0 -261 70t-169 194q-60 -122 -176 -193 t-261 -71q-214 0 -356.5 141.5t-142.5 354.5zM228 481q0 -167 109 -277t272 -110t272.5 110t109.5 277t-109.5 277.5t-272.5 110.5t-272 -110t-109 -278zM1112 540h688q-12 150 -105 243t-229 93q-144 0 -240.5 -94t-113.5 -242z" />
<glyph unicode="&#x178;" horiz-adv-x="1293" d="M12 1434h150l486 -702l487 702h146l-571 -820v-614h-125v616zM355 1681q0 36 24 60.5t59 24.5t59.5 -24.5t24.5 -60.5q0 -35 -24 -59t-60 -24q-35 0 -59 24.5t-24 58.5zM774 1681q0 36 24 60.5t59 24.5q36 0 60.5 -25t24.5 -59.5t-24.5 -59t-60.5 -24.5t-59.5 24.5 t-23.5 58.5z" />
<glyph unicode="&#x2c6;" horiz-adv-x="925" d="M132 1115l254 288h154l254 -288h-126l-205 209l-205 -209h-126z" />
<glyph unicode="&#x2dc;" horiz-adv-x="925" d="M116 1246q43 57 92.5 85t118.5 28q46 0 87 -14t65 -30.5t56.5 -30t64.5 -13.5q77 0 141 79l71 -67q-45 -58 -94.5 -86t-117.5 -28q-46 0 -86 14t-64.5 31t-57.5 30.5t-65 13.5q-42 0 -74.5 -18.5t-67.5 -59.5z" />
<glyph unicode="&#x2000;" horiz-adv-x="976" />
<glyph unicode="&#x2001;" horiz-adv-x="1953" />
<glyph unicode="&#x2002;" horiz-adv-x="976" />
<glyph unicode="&#x2003;" horiz-adv-x="1953" />
<glyph unicode="&#x2004;" horiz-adv-x="651" />
<glyph unicode="&#x2005;" horiz-adv-x="488" />
<glyph unicode="&#x2006;" horiz-adv-x="325" />
<glyph unicode="&#x2007;" horiz-adv-x="325" />
<glyph unicode="&#x2008;" horiz-adv-x="244" />
<glyph unicode="&#x2009;" horiz-adv-x="390" />
<glyph unicode="&#x200a;" horiz-adv-x="108" />
<glyph unicode="&#x2010;" horiz-adv-x="855" d="M151 486v106h555v-106h-555z" />
<glyph unicode="&#x2011;" horiz-adv-x="855" d="M151 486v106h555v-106h-555z" />
<glyph unicode="&#x2012;" horiz-adv-x="855" d="M151 486v106h555v-106h-555z" />
<glyph unicode="&#x2013;" horiz-adv-x="1229" d="M129 486v106h973v-106h-973z" />
<glyph unicode="&#x2014;" horiz-adv-x="1665" d="M65 486v106h1536v-106h-1536z" />
<glyph unicode="&#x2018;" horiz-adv-x="499" d="M154 980l98 495h101l-63 -495h-136z" />
<glyph unicode="&#x2019;" horiz-adv-x="499" d="M146 980l64 495h136l-98 -495h-102z" />
<glyph unicode="&#x201a;" horiz-adv-x="499" d="M146 -255l64 495h136l-98 -495h-102z" />
<glyph unicode="&#x201c;" horiz-adv-x="840" d="M154 980l98 495h101l-63 -495h-136zM495 980l98 495h101l-63 -495h-136z" />
<glyph unicode="&#x201d;" horiz-adv-x="840" d="M146 980l64 495h136l-98 -495h-102zM487 980l64 495h136l-98 -495h-102z" />
<glyph unicode="&#x201e;" horiz-adv-x="840" d="M146 -255l64 495h136l-98 -495h-102zM487 -255l64 495h136l-98 -495h-102z" />
<glyph unicode="&#x2022;" horiz-adv-x="894" d="M252 540q0 82 56.5 138.5t138.5 56.5q80 0 138 -57t58 -138t-58 -138.5t-138 -57.5q-82 0 -138.5 57.5t-56.5 138.5z" />
<glyph unicode="&#x2026;" horiz-adv-x="1442" d="M168 85q0 39 29.5 68t68.5 29q40 0 69.5 -29t29.5 -68q0 -40 -29.5 -69.5t-69.5 -29.5q-39 0 -68.5 29.5t-29.5 69.5zM624 85q0 39 29 68t69 29q39 0 68 -29t29 -68q0 -40 -29 -69.5t-68 -29.5q-40 0 -69 29.5t-29 69.5zM1078 85q0 39 30 68t68.5 29t68.5 -29t30 -68 q0 -40 -30 -69.5t-68.5 -29.5t-68.5 29.5t-30 69.5z" />
<glyph unicode="&#x202f;" horiz-adv-x="390" />
<glyph unicode="&#x2039;" horiz-adv-x="633" d="M142 540l198 372h126l-199 -372l199 -373h-126z" />
<glyph unicode="&#x203a;" horiz-adv-x="633" d="M168 167l199 373l-199 372h126l198 -372l-198 -373h-126z" />
<glyph unicode="&#x205f;" horiz-adv-x="488" />
<glyph unicode="&#x20ac;" horiz-adv-x="1433" d="M81 507v97h162q-5 59 -5 113q0 51 5 112h-162v98h176q49 243 207 382.5t397 139.5q162 0 287.5 -67t204.5 -188l-82 -84q-65 106 -169 166.5t-242 60.5q-187 0 -310.5 -108.5t-167.5 -301.5h689v-98h-704q-6 -54 -7 -112q0 -59 7 -113h704v-97h-689q44 -194 168 -302.5 t311 -108.5q137 0 241.5 60.5t170.5 167.5l77 -80q-79 -124 -203 -191.5t-286 -67.5q-240 0 -397.5 139.5t-206.5 382.5h-176z" />
<glyph unicode="&#x2122;" horiz-adv-x="1380" d="M86 1356v78h477v-78h-196v-488h-84v488h-197zM674 868v567h120l191 -408l191 408h118v-567h-85v452l-181 -389h-87l-182 389v-452h-85z" />
<glyph unicode="&#x25fc;" horiz-adv-x="962" d="M0 0v963h963v-963h-963z" />
<glyph unicode="&#xfb01;" horiz-adv-x="1384" d="M56 857v107h237v165q0 168 76.5 264.5t241.5 96.5q143 0 260 -72l-42 -97q-98 59 -211 59q-209 0 -208 -251v-165h414v-107h-414v-857h-117v857h-237zM1058 1310q0 36 24 60.5t59 24.5t59.5 -24.5t24.5 -60.5q0 -35 -24 -59t-60 -24q-35 0 -59 23.5t-24 59.5zM1082 0v964 h117v-964h-117z" />
<glyph unicode="&#xfb02;" horiz-adv-x="1384" d="M56 857v107h237v165q0 168 76.5 264.5t241.5 96.5q143 0 260 -72l-42 -97q-98 59 -211 59q-209 0 -208 -251v-165h414v-107h-414v-857h-117v857h-237zM1082 0v1475h117v-1475h-117z" />
<glyph unicode="&#xfb03;" horiz-adv-x="2250" d="M56 857v107h237v165q0 168 76.5 264.5t241.5 96.5q143 0 260 -72l-42 -97q-98 59 -211 59q-209 0 -208 -251v-165h414v-107h-414v-857h-117v857h-237zM923 857v107h236v165q0 168 77 264.5t242 96.5q143 0 260 -72l-42 -97q-98 59 -211 59q-209 0 -209 -251v-165h415 v-107h-415v-857h-117v857h-236zM1924 1310q0 36 24 60.5t59 24.5t59.5 -24.5t24.5 -60.5q0 -35 -24 -59t-60 -24q-35 0 -59 23.5t-24 59.5zM1949 0v964h116v-964h-116z" />
<glyph unicode="&#xfb04;" horiz-adv-x="2250" d="M56 857v107h237v165q0 168 76.5 264.5t241.5 96.5q143 0 260 -72l-42 -97q-98 59 -211 59q-209 0 -208 -251v-165h414v-107h-414v-857h-117v857h-237zM923 857v107h236v165q0 168 77 264.5t242 96.5q143 0 260 -72l-42 -97q-98 59 -211 59q-209 0 -209 -251v-165h415 v-107h-415v-857h-117v857h-236zM1949 0v1475h116v-1475h-116z" />
</font>
</defs>
</svg>
