<?xml version="1.0" standalone="no"?>
<!DOCTYPE svg PUBLIC "-//W3C//DTD SVG 1.1//EN" "http://www.w3.org/Graphics/SVG/1.1/DTD/svg11.dtd" >
<svg xmlns="http://www.w3.org/2000/svg">
<metadata></metadata>
<defs>
<font id="mt002regular" horiz-adv-x="1044" >
<font-face units-per-em="2048" ascent="1434" descent="-614" />
<missing-glyph horiz-adv-x="452" />
<glyph horiz-adv-x="0" />
<glyph unicode="&#xd;" horiz-adv-x="681" />
<glyph unicode="&#x9;" horiz-adv-x="452" />
<glyph unicode=" "  horiz-adv-x="452" />
<glyph unicode="&#x09;" horiz-adv-x="452" />
<glyph unicode="&#xa0;" horiz-adv-x="452" />
<glyph unicode="!" horiz-adv-x="643" d="M127 172q0 80 57.5 138.5t134.5 58.5q80 0 138.5 -58.5t58.5 -138.5q0 -78 -58.5 -135t-138.5 -57q-78 0 -135 57t-57 135zM139 1161v234q0 14 12.5 26.5t26.5 12.5h287q14 0 26.5 -12.5t12.5 -26.5v-230l-101 -575q-2 -12 -13 -22.5t-25 -10.5h-86q-14 0 -25.5 10.5 t-13.5 22.5z" />
<glyph unicode="&#x22;" horiz-adv-x="749" d="M63 1065v330q0 14 11.5 26.5t27.5 12.5h213q20 0 31.5 -15.5t5.5 -36.5l-98 -325q-8 -31 -37 -31h-115q-16 0 -27.5 11.5t-11.5 27.5zM434 1065v330q0 14 12.5 26.5t26.5 12.5h213q20 0 31.5 -15.5t5.5 -36.5l-98 -325q-8 -31 -37 -31h-115q-14 0 -26.5 11.5t-12.5 27.5z " />
<glyph unicode="#" horiz-adv-x="1095" d="M68 418v35q0 39 38 39h160l49 329h-149q-14 0 -26.5 11.5t-12.5 27.5v35q0 14 12.5 26.5t26.5 12.5h164l65 467q2 12 12.5 22.5t24.5 10.5h35q16 0 27.5 -13.5t9.5 -31.5l-62 -455h330l64 467q2 12 13 22.5t25 10.5h33q18 0 29.5 -13.5t9.5 -31.5l-61 -455h123 q16 0 27.5 -11.5t11.5 -27.5v-35q0 -16 -11.5 -27.5t-27.5 -11.5h-140l-47 -329h127q16 0 27.5 -11.5t11.5 -27.5v-35q0 -16 -12 -27.5t-27 -11.5h-143l-47 -346q-4 -33 -39 -33h-33q-18 0 -29.5 13.5t-9.5 31.5l47 334h-332l-45 -346q-4 -33 -38 -33h-33q-20 0 -31.5 13.5 t-7.5 31.5l45 334h-146q-16 0 -27 11t-11 28zM379 492h332l45 329h-328z" />
<glyph unicode="$" horiz-adv-x="1077" d="M61 1047q0 160 110 273.5t308 131.5v66q0 16 11.5 27t27.5 11h35q16 0 27.5 -11t11.5 -27v-68q203 -18 381 -150q16 -10 18 -32.5t-6 -32.5l-119 -172q-25 -35 -55 -12q-4 2 -39 24.5t-86 51t-94 44.5v-288q434 -172 434 -480q0 -162 -120 -282.5t-318 -138.5v-213 q0 -14 -11.5 -25.5t-27.5 -11.5h-35q-16 0 -27.5 11t-11.5 26v213q-256 18 -393 155q-16 18 -19.5 26.5t9.5 31.5l88 155q33 59 78 27q133 -88 237 -123l2 332q-76 31 -141.5 69.5t-131 95t-104.5 133.5t-39 163zM358 1092q0 -92 113 -160v266q-49 -6 -81 -37t-32 -69z M594 236q49 12 78.5 45.5t29.5 80.5q0 98 -108 173v-299z" />
<glyph unicode="%" horiz-adv-x="1349" d="M37 1179.5q0 114.5 81 194.5t195.5 80t195.5 -80t81 -194.5t-81 -195.5t-195.5 -81t-195.5 81t-81 195.5zM188 55l703 1358q12 20 35 21h155q23 0 34 -17.5t1 -38.5l-706 -1358q-16 -20 -35 -20h-152q-23 0 -34 17.5t-1 37.5zM242 1179.5q0 -28.5 21.5 -50t50 -21.5 t49 21.5t20.5 50t-21.5 49t-48.5 20.5q-29 0 -50 -20.5t-21 -49zM723 256q0 115 81 195.5t195.5 80.5t196.5 -80.5t82 -195.5t-82 -195.5t-196.5 -80.5t-195.5 81.5t-81 194.5zM930 256q0 -27 20.5 -48.5t49 -21.5t50 20.5t21.5 49.5t-21.5 50.5t-50 21.5t-49 -21.5 t-20.5 -50.5z" />
<glyph unicode="&#x26;" horiz-adv-x="1431" d="M143 369q0 82 29 154.5t70 117.5t83 79t70 46l29 14v6l-41 43q-135 141 -135 293q0 129 106.5 230.5t290.5 101.5q174 0 292 -99.5t118 -242.5q0 -63 -22.5 -121.5t-56.5 -99.5t-66.5 -72t-55.5 -48t-23 -21l185 -189q41 66 67 158q8 27 14.5 38t24 21t41.5 -4l150 -53 q37 -12 38 -45t-12 -49q-23 -63 -54.5 -126t-51.5 -95l-23 -35l174 -162q16 -16 22.5 -24.5t2.5 -27t-29 -42.5l-114 -117q-45 -41 -92 6l-134 133l-17 -17l-51 -38l-87 -48l-126 -37l-165 -17q-195 0 -323 113.5t-128 275.5zM436 410q0 -74 55.5 -124t137.5 -50q45 0 84 11 t63.5 25.5t42 29.5t25.5 26l6 12l-268 285q-6 -2 -15.5 -6.5t-35 -21.5t-45 -39.5t-35 -61.5t-15.5 -86zM520 1124q0 -10 1 -19t5 -19.5t6.5 -16.5t9.5 -17.5t11 -16.5t14.5 -16t14.5 -16.5t16 -19.5t16 -18l45 -45q14 6 37 19t60 58t37 97q0 53 -43 92t-109 39 q-55 0 -88 -30t-33 -71z" />
<glyph unicode="'" horiz-adv-x="374" d="M63 1065v330q0 14 11.5 26.5t27.5 12.5h211q20 0 31.5 -15.5t5.5 -36.5l-98 -325q-8 -31 -37 -31h-113q-16 0 -27.5 11.5t-11.5 27.5z" />
<glyph unicode="(" horiz-adv-x="704" d="M76 645q0 778 520 805q16 2 28.5 -9t12.5 -28l8 -174q0 -31 -27 -39q-125 -39 -180 -177t-55 -378q0 -242 55.5 -379t179.5 -178q27 -12 27 -39l-8 -172q-4 -39 -41 -39q-520 37 -520 807z" />
<glyph unicode=")" horiz-adv-x="704" d="M59 51q0 10 8.5 21.5t18.5 15.5q125 41 180.5 178t55.5 379q0 240 -55.5 378t-180.5 177q-27 8 -27 39l9 174q0 16 12 27.5t29 9.5q520 -27 520 -805q0 -770 -520 -807q-16 0 -28.5 11.5t-12.5 25.5z" />
<glyph unicode="*" horiz-adv-x="745" d="M41 1233q33 49 49 72q25 29 51 8l152 -105l-4 187q0 14 11 26.5t28 12.5h84q14 0 26.5 -12.5t12.5 -26.5l-5 -187l154 105q33 20 53 -10l45 -70q25 -37 -10 -57l-176 -105l176 -106q33 -20 12 -54l-51 -71q-8 -12 -23.5 -15.5t-27.5 4.5l-152 103l5 -182 q0 -16 -12.5 -27.5t-26.5 -11.5h-84q-16 0 -27.5 11t-11.5 28l4 184l-152 -105q-12 -8 -28.5 -5t-24.5 16l-45 71q-23 35 10 56l176 104l-176 107q-31 20 -12 55z" />
<glyph unicode="+" horiz-adv-x="1089" d="M96 637v143q0 14 11.5 26.5t27.5 12.5h299v301q0 14 11.5 25.5t27.5 11.5h143q16 0 27.5 -11t11.5 -26v-301h301q14 0 25.5 -11t11.5 -28v-143q0 -16 -11 -27.5t-26 -11.5h-301v-299q0 -14 -11 -25.5t-28 -11.5h-143q-16 0 -27.5 11.5t-11.5 25.5v299h-299 q-16 0 -27.5 12.5t-11.5 26.5z" />
<glyph unicode="," horiz-adv-x="567" d="M57 170q0 80 60.5 137.5t152.5 57.5t167 -76t75 -234q0 -264 -233 -467q-8 -8 -13 -12q-33 -29 -57 0l-43 49q-29 31 4 58q182 152 184 319q-45 -23 -106 -22q-78 0 -134.5 56t-56.5 134z" />
<glyph unicode="-" horiz-adv-x="735" d="M94 401v187q0 39 39 39h469q39 0 39 -39v-187q0 -16 -11.5 -26t-27.5 -10h-469q-16 0 -27.5 10t-11.5 26z" />
<glyph unicode="." horiz-adv-x="499" d="M55 172q0 80 57.5 138.5t135.5 58.5q80 0 138 -58.5t58 -138.5q0 -78 -58 -135t-138 -57q-78 0 -135.5 57t-57.5 135z" />
<glyph unicode="/" horiz-adv-x="761" d="M49 51l402 1356q8 27 36 27h201q23 0 33 -15.5t4 -36.5l-399 -1355q-8 -27 -37 -27h-203q-20 0 -31.5 15.5t-5.5 35.5z" />
<glyph unicode="0" horiz-adv-x="1277" d="M115 696q0 338 137 527.5t387 189.5t387 -189.5t137 -527.5t-137 -527t-387 -189t-387 189t-137 527zM444 696q0 -203 50.5 -311.5t144.5 -108.5t144.5 109t50.5 311q0 201 -50.5 310.5t-144.5 109.5t-144.5 -109.5t-50.5 -310.5z" />
<glyph unicode="1" horiz-adv-x="765" d="M51 999v129q0 18 12 31l299 234h189q14 0 25.5 -11.5t11.5 -27.5v-1315q0 -16 -11.5 -27.5t-25.5 -11.5h-227q-16 0 -27.5 11.5t-11.5 27.5v922h-197q-14 0 -25.5 11t-11.5 27z" />
<glyph unicode="2" horiz-adv-x="1052" d="M47 39v41q354 465 543 751q53 82 53 156q0 61 -49 104.5t-131 43.5q-106 0 -199 -103q-29 -29 -57 0l-125 127q-29 25 -2 53q6 8 19.5 21.5t54.5 48.5t86 61.5t113.5 48t135.5 21.5q213 0 339 -118.5t126 -295.5q0 -74 -17 -127t-63 -139q-29 -53 -85 -133t-139 -192.5 t-105 -145.5h360q16 0 27.5 -12t11.5 -27v-184q0 -14 -11 -26.5t-28 -12.5h-819q-16 0 -27.5 11.5t-11.5 27.5z" />
<glyph unicode="3" horiz-adv-x="1058" d="M61 162q-20 25 2 51l130 129q25 25 51 4q127 -94 225 -94q68 0 123 49t55 115q0 70 -66.5 118t-177.5 48h-114q-14 0 -26.5 12t-12.5 27v170q0 16 11 27t28 11h114q104 0 162 44.5t58 113.5q0 66 -48.5 110t-115.5 44q-106 0 -178 -82q-25 -29 -56 -2l-125 123 q-29 25 0 53q6 8 19.5 19.5t54.5 43t84 55t106.5 43t127.5 19.5q184 0 313 -103.5t129 -271.5q0 -109 -65.5 -194.5t-145.5 -122.5v-6q90 -39 169 -132.5t79 -211.5q0 -168 -133 -279.5t-344 -111.5q-119 0 -217.5 36.5t-142.5 71.5t-73 74z" />
<glyph unicode="4" horiz-adv-x="1228" d="M29 328v217l714 858q12 12 31 12h148q16 0 27.5 -11t11.5 -28l2 -839h161q16 0 27.5 -10.5t11.5 -26.5v-170q0 -16 -11 -27.5t-28 -11.5h-161l2 -252q0 -14 -11.5 -26.5t-27.5 -12.5h-219q-14 0 -26.5 12.5t-12.5 26.5v250h-600q-16 0 -27.5 11t-11.5 28zM350 543h326 v381z" />
<glyph unicode="5" horiz-adv-x="1079" d="M102 219l129 127q23 23 50 6q145 -98 243 -98q84 0 139.5 55.5t55.5 139.5q0 86 -57.5 142t-153.5 56h-315q-29 0 -46.5 22.5t-17.5 49.5v635q0 16 11.5 27.5t27.5 11.5h659q16 0 27.5 -11.5t11.5 -27.5v-180q0 -16 -11 -27.5t-28 -11.5h-421v-220h145q209 0 338 -131 t129 -335q0 -195 -146.5 -332t-359.5 -137q-141 0 -248 54.5t-158 115.5q-35 39 -4 69z" />
<glyph unicode="6" horiz-adv-x="1101" d="M76 537q0 170 56 318.5t134 243.5t180.5 171t177 111.5t140.5 56.5q47 16 63 -33l60 -158q14 -43 -39 -59q-367 -117 -412 -336q96 41 195 41q160 0 283.5 -115.5t123.5 -328.5q0 -193 -138 -331t-331 -138q-231 0 -362 155.5t-131 401.5zM369 459q0 -80 57 -138.5 t139 -58.5t139.5 58.5t57.5 138.5q0 82 -57.5 140t-139.5 58t-139 -58t-57 -140z" />
<glyph unicode="7" horiz-adv-x="1011" d="M74 1169v185q0 14 12 26.5t27 12.5h864q14 0 26.5 -12.5t12.5 -26.5v-15l-613 -1280q-29 -59 -84 -59h-202q-16 0 -28.5 11.5t-12.5 27.5v22l512 1069h-475q-14 0 -26.5 12.5t-12.5 26.5z" />
<glyph unicode="8" horiz-adv-x="1161" d="M82 371q0 63 31.5 124.5t80 107.5t81 71.5t57.5 40.5v6q-80 45 -145.5 127t-65.5 190q0 168 131 271.5t323 103.5q199 0 332 -103.5t133 -271.5q0 -180 -211 -315v-8q96 -53 173 -140.5t77 -203.5q0 -170 -138 -280.5t-366 -110.5q-219 0 -356 110.5t-137 280.5zM414 385 q0 -66 51 -110t117 -44q63 0 114.5 45.5t51.5 108.5q0 59 -44.5 110.5t-123.5 77.5q-78 -27 -122 -79t-44 -109zM436 1026q1 -115 144 -170q145 53 145 170q0 53 -44 93t-101.5 40t-100.5 -40t-43 -93z" />
<glyph unicode="9" horiz-adv-x="1099" d="M61 956q0 193 138.5 331t330.5 138q231 0 362.5 -155.5t131.5 -401.5q0 -170 -54.5 -318.5t-132 -243.5t-179 -171t-178.5 -111.5t-144 -56.5q-47 -12 -64 33l-59 158q-14 43 39 59q367 117 412 336q-96 -41 -195 -41q-160 0 -284 115.5t-124 328.5zM338 946 q0 -82 57.5 -140t139 -58t139 58t57.5 140q0 80 -57.5 138.5t-139 58.5t-139 -58.5t-57.5 -138.5z" />
<glyph unicode=":" horiz-adv-x="532" d="M104 141.5q0 67.5 47.5 115.5t115 48t115.5 -48t48 -115.5t-48 -114.5t-115.5 -47t-115 47t-47.5 114.5zM104 675.5q0 67.5 47.5 116t115 48.5t115.5 -48.5t48 -116t-48 -114.5t-115.5 -47t-115 47t-47.5 114.5z" />
<glyph unicode=";" horiz-adv-x="485" d="M57 675.5q0 67.5 47.5 116t115 48.5t115.5 -48.5t48 -116t-48 -114.5t-115.5 -47t-115 47t-47.5 114.5zM68 124.5q0 61.5 46 104.5t115 43q72 0 129.5 -58t57.5 -179q0 -209 -191 -367q-25 -18 -45 4l-30 31q-23 25 2 45q143 104 145 246q-35 -14 -82 -14 q-61 0 -104 41.5t-43 103z" />
<glyph unicode="&#x3c;" horiz-adv-x="890" d="M35 465v10q0 23 20 35l717 434q20 12 38.5 2t18.5 -35v-178q0 -20 -16 -28l-391 -232l391 -223q16 -8 16 -29v-178q0 -25 -18 -35t-39 2l-717 420q-20 12 -20 35z" />
<glyph unicode="=" horiz-adv-x="989" d="M109 285v145q0 16 11 27.5t27 11.5h695q16 0 27.5 -11.5t11.5 -27.5v-145q0 -16 -11.5 -27.5t-27.5 -11.5h-695q-16 0 -27 11t-11 28zM109 717v143q0 16 11 27.5t27 11.5h695q16 0 27.5 -11t11.5 -28v-143q0 -16 -11.5 -27.5t-27.5 -11.5h-695q-16 0 -27 11t-11 28z" />
<glyph unicode="&#x3e;" horiz-adv-x="890" d="M61 43v178q0 20 17 29l391 223l-391 232q-16 8 -17 28v178q0 25 18.5 35t39.5 -2l717 -434q20 -12 20 -35v-10q0 -23 -20 -35l-717 -420q-20 -12 -39 -2t-19 35z" />
<glyph unicode="?" horiz-adv-x="927" d="M47 1221q-29 25 0 53q6 8 18.5 19.5t52.5 43t85 55t115.5 43t144.5 19.5q168 0 293 -103.5t125 -254.5q0 -74 -32 -133.5t-77 -97.5t-90 -73.5t-77 -85t-32 -110.5q0 -16 -11 -27.5t-27 -11.5h-220q-16 0 -27.5 11.5t-11.5 27.5v86q0 57 44.5 112.5t97.5 92.5t97 84 t44 90q0 49 -44 85t-109 36q-59 0 -108.5 -32t-77 -51.5t-48.5 -0.5zM231 172q0 80 57.5 138.5t135.5 58.5q80 0 138.5 -58.5t58.5 -138.5q0 -78 -58.5 -135t-138.5 -57q-78 0 -135.5 57t-57.5 135z" />
<glyph unicode="@" horiz-adv-x="2027" d="M53 457q0 436 277.5 716.5t713.5 280.5q424 0 667 -241.5t243 -622.5q0 -106 -26.5 -210t-82 -196t-153 -148t-224.5 -56q-178 0 -245 159h-17q-37 -70 -107.5 -114.5t-164.5 -44.5q-170 0 -273.5 126.5t-103.5 301.5q0 176 110.5 304t274.5 128q135 0 252 -127 q4 10 13.5 33.5t14.5 36t16 24.5t26 12h84q16 0 27 -11t11 -28v-344q0 -119 32 -159.5t83 -40.5q84 0 128 104t44 233q0 279 -165 451t-474 172q-326 0 -518 -199.5t-192 -539.5q0 -227 130 -411.5t341 -270.5q35 -16 24 -47l-61 -168q-14 -37 -47 -25q-285 94 -471.5 351.5 t-186.5 570.5zM811 416q0 -82 43 -128t107 -46q61 0 103 51t42 125q0 78 -42 127t-110 49q-63 0 -103 -51t-40 -127z" />
<glyph unicode="A" horiz-adv-x="1355" d="M-13 35q0 8 5 18l641 1379q10 22 33 22h2h20q25 0 35 -22l641 -1379q5 -10 5 -18q0 -11 -6 -19q-11 -16 -34 -16h-227q-47 0 -72 51l-74 162h-557l-73 -164q-20 -49 -74 -49h-225q-23 0 -34 16q-6 9 -6 19zM522 492h312l-156 337h-2z" />
<glyph unicode="B" horiz-adv-x="1253" d="M176 39v1356q0 16 11.5 27.5t27.5 11.5h477q182 0 311.5 -111t129.5 -270q0 -106 -73 -190.5t-165 -133.5q274 -115 274 -334q0 -170 -130 -282.5t-316 -112.5h-508q-16 0 -27.5 11.5t-11.5 27.5zM496 293h186q59 0 103 44t44 105q0 59 -52 101.5t-115 42.5h-166v-293z M496 852h159q59 0 101.5 43t42.5 104q0 59 -42 99.5t-102 40.5h-159v-287z" />
<glyph unicode="C" horiz-adv-x="1378" d="M72 715q0 307 216 523t523 216q287 0 496 -190q16 -15 16 -30q0 -14 -14 -28l-160 -166q-27 -25 -51 0q-117 104 -277 105q-172 0 -286.5 -124t-114.5 -298q0 -172 115.5 -294t287.5 -122q160 0 275 99q29 25 53 -3l160 -170q13 -13 13 -26q0 -14 -15 -29 q-204 -198 -495 -198h-3q-307 0 -523 214t-216 521z" />
<glyph unicode="D" horiz-adv-x="1505" d="M176 39v1356q0 16 11.5 27.5t25.5 11.5h500q297 0 508 -210t211 -505q0 -297 -211 -508t-508 -211h-500q-14 0 -25.5 11.5t-11.5 27.5zM496 303h196q172 0 286 120t114 296q0 174 -114 294t-286 120h-196v-830z" />
<glyph unicode="E" horiz-adv-x="1200" d="M176 39v1356q0 16 11.5 27.5t27.5 11.5h848q16 0 27.5 -11.5t11.5 -27.5v-224q0 -16 -11.5 -27t-27.5 -11h-567v-254h467q16 0 27 -11.5t11 -27.5v-224q0 -16 -11 -27t-27 -11h-467v-277h567q16 0 27.5 -11t11.5 -28v-223q0 -16 -11.5 -27.5t-27.5 -11.5h-848 q-16 0 -27.5 11.5t-11.5 27.5z" />
<glyph unicode="F" horiz-adv-x="1153" d="M176 39v1356q0 16 11.5 27.5t27.5 11.5h848q16 0 27.5 -11.5t11.5 -27.5v-224q0 -16 -11.5 -27t-27.5 -11h-567v-295h467q16 0 27 -11.5t11 -27.5v-224q0 -14 -11 -26t-27 -12h-467v-498q0 -14 -12.5 -26.5t-26.5 -12.5h-242q-16 0 -27.5 11.5t-11.5 27.5z" />
<glyph unicode="G" horiz-adv-x="1437" d="M74 715q0 307 215 522t520 215q129 0 262 -51t238 -141q18 -14 18 -29q0 -13 -14 -27l-162 -172q-27 -23 -55 -2q-106 98 -269 98q-166 0 -284.5 -121.5t-118.5 -291.5q0 -168 119 -288t286 -120q100 0 183 33v119h-129q-16 0 -27.5 10t-11.5 27v202q0 39 39 39h411 q14 0 25.5 -11t11.5 -28l2 -551q0 -20 -16 -32q-25 -14 -68 -37t-176 -59.5t-264 -36.5q-307 0 -521 213t-214 520z" />
<glyph unicode="H" horiz-adv-x="1581" d="M176 39v1356q0 14 12.5 26.5t26.5 12.5h244q16 0 27.5 -11.5t11.5 -27.5v-516h585v516q0 16 11.5 27.5t27.5 11.5h244q14 0 26.5 -12.5t12.5 -26.5v-1356q0 -14 -12.5 -26.5t-26.5 -12.5h-244q-16 0 -27.5 11.5t-11.5 27.5v539h-585v-539q0 -16 -11.5 -27.5t-27.5 -11.5 h-244q-14 0 -26.5 12.5t-12.5 26.5z" />
<glyph unicode="I" horiz-adv-x="675" d="M176 39v1356q0 14 12.5 26.5t26.5 12.5h246q14 0 26.5 -12.5t12.5 -26.5v-1356q0 -14 -12.5 -26.5t-26.5 -12.5h-246q-14 0 -26.5 12.5t-12.5 26.5z" />
<glyph unicode="J" horiz-adv-x="868" d="M-36 152q0 15 11 28l140 137q29 27 55 0q43 -43 104 -43q47 0 84 42t37 114v965q0 16 11.5 27.5t27.5 11.5h250q16 0 27.5 -11.5t11.5 -27.5v-967q0 -207 -127 -327.5t-313 -120.5h-3q-189 0 -309 149q-7 12 -7 23z" />
<glyph unicode="K" horiz-adv-x="1378" d="M176 49v1335q0 20 14.5 35t34.5 15h240q20 0 34.5 -14.5t14.5 -35.5v-538l455 567q16 20 39 21h258q29 0 41 -27t-4 -49l-480 -600l523 -680q9 -12 9 -26q-1 -12 -7 -24q-14 -26 -41 -26h-283q-27 0 -37 14l-473 643v-610q0 -20 -14.5 -34.5t-34.5 -14.5h-240 q-20 0 -34.5 14.5t-14.5 34.5z" />
<glyph unicode="L" horiz-adv-x="1046" d="M176 39v1356q0 16 11.5 27.5t27.5 11.5h244q16 0 27.5 -12.5t11.5 -26.5v-1094h487q16 0 27.5 -11t11.5 -28v-223q0 -16 -11.5 -27.5t-27.5 -11.5h-770q-16 0 -27.5 11.5t-11.5 27.5z" />
<glyph unicode="M" horiz-adv-x="1798" d="M86 39v6l231 1376q4 33 37 33h33q25 0 35 -20l475 -885h4l475 885q10 20 35 20h33q33 0 37 -33l231 -1376v-6q0 -17 -9 -27q-11 -12 -30 -12h-241q-14 0 -25.5 10t-13.5 23l-93 633h-4l-344 -664q-10 -22 -32 -22h-2h-37q-25 0 -35 22l-346 664h-4l-90 -633 q-4 -33 -39 -33h-242q-17 0 -29 12q-10 11 -10 27z" />
<glyph unicode="N" horiz-adv-x="1583" d="M174 1417q0 14 11.5 25.5t27.5 11.5h51l817 -786h2v727q0 16 11.5 27.5t27.5 11.5h246q16 0 27.5 -12.5t11.5 -26.5v-1379q0 -14 -11.5 -25t-27.5 -11h-33q-16 0 -26 10l-809 813h-2v-764q0 -16 -11.5 -27.5t-27.5 -11.5h-244q-14 0 -26.5 12.5t-12.5 26.5z" />
<glyph unicode="O" horiz-adv-x="1615" d="M72 715q0 307 214 523t521 216t522 -216t215 -523t-215 -521t-522 -214t-521 214t-214 521zM399 715q0 -168 120 -288t288 -120t289 120t121 288q0 170 -121 290.5t-289 120.5t-288 -120.5t-120 -290.5z" />
<glyph unicode="P" horiz-adv-x="1206" d="M176 39v1356q0 16 11.5 27.5t27.5 11.5h494q188 0 323 -133.5t135 -319.5q0 -190 -134 -325.5t-322 -135.5h-215v-481q0 -14 -12.5 -26.5t-26.5 -12.5h-242q-16 0 -27.5 11.5t-11.5 27.5zM496 819h194q68 0 115 47t47 115q0 63 -47 107.5t-115 44.5h-194v-314z" />
<glyph unicode="Q" horiz-adv-x="1622" d="M72 715q0 307 214 523t521 216t522 -216t215 -523q0 -197 -103.5 -369t-275.5 -276l265 -414q12 -20 1.5 -41t-34.5 -21h-277q-20 0 -33 21l-217 367q-25 -2 -63 -2q-307 0 -521 214t-214 521zM399 715q0 -168 120 -288t288 -120t289 120t121 288q0 170 -121 290.5 t-289 120.5t-288 -120.5t-120 -290.5z" />
<glyph unicode="R" horiz-adv-x="1372" d="M176 39v1356q0 16 11.5 27.5t27.5 11.5h612q184 0 315.5 -130t131.5 -313q0 -137 -83 -246.5t-220 -164.5l280 -521q12 -20 1 -39.5t-35 -19.5h-273q-23 0 -33 18l-272 543h-141v-522q0 -14 -11.5 -26.5t-27.5 -12.5h-244q-16 0 -27.5 11.5t-11.5 27.5zM498 821h303 q63 0 109 49.5t46 114.5q0 63 -46 109.5t-109 46.5h-303v-320z" />
<glyph unicode="S" horiz-adv-x="1122" d="M84 1047q0 166 125 286.5t348 120.5q229 0 438 -154q16 -10 18.5 -32.5t-5.5 -32.5l-105 -158q-12 -18 -33.5 -27.5t-35.5 1.5q-2 0 -25 16t-51.5 31.5t-64.5 34t-77 30t-75 11.5q-55 0 -92 -31t-37 -74q0 -57 51 -103t172 -96q414 -164 414 -467q0 -168 -134.5 -295.5 t-349.5 -127.5q-174 0 -290 51t-171 106q-16 16 -18 25.5t8 32.5l96 170q10 18 35 20t35 -8l14 -8q14 -10 34 -22.5t49.5 -27t59 -26.5t65.5 -20.5t69 -8.5q61 0 101 35t40 88q0 123 -211 207q-397 158 -397 453z" />
<glyph unicode="T" d="M29 1171v224q0 16 11 27.5t28 11.5h909q16 0 27.5 -11.5t11.5 -27.5v-224q0 -16 -11.5 -27t-27.5 -11h-293v-1094q0 -14 -12.5 -26.5t-26.5 -12.5h-246q-14 0 -26.5 12.5t-12.5 26.5v1094h-292q-16 0 -27.5 11t-11.5 27z" />
<glyph unicode="U" horiz-adv-x="1476" d="M156 549v846q0 14 12 26.5t27 12.5h251q16 0 27.5 -11.5t11.5 -27.5v-830q0 -109 72 -183.5t180 -74.5q111 0 183.5 75t72.5 183v830q0 16 11.5 27.5t27.5 11.5h252q14 0 26.5 -12.5t12.5 -26.5v-846q0 -233 -172 -401t-414 -168q-240 0 -410.5 168t-170.5 401z" />
<glyph unicode="V" horiz-adv-x="1355" d="M-13 1398q0 10 6 19q11 17 34 17h272q27 0 35 -23l338 -747h12l338 747q8 23 35 23h272q23 0 34 -16q6 -9 6 -19q0 -9 -5 -19l-643 -1378q-12 -22 -33 -22h-2h-20h-2q-22 0 -33 22l-639 1378q-5 10 -5 18z" />
<glyph unicode="W" horiz-adv-x="1835" d="M47 1398q0 11 6 21q10 15 33 15h240q29 0 36 -29l177 -694h8l317 721q12 22 33 22h2h37q27 0 35 -22l317 -721h8l177 694q8 29 36 29h240q23 0 33 -14q6 -9 6 -21q0 -7 -2 -15l-387 -1376q-6 -28 -35 -28h-2h-33q-23 0 -35 22l-374 838h-7l-372 -838q-12 -22 -33 -22h-2 h-33h-2q-29 0 -35 28l-387 1376q-2 8 -2 14z" />
<glyph unicode="X" horiz-adv-x="1341" d="M41 35q0 11 8 22l430 678l-413 641q-12 20 -2 39t36 19h299q18 0 33 -19l236 -381h2l239 381q8 18 33 19h299q27 0 38 -18.5t-3 -39.5l-416 -641l430 -678q8 -11 8 -22q0 -9 -5 -17q-11 -18 -36 -18h-284q-25 0 -35 18l-268 414h-4l-263 -414q-14 -18 -34 -18h-285 q-27 0 -38 18q-5 8 -5 17z" />
<glyph unicode="Y" horiz-adv-x="1208" d="M-19 1396q0 9 5 18q10 20 34 20h267q18 0 32 -19l285 -420l285 420q14 18 33 19h266q25 0 35 -20q5 -8 5 -18q0 -11 -7 -22l-459 -682v-653q0 -14 -12.5 -26.5t-26.5 -12.5h-244q-16 0 -27.5 11.5t-11.5 27.5v651l-452 684q-7 11 -7 22z" />
<glyph unicode="Z" horiz-adv-x="1110" d="M47 39v37l545 1052v5h-447q-14 0 -26.5 11t-12.5 27v224q0 14 12.5 26.5t26.5 12.5h871q16 0 27.5 -12.5t11.5 -26.5v-27l-527 -1063v-4h447q16 0 27.5 -11t11.5 -28v-223q0 -16 -11.5 -27.5t-27.5 -11.5h-889q-16 0 -27.5 12.5t-11.5 26.5z" />
<glyph unicode="[" horiz-adv-x="739" d="M123 -578v1973q0 14 12 26.5t27 12.5h504q14 0 26.5 -12.5t12.5 -26.5v-164q0 -16 -11.5 -27.5t-27.5 -11.5h-260v-1567h260q16 0 27.5 -11t11.5 -26v-166q0 -16 -12.5 -27t-26.5 -11h-504q-14 0 -26.5 11t-12.5 27z" />
<glyph unicode="\" horiz-adv-x="761" d="M37 1382q-6 20 4 36t33 16h200q29 0 37 -27l402 -1356q6 -20 -5.5 -35.5t-31.5 -15.5h-203q-29 0 -37 27z" />
<glyph unicode="]" horiz-adv-x="739" d="M35 -412q0 14 11.5 25.5t27.5 11.5h260v1567h-260q-16 0 -27.5 11t-11.5 28v164q0 14 11 26.5t28 12.5h504q16 0 27 -12.5t11 -26.5v-1973q0 -16 -11 -27t-27 -11h-504q-16 0 -27.5 11t-11.5 27v166z" />
<glyph unicode="^" horiz-adv-x="1073" d="M67 792.5q-10 18.5 3 38.5l432 611q12 20 35 20h10q23 0 35 -20l422 -611q12 -20 1.5 -38.5t-34.5 -18.5h-178q-20 0 -29 17l-225 305l-230 -305q-8 -16 -28 -17h-179q-25 0 -35 18.5z" />
<glyph unicode="_" horiz-adv-x="882" d="M35 -59q0 39 39 39h735q39 0 39 -39v-105q0 -16 -11.5 -26.5t-27.5 -10.5h-735q-16 0 -27.5 10.5t-11.5 26.5v105z" />
<glyph unicode="`" horiz-adv-x="618" d="M90 1278l70 121q6 12 25.5 13t27.5 -7l348 -213q23 -18 12 -39l-43 -86q-20 -41 -55 -18l-373 168q-33 20 -12 61z" />
<glyph unicode="a" horiz-adv-x="878" d="M55 250q0 121 82 197.5t219 76.5q41 0 80 -8t60 -16l18 -8q0 66 -20.5 93t-90.5 27q-104 0 -204 -30q-8 -3 -15 -3q-28 0 -34 46l-19 129q-1 7 -1 14q0 31 32 41q20 6 110 18.5t162 12.5q188 0 267 -82t79 -266v-453q0 -14 -11 -26.5t-28 -12.5h-90q-25 0 -37 27l-28 55 q-113 -102 -248 -102q-123 0 -203 74.5t-80 195.5zM322 270q0 -37 25.5 -63.5t62 -26.5t63.5 26.5t27 63.5q-2 35 -28 60.5t-62.5 25.5t-62 -25.5t-25.5 -60.5z" />
<glyph unicode="b" d="M111 39v1356q0 14 12 26.5t27 12.5h227q16 0 27.5 -12.5t11.5 -26.5v-594q68 39 170 39q174 0 290.5 -112t116.5 -318q0 -178 -116.5 -304t-288.5 -126q-80 0 -148.5 31.5t-97.5 64.5l-29 33l-24 -68q-14 -41 -43 -41h-96q-14 0 -26.5 12.5t-12.5 26.5zM383 412 q0 -72 47 -120t116.5 -48t118 48t48.5 120q0 70 -48.5 116.5t-118 46.5t-116.5 -46.5t-47 -116.5z" />
<glyph unicode="c" horiz-adv-x="860" d="M47 410q0 178 132 304t310 126q186 0 308 -148q9 -12 9 -23q0 -17 -20 -34l-122 -117q-8 -8 -22.5 -6t-23.5 10q-49 53 -118 53q-68 0 -116 -49t-48 -116q0 -70 46 -118t114 -48q76 0 139 63q25 25 45 8l123 -106q21 -20 21 -37q0 -10 -7 -20q-113 -172 -330 -172 q-178 0 -309 124t-131 306z" />
<glyph unicode="d" d="M51 410q0 207 117 318.5t291 111.5q102 0 170 -39v594q0 14 11 26.5t28 12.5h227q14 0 26.5 -12.5t12.5 -26.5v-1356q0 -14 -12.5 -26.5t-26.5 -12.5h-96q-29 0 -43 41l-25 68q-10 -14 -30.5 -36t-92 -57.5t-151.5 -35.5q-172 0 -289 126t-117 304zM332 412 q0 -72 48 -120t117.5 -48t117 48t47.5 120q0 70 -47.5 116.5t-117 46.5t-117.5 -46.5t-48 -116.5z" />
<glyph unicode="e" horiz-adv-x="899" d="M49 410q0 176 123 303t301 127q160 0 274.5 -109.5t114.5 -275.5q0 -27 -4 -56q-4 -35 -39 -34h-491q6 -51 46 -93.5t111 -42.5q78 0 144 50q31 25 51 0l102 -123q12 -16 12 -30q0 -16 -14 -30q-116 -116 -300 -116h-3q-180 0 -304 126t-124 304zM354 524h219 q-2 39 -34.5 68t-73.5 29t-73 -28t-38 -69z" />
<glyph unicode="f" horiz-adv-x="729" d="M72 598v182q0 39 39 39h43v189q0 209 115.5 327.5t299.5 118.5q74 0 148 -24.5t102 -53.5q15 -12 15 -26q0 -10 -7 -21l-86 -170q-4 -10 -19 -15t-28 1q-61 33 -106 33q-121 0 -121 -170v-189h188q39 0 39 -39v-182q0 -16 -11 -27.5t-28 -11.5h-188v-520 q0 -14 -12.5 -26.5t-26.5 -12.5h-235q-16 0 -27.5 12.5t-11.5 26.5v520h-43q-16 0 -27.5 11.5t-11.5 27.5z" />
<glyph unicode="g" horiz-adv-x="952" d="M23 74q0 72 40.5 128t81.5 77l41 20q-59 61 -59 186q0 143 106.5 249t253.5 106h387q39 0 39 -39v-84q0 -25 -22 -35l-119 -43q8 -6 21.5 -20.5t35 -66.5t21.5 -112q0 -119 -99.5 -214t-254.5 -95h-148q-67 0 -67 -53q0 -29 19 -43.5t46 -14.5h246q147 0 249.5 -82.5 t102.5 -216.5q0 -158 -114.5 -257t-346.5 -99q-219 0 -323.5 83t-104.5 196q0 129 125 196v6q-16 4 -36.5 17.5t-51.5 38t-50 71t-19 101.5zM336 -299q0 -96 147.5 -96t147.5 96q0 86 -148 86q-61 0 -104 -22.5t-43 -63.5zM387 467q0 -45 31 -76t78 -31t77.5 30t30.5 77 t-30.5 76.5t-77.5 29.5t-78 -30.5t-31 -75.5z" />
<glyph unicode="h" horiz-adv-x="1085" d="M111 39v1356q0 14 12 26.5t27 12.5h227q16 0 27.5 -12.5t11.5 -26.5v-602q94 47 190 47q184 0 287.5 -125t103.5 -305v-371q0 -14 -11 -26.5t-28 -12.5h-217q-16 0 -27.5 11.5t-11.5 27.5v375q0 70 -42 115.5t-107 45.5q-57 0 -97 -37.5t-40 -123.5v-375q0 -39 -45 -39 h-221q-14 0 -26.5 12.5t-12.5 26.5z" />
<glyph unicode="i" horiz-adv-x="524" d="M98 1228.5q0 67.5 47.5 116t115 48.5t115.5 -48.5t48 -116t-48 -114.5t-115.5 -47t-115 47t-47.5 114.5zM111 39v741q0 16 11 27.5t28 11.5h225q16 0 27.5 -11t11.5 -28v-741q0 -14 -12.5 -26.5t-26.5 -12.5h-225q-14 0 -26.5 12.5t-12.5 26.5z" />
<glyph unicode="j" horiz-adv-x="526" d="M-265 -531q0 10 7 21l86 170q4 10 19.5 15.5t27.5 -1.5q59 -32 104 -32h3q129 0 129 170v968q0 16 11 27.5t28 11.5h227q16 0 27.5 -11t11.5 -28v-968q0 -209 -116 -328t-300 -119q-74 0 -147.5 24.5t-102.5 53.5q-15 12 -15 26zM100 1228.5q0 67.5 47.5 116t115 48.5 t115.5 -48.5t48 -116t-48 -114.5t-115.5 -47t-115 47t-47.5 114.5z" />
<glyph unicode="k" horiz-adv-x="1046" d="M111 39v1356q0 14 12 26.5t27 12.5h227q16 0 27.5 -12.5t11.5 -26.5v-887l248 287q25 25 51 24h229q27 0 37 -20.5t-6 -42.5l-270 -314l327 -381q10 -12 10 -25q0 -8 -4 -16q-10 -20 -37 -20h-276q-18 0 -31 16l-278 357v-334q0 -14 -11.5 -26.5t-27.5 -12.5h-227 q-14 0 -26.5 12.5t-12.5 26.5z" />
<glyph unicode="l" horiz-adv-x="524" d="M111 39v1356q0 14 12 26.5t27 12.5h225q14 0 26.5 -12.5t12.5 -26.5v-1356q0 -14 -12.5 -26.5t-26.5 -12.5h-225q-14 0 -26.5 12.5t-12.5 26.5z" />
<glyph unicode="m" horiz-adv-x="1609" d="M111 39v741q0 39 39 39h94q23 0 35 -22l34 -84q123 127 277 127q156 0 268 -125q125 125 283 125q182 0 280.5 -122t98.5 -308v-371q0 -16 -11.5 -27.5t-27.5 -11.5h-217q-16 0 -27.5 11.5t-11.5 27.5v383q0 66 -35 109.5t-103 43.5q-55 0 -96 -39.5t-41 -99.5v-397 q0 -16 -11 -27.5t-28 -11.5h-196q-16 0 -27.5 11.5t-11.5 27.5v383q0 68 -32 110.5t-97 42.5q-61 0 -102.5 -39.5t-41.5 -103.5v-393q0 -14 -11 -26.5t-27 -12.5h-215q-16 0 -27.5 11.5t-11.5 27.5z" />
<glyph unicode="n" horiz-adv-x="1081" d="M111 39v741q0 16 11 27.5t28 11.5h96q27 0 37 -24l32 -82q117 127 289 127q182 0 285.5 -122t103.5 -306v-373q0 -14 -11 -26.5t-28 -12.5h-219q-16 0 -27.5 11.5t-11.5 27.5v383q0 66 -36.5 109.5t-102.5 43.5q-63 0 -109.5 -40.5t-46.5 -102.5v-393q0 -39 -36 -39h-215 q-14 0 -26.5 12.5t-12.5 26.5z" />
<glyph unicode="o" horiz-adv-x="946" d="M47 412q0 174 126 301t300 127t300 -127t126 -301q0 -176 -126 -304t-300 -128t-300 128t-126 304zM311 412q0 -70 47.5 -119t115 -49t114.5 49t47 119q0 68 -47 115.5t-114.5 47.5t-115 -47.5t-47.5 -115.5z" />
<glyph unicode="p" d="M111 -575v1355q0 14 12 26.5t27 12.5h96q29 0 43 -41l24 -67q10 14 31 35.5t92.5 57.5t151.5 36q172 0 288.5 -126t116.5 -304q0 -207 -116.5 -318.5t-290.5 -111.5h-5q-99 0 -165 38v-593q0 -14 -11.5 -26.5t-27.5 -12.5h-227q-14 0 -26.5 12t-12.5 27zM383 408 q0 -70 47 -117t116.5 -47t118 47t48.5 117q0 72 -48.5 119.5t-118 47.5t-116.5 -47.5t-47 -119.5z" />
<glyph unicode="q" d="M51 410q0 178 117 304t289 126q80 0 148.5 -33t96.5 -66l29 -30l25 67q14 41 43 41h96q14 0 26.5 -12t12.5 -27v-1355q0 -14 -12.5 -26.5t-26.5 -12.5h-227q-16 0 -27.5 12t-11.5 27v593q-66 -38 -165 -38h-5q-174 0 -291 111.5t-117 318.5zM332 408q0 -70 48 -117 t117.5 -47t117 47t47.5 117q0 72 -47.5 119.5t-117 47.5t-117.5 -47.5t-48 -119.5z" />
<glyph unicode="r" horiz-adv-x="706" d="M111 39v741q0 16 11 27.5t28 11.5h96q25 0 37 -24l36 -90q94 135 224 135q55 0 98 -12q43 -14 61 -34q11 -12 11 -23q0 -9 -6 -19l-101 -164q-16 -29 -45 -19q-25 10 -49 11q-47 0 -78 -33t-31 -84v-424q0 -39 -45 -39h-208q-14 0 -26.5 12.5t-12.5 26.5z" />
<glyph unicode="s" horiz-adv-x="759" d="M59 592q0 109 81 178.5t239 69.5q172 0 272 -64q37 -25 21 -51l-76 -139q-12 -25 -43 -13q-94 47 -174 48q-45 0 -45 -29q0 -33 92 -66q141 -49 211 -110.5t70 -175.5q0 -113 -90.5 -186.5t-256.5 -73.5h-6q-190 0 -272 67q-27 23 -14 43l71 141q4 10 17.5 16.5t25.5 0.5 q96 -53 185 -53q39 0 39 36q0 45 -117 86q-229 80 -230 275z" />
<glyph unicode="t" horiz-adv-x="704" d="M53 598v182q0 16 10.5 27.5t26.5 11.5h53v228q0 14 12.5 26t26.5 12h219q14 0 25.5 -11t11.5 -27v-228h152q39 0 39 -39v-182q0 -16 -11.5 -27.5t-27.5 -11.5h-152v-256q0 -49 56 -49q8 0 79 14q37 6 45 -26l46 -170q1 -7 1 -13q0 -26 -28 -34q-145 -45 -248 -45 q-117 0 -181.5 72.5t-64.5 211.5v295h-53q-14 0 -25.5 11.5t-11.5 27.5z" />
<glyph unicode="u" d="M92 410v370q0 16 11.5 27.5t27.5 11.5h219q16 0 27.5 -11t11.5 -28v-379q0 -66 35 -111.5t96 -45.5q57 0 90 44t33 101v391q0 39 43 39h209q16 0 27.5 -11t11.5 -28v-741q0 -14 -12.5 -26.5t-26.5 -12.5h-96q-27 0 -39 29l-31 75q-43 -43 -63.5 -59t-81 -40.5 t-131.5 -24.5q-174 0 -267.5 122t-93.5 308z" />
<glyph unicode="v" horiz-adv-x="872" d="M3 782q0 10 6 20q10 17 32 17h2h229q27 0 37 -22l121 -279h6l129 279q8 16 18.5 19t37.5 3h206h2q21 0 32 -17q6 -9 6 -20q0 -9 -5 -18l-389 -764q-12 -20 -35 -20h-10q-23 0 -35 20l-385 764q-5 10 -5 18z" />
<glyph unicode="w" horiz-adv-x="1267" d="M17 784q1 12 7 20q12 16 33 15h195q31 0 37 -24l106 -281h2l195 309q10 16 33 17h20q23 0 31 -17l196 -309h2l105 281q10 25 41 24h190q23 1 34 -15q6 -9 6 -20q0 -8 -3 -16l-272 -764q-6 -24 -35 -24h-2h-8q-25 0 -33 16l-264 410h-2l-260 -410q-12 -16 -33 -16h-10h-2 q-29 0 -33 24l-273 764q-3 8 -3 16z" />
<glyph unicode="x" horiz-adv-x="960" d="M30 36q0 12 9 25l266 357l-258 340q-16 20 -6 40.5t37 20.5h252q25 0 32 -16l115 -168h6l117 168q8 16 33 16h252q27 -1 37 -21q4 -8 4 -15q0 -13 -11 -25l-258 -338l261 -359q8 -11 8 -23q0 -10 -4 -18q-10 -20 -35 -20h-248q-16 0 -31 18l-125 177h-6 q-20 -29 -66 -91.5t-65 -87.5q-12 -16 -33 -16h-243q-27 0 -36 20q-4 8 -4 16z" />
<glyph unicode="y" horiz-adv-x="952" d="M7 784q0 10 7 18q11 17 33 17h234q23 0 34 -22l158 -381h4l162 381q8 22 33 22h2h231q23 0 34 -17q6 -8 6 -18q0 -8 -5 -18l-627 -1356q-12 -24 -32 -24h-2h-230q-23 0 -34 17q-6 9 -6 19q0 9 5 19l305 643l-307 682q-5 9 -5 18z" />
<glyph unicode="z" horiz-adv-x="755" d="M57 39v20l240 492v4h-182q-14 0 -25.5 11.5t-11.5 27.5v186q0 16 10 27.5t27 11.5h555h2q21 0 32 -17q6 -9 6 -20q0 -9 -5 -18l-259 -498v-4h183q39 0 39 -39v-184q0 -16 -11.5 -27.5t-27.5 -11.5h-533q-14 0 -26.5 12.5t-12.5 26.5z" />
<glyph unicode="{" horiz-adv-x="804" d="M35 342v119q0 29 26 37q16 6 41 15t65 44t40 72v227q0 141 33.5 248.5t85 170t123 102.5t135 55.5t135.5 19.5q37 4 41 -35q2 -33 5 -88t5 -86q0 -31 -29 -39q-225 -57 -225 -348v-186q0 -45 -18.5 -89t-43 -74t-50 -53.5t-44.5 -35.5l-18 -10v-9q35 -14 69.5 -39.5 t69.5 -82t35 -123.5v-193q0 -291 225 -348q29 -8 29 -39q-4 -123 -10 -174q-2 -16 -14.5 -26.5t-26.5 -8.5q-72 4 -135.5 19.5t-135 55.5t-123 102.5t-85 170t-33.5 248.5v213q0 102 -141 131q-12 2 -21.5 13.5t-9.5 23.5z" />
<glyph unicode="|" horiz-adv-x="356" d="M123 -578v2096q0 16 11 27t28 11h35q16 0 26 -11t10 -27v-2096q0 -14 -11 -25t-27 -11h-33q-16 0 -27.5 11t-11.5 25z" />
<glyph unicode="}" horiz-adv-x="804" d="M35 -426q0 31 28 39q226 57 226 348v193q0 96 56 157.5t118 87.5v9q-6 4 -18.5 12t-42 33.5t-53 54.5t-42 73t-18.5 89v186q0 291 -226 348q-29 8 -28 39q2 31 5 86t5 88q4 39 41 35q72 -4 135.5 -19.5t135 -55.5t122.5 -102.5t85 -170t34 -248.5v-227q0 -37 37 -70 t74 -47l34 -14q27 -8 27 -37v-119q0 -12 -9 -23.5t-22 -13.5q-141 -29 -141 -131v-213q0 -141 -34 -248.5t-85 -170t-122.5 -102.5t-135 -55.5t-135.5 -19.5q-14 -2 -26.5 8.5t-14.5 26.5q-6 51 -10 174z" />
<glyph unicode="~" horiz-adv-x="1077" d="M43 530q6 8 16.5 22.5t45 50.5t70.5 63.5t88 50t104 22.5q39 0 78.5 -14t58 -25.5t63.5 -40.5q4 -2 22.5 -14t23.5 -15t22.5 -12.5t27 -12.5t24.5 -6t30 -3q61 0 131 100q27 35 59 2l119 -125q25 -29 4 -51q-6 -8 -16 -22.5t-44 -50t-69 -62.5t-86 -49.5t-100 -22.5 q-47 0 -93.5 16.5t-65.5 28t-71 46.5q-78 49 -123 49q-68 0 -131 -99q-30 -37 -59 -4l-125 129q-23 27 -4 49z" />
<glyph unicode="&#xa1;" horiz-adv-x="577" d="M94 647q0 78 58.5 135.5t138.5 57.5q78 0 135 -57.5t57 -135.5q0 -80 -57 -138t-135 -58q-80 0 -138.5 58t-58.5 138zM106 -346l101 575q2 12 13 22.5t26 10.5h86q14 0 25.5 -10t13.5 -23l100 -571v-233q0 -14 -12.5 -26.5t-26.5 -12.5h-287q-14 0 -26.5 12t-12.5 27v229 z" />
<glyph unicode="&#xa2;" horiz-adv-x="845" d="M35 410q0 178 132 304t310 126q20 0 62 -4l22 84q10 37 47 26l35 -10q37 -8 27 -47l-23 -86q70 -35 137 -111q25 -33 -10 -57l-123 -117q-8 -8 -22.5 -6t-22.5 10t-28 25l-82 -301q68 2 127 61q25 25 45 8l123 -106q33 -31 14 -57q-113 -172 -330 -172q-18 0 -51 4 l-53 -201q-2 -14 -16.5 -22.5t-30.5 -4.5l-33 11q-37 8 -29 45l53 196q-125 47 -202.5 155.5t-77.5 246.5zM324 410q0 -85 63 -134l80 297q-59 -8 -101 -54t-42 -109z" />
<glyph unicode="&#xa3;" horiz-adv-x="980" d="M72 631v35q0 16 11 27.5t26 11.5h63q-59 229 -59 307q0 209 117.5 325.5t320.5 116.5q188 0 354 -145q31 -23 4 -54l-129 -155q-20 -27 -53 -6q-94 80 -170 80q-57 0 -95 -38t-38 -106q0 -41 36 -151.5t48 -173.5h188q16 0 27.5 -11.5t11.5 -27.5v-37q0 -16 -11 -26.5 t-28 -10.5h-170q14 -170 -18 -318h346q16 0 26.5 -11t10.5 -27v-197q0 -16 -11.5 -27.5t-25.5 -11.5h-692q-14 0 -26.5 12.5t-12.5 26.5v37q125 238 74 516h-88q-14 0 -25.5 11t-11.5 28z" />
<glyph unicode="&#xa4;" horiz-adv-x="915" d="M84 895.5q0 17.5 10 28.5l103 100q27 27 53 0l104 -104q98 43 207 4l105 104q10 10 27.5 10t27.5 -12l100 -100q27 -29 2 -54l-104 -104q41 -104 -2 -211l104 -104q10 -10 9 -26.5t-11 -27.5l-100 -100q-10 -10 -26.5 -11t-26.5 9l-109 109q-102 -37 -199 2l-106 -107 q-26 -27 -55 0l-101 102q-27 27 0 56l107 106q-37 94 -2 195l-107 108q-10 10 -10 27.5zM377 664.5q0 -35.5 24.5 -60t59.5 -24.5t61 26q23 23 23 58.5t-23 60.5q-27 25 -61.5 25t-59 -25t-24.5 -60.5z" />
<glyph unicode="&#xa5;" horiz-adv-x="1314" d="M39 1414q10 20 35 20h266q18 0 33 -19l284 -420l285 420q14 18 33 19h266q25 0 35 -19.5t-2 -40.5l-459 -682v-92h203q16 0 27.5 -11t11.5 -28v-37q0 -16 -11.5 -26.5t-27.5 -10.5h-203v-133h203q16 0 27.5 -11t11.5 -28v-36q0 -16 -11.5 -26.5t-27.5 -10.5h-203v-203 q0 -14 -12 -26.5t-27 -12.5h-244q-16 0 -27 11.5t-11 27.5v203h-207q-14 0 -25.5 11t-11.5 28v34q0 16 11 27.5t26 11.5h207v133h-207q-14 0 -25.5 11.5t-11.5 27.5v35q0 16 11 27.5t26 11.5h207v90l-453 684q-12 20 -2 40z" />
<glyph unicode="&#xa6;" horiz-adv-x="602" d="M246 100q0 16 11 27.5t28 11.5h34q16 0 26.5 -11t10.5 -28v-678q0 -14 -11 -25t-28 -11h-32q-16 0 -27.5 11t-11.5 25v678zM246 840v678q0 16 11 27t28 11h34q16 0 26.5 -11t10.5 -27v-678q0 -14 -11 -25.5t-28 -11.5h-32q-16 0 -27.5 11t-11.5 26z" />
<glyph unicode="&#xa7;" horiz-adv-x="1032" d="M61 494q0 174 140 288q-139 125 -140 287q0 158 116 271.5t327 113.5q209 0 411 -145q16 -8 18.5 -28.5t-5.5 -31.5l-109 -159q-25 -39 -67 -9q-152 106 -263 107q-53 0 -87.5 -27.5t-34.5 -66.5q0 -55 48 -99.5t160 -89.5q391 -154 392 -438q0 -162 -136 -285 q135 -127 136 -293q0 -156 -126 -276.5t-329 -120.5q-274 0 -426 143q-31 31 -8 70l74 137q29 51 77 23q2 0 26 -14.5t49.5 -26.5t59 -27.5t69.5 -25t65 -9.5q57 0 95 31t38 84q0 66 -51.5 110t-145.5 81q-373 150 -373 426zM352 520q0 -70 56.5 -111.5t179.5 -93.5 q57 47 57 146q0 70 -53 109.5t-182 95.5l-9 -9q-49 -55 -49 -137z" />
<glyph unicode="&#xa8;" horiz-adv-x="847" d="M70 1241q0 59 42 101t101 42t102 -42t43 -101t-43 -102t-102 -43t-101 43t-42 102zM489 1241q0 59 42 101t101.5 42t102.5 -42t43 -101t-43 -102t-102.5 -43t-101.5 43t-42 102z" />
<glyph unicode="&#xa9;" horiz-adv-x="1615" d="M72 717q0 305 216 521t519 216t520 -217t217 -520t-217 -520t-520 -217t-519 216t-216 521zM250 716.5q0 -231.5 164 -395t393 -163.5q231 0 394 163.5t163 395t-163 394.5t-394.5 163t-394 -163t-162.5 -394.5zM442 713q0 160 113 272.5t270 112.5q137 0 236 -78 q33 -29 4 -59l-98 -99q-25 -25 -49 -6q-37 27 -93 27q-68 0 -113.5 -48.5t-45.5 -115.5q0 -70 45 -117t114 -47q53 0 90 27q25 18 50 -7l102 -102q27 -29 -2 -57q-100 -86 -240 -86q-158 0 -270.5 112.5t-112.5 270.5z" />
<glyph unicode="&#xaa;" horiz-adv-x="647" d="M35 1024q0 82 65.5 136t178.5 54q27 0 53 -3t39 -7l12 -4q4 88 -84 88q-63 0 -152 -18q-33 -6 -36 33l-15 86q-4 35 23 43q78 23 205 22q139 0 198.5 -61.5t59.5 -198.5v-340q0 -10 -9.5 -19.5t-19.5 -9.5h-68q-18 0 -28 21l-21 43q-82 -78 -186 -78q-96 0 -155.5 57.5 t-59.5 155.5zM240 1024q0 -29 18 -48.5t47 -19.5q27 0 46.5 19.5t19.5 48.5q0 27 -19.5 46.5t-46.5 19.5q-29 0 -47 -19.5t-18 -46.5z" />
<glyph unicode="&#xab;" horiz-adv-x="1026" d="M43 397q-16 23 0 49l223 304q14 25 37 24h162q27 0 35 -19.5t-4 -43.5l-134 -285l127 -301q12 -25 3 -43.5t-33 -18.5h-172q-19 1 -31 17zM489 397q-16 23 0 49l224 304q14 25 37 24h161q27 0 35 -19.5t-4 -43.5l-133 -285l127 -301q12 -25 3 -43.5t-34 -18.5h-172 q-18 0 -31 17z" />
<glyph unicode="&#xac;" horiz-adv-x="1124" d="M66 639v143q0 16 12 27.5t26 11.5h820q16 0 27.5 -12t11.5 -27v-483q0 -14 -11.5 -25.5t-27.5 -11.5h-144q-16 0 -27.5 11.5t-11.5 25.5v301h-637q-14 0 -26 11.5t-12 27.5z" />
<glyph unicode="&#xad;" horiz-adv-x="1024" />
<glyph unicode="&#xae;" horiz-adv-x="1615" d="M72 717q0 305 216 521t519 216t520 -217t217 -520t-217 -520t-520 -217t-519 216t-216 521zM250 716.5q0 -231.5 164 -395t393 -163.5q231 0 394 163.5t163 395t-163 394.5t-394.5 163t-394 -163t-162.5 -394.5zM524 383v672q0 16 11.5 27.5t27.5 11.5h332q100 0 176 -74 t76 -193q0 -150 -137 -229l82 -199q8 -20 -2.5 -37.5t-32.5 -17.5h-139q-29 0 -37 29l-76 217h-80v-207q0 -16 -11.5 -27.5t-27.5 -11.5h-123q-16 0 -27.5 11.5t-11.5 27.5zM719 756h141q27 0 46.5 20.5t19.5 46.5q0 29 -19.5 48.5t-46.5 19.5h-141v-135z" />
<glyph unicode="&#xaf;" horiz-adv-x="847" d="M123 1190v84q0 39 39 39h524q39 0 39 -39v-84q0 -16 -11.5 -26.5t-27.5 -10.5h-524q-16 0 -27.5 10.5t-11.5 26.5z" />
<glyph unicode="&#xb0;" horiz-adv-x="614" d="M31 1177.5q0 114.5 81 195.5t195.5 81t195.5 -81t81 -195.5t-81 -195.5t-195.5 -81t-195.5 81t-81 195.5zM236 1177.5q0 -28.5 21.5 -50t50 -21.5t49 21.5t20.5 50.5q0 27 -20.5 48t-49 21t-50 -20.5t-21.5 -49z" />
<glyph unicode="&#xb1;" horiz-adv-x="1140" d="M123 762v143q0 16 12 27.5t27 11.5h299v301q0 14 11 25.5t28 11.5h143q16 0 27.5 -11t11.5 -26v-301h301q14 0 25.5 -11t11.5 -28v-143q0 -16 -11.5 -27.5t-25.5 -11.5h-301v-197q0 -14 -11.5 -25.5t-27.5 -11.5h-143q-16 0 -27.5 11.5t-11.5 25.5v197h-299 q-14 0 -26.5 11t-12.5 28zM143 119v143q0 16 12.5 27.5t26.5 11.5h766q14 0 25.5 -11t11.5 -28v-143q0 -16 -11 -27.5t-26 -11.5h-766q-14 0 -26.5 11.5t-12.5 27.5z" />
<glyph unicode="&#xb2;" horiz-adv-x="546" d="M41 1051v36l209 252q41 53 41 97q0 59 -64 59q-41 0 -71 -31q-25 -16 -37 9l-45 73q-16 29 -8 41q4 6 16 15q74 57 190 57q92 0 152.5 -52.5t60.5 -140.5q0 -84 -61 -172l-82 -108h119q20 0 20 -19v-116q0 -18 -20 -19h-400q-20 0 -20 19z" />
<glyph unicode="&#xb3;" horiz-adv-x="524" d="M47 1116l47 70q16 23 41 8q29 -23 74 -23q68 0 67 50q0 51 -67 51h-68q-27 4 -26 33v69q0 35 37 35h57q25 0 41 13.5t16 35.5q0 45 -59 45q-31 0 -62 -22q-20 -12 -34 8l-54 72q-18 23 2 43q63 55 179 55q102 0 163.5 -46t61.5 -124q0 -92 -105 -143q123 -47 123 -158 q0 -84 -70.5 -130t-172.5 -46q-104 0 -185 59q-25 18 -6 45z" />
<glyph unicode="&#xb4;" horiz-adv-x="618" d="M66 1153q-10 20 12 39l348 213q8 8 27.5 7t25.5 -13l70 -121q20 -41 -12 -61l-373 -168q-35 -23 -55 18z" />
<glyph unicode="&#xb5;" horiz-adv-x="1062" d="M111 -575v1355q0 16 11 27.5t28 11.5h219q16 0 27.5 -11t11.5 -28v-383q4 -59 38.5 -98t92 -39t90.5 41t33 96v383q0 39 43 39h208q16 0 27.5 -11t11.5 -28v-741q0 -14 -11 -26.5t-28 -12.5h-96q-27 0 -39 29l-30 75q-43 -43 -63.5 -59t-81 -40.5t-132.5 -24.5 q-32 0 -63 6v-561q0 -14 -11.5 -26.5t-27.5 -12.5h-219q-14 0 -26.5 12t-12.5 27z" />
<glyph unicode="&#xb6;" horiz-adv-x="1441" d="M35 1006q0 176 115.5 302t281.5 126l946 -2q14 0 26.5 -11.5t12.5 -27.5v-123q0 -16 -11 -27.5t-28 -11.5h-125v-1806q0 -16 -11 -27.5t-28 -11.5h-145q-16 0 -27.5 12t-11.5 27v1806h-258v-1806q0 -14 -11 -26.5t-28 -12.5h-143q-16 0 -27.5 12t-11.5 27v1150h-90 q-174 0 -300 125t-126 306z" />
<glyph unicode="&#xb7;" horiz-adv-x="565" d="M63 520q0 92 63.5 157.5t152.5 65.5q92 0 157.5 -65.5t65.5 -157.5q0 -88 -65.5 -151.5t-157.5 -63.5q-88 0 -152 63.5t-64 151.5z" />
<glyph unicode="&#xb8;" horiz-adv-x="505" d="M70 -461q-27 29 8 60l47 41q23 23 43 -5q12 -18 49 -18q25 0 43.5 20.5t18.5 45.5q0 80 -140 86q-35 4 -35 36v195h150v-106q92 -12 140 -67.5t48 -141.5q0 -90 -63.5 -153.5t-153.5 -63.5q-94 0 -155 71z" />
<glyph unicode="&#xb9;" horiz-adv-x="417" d="M23 1450v78q0 12 16 22l156 88h129q18 0 18 -18v-569q0 -18 -18 -19h-154q-20 0 -20 19v376h-111q-16 0 -16 23z" />
<glyph unicode="&#xba;" horiz-adv-x="618" d="M41 1130q0 154 69.5 239t198.5 85t199 -85t70 -239q0 -152 -70 -237.5t-199 -85.5t-198.5 86t-69.5 237zM246 1130.5q0 -159.5 63.5 -159.5t63.5 159.5t-63.5 159.5t-63.5 -159.5z" />
<glyph unicode="&#xbb;" horiz-adv-x="1026" d="M78 755q8 19 35 19h161q23 0 37 -24l224 -304q16 -27 0 -49l-213 -317q-12 -16 -31 -17h-172q-25 0 -34 18.5t3 43.5l127 301l-133 285q-12 25 -4 44zM524 755q8 19 35 19h162q23 0 37 -24l223 -304q16 -27 0 -49l-213 -317q-12 -16 -31 -17h-172q-25 0 -33.5 18.5 t3.5 43.5l127 301l-134 285q-12 25 -4 44z" />
<glyph unicode="&#xbc;" horiz-adv-x="1286" d="M39 1245v78q0 12 16 23l156 88h129q18 0 18 -19v-569q0 -18 -18 -19h-154q-20 0 -20 19v377h-111q-16 0 -16 22zM147 55l705 1358q10 20 35 21h114q23 0 34.5 -17.5t0.5 -38.5l-706 -1358q-10 -20 -35 -20h-113q-23 0 -34 17.5t-1 37.5zM645 131v127l326 342q4 6 14 6 h105q18 0 18 -18v-334h80q18 0 18 -16v-105q0 -18 -18 -18h-80v-97q0 -18 -18 -18h-140q-20 0 -20 18v97h-266q-19 0 -19 16zM827 250h105v133z" />
<glyph unicode="&#xbd;" horiz-adv-x="1300" d="M39 1245v78q0 12 16 23l156 88h129q18 0 18 -19v-569q0 -18 -18 -19h-154q-20 0 -20 19v377h-111q-16 0 -16 22zM147 55l705 1358q10 20 35 21h114q23 0 34.5 -17.5t0.5 -38.5l-706 -1358q-10 -20 -35 -20h-113q-23 0 -34 17.5t-1 37.5zM756 18v37l209 252q41 53 41 96 q0 59 -64 60q-41 0 -72 -31q-25 -16 -36 8l-46 74q-16 29 -8 41q4 6 17 14q74 57 190 58q92 0 152.5 -52.5t60.5 -140.5q0 -84 -61 -172l-82 -108h119q20 0 20 -19v-117q0 -18 -20 -18h-400q-20 0 -20 18z" />
<glyph unicode="&#xbe;" horiz-adv-x="1341" d="M59 911l47 70q16 23 41 8q29 -23 74 -22q68 0 68 49q0 51 -68 51h-67q-27 4 -27 33v69q0 35 37 35h57q25 0 41.5 13.5t16.5 35.5q0 45 -60 45q-31 0 -61 -22q-20 -12 -35 8l-53 72q-18 23 2 43q63 55 178 55q102 0 163.5 -46t61.5 -124q0 -92 -104 -143q123 -47 123 -158 q0 -84 -71 -130t-173 -46q-104 0 -184 59q-25 18 -7 45zM203 55l704 1358q10 20 35 21h115q23 0 34 -17.5t1 -38.5l-707 -1358q-10 -20 -35 -20h-112q-23 0 -34 17.5t-1 37.5zM700 131v127l326 342q2 6 14 6h105q18 0 18 -18v-334h80q18 0 19 -16v-105q0 -18 -19 -18h-80 v-97q0 -18 -18 -18h-139q-20 0 -21 18v97h-266q-19 0 -19 16zM883 250h104v133z" />
<glyph unicode="&#xbf;" horiz-adv-x="913" d="M35 -276q0 74 31.5 133t76.5 97t90.5 73.5t77 85t31.5 110.5q0 16 11.5 27.5t27.5 11.5h219q16 0 27.5 -11t11.5 -28v-86q0 -57 -44 -112.5t-97.5 -92t-97.5 -84t-44 -90.5q0 -49 44 -84.5t110 -35.5q59 0 108.5 31.5t77 51t47.5 0.5l125 -122q29 -25 0 -54 q-6 -8 -18 -19t-52 -43t-85 -55.5t-116 -43t-144 -19.5q-168 0 -293 103.5t-125 255.5zM295 647q0 78 58.5 135.5t138.5 57.5q78 0 135 -57.5t57 -135.5q0 -80 -57 -138t-135 -58q-80 0 -138.5 58t-58.5 138z" />
<glyph unicode="&#xc0;" horiz-adv-x="1355" d="M-8 53l641 1379q10 23 35 22h20q25 0 35 -22l641 -1379q10 -20 -1 -36.5t-34 -16.5h-227q-47 0 -72 51l-74 162h-557l-73 -164q-20 -49 -74 -49h-225q-23 0 -34 16.5t-1 36.5zM438 1790l70 121q6 12 25.5 13t27.5 -7l348 -213q23 -18 13 -39l-43 -86q-21 -41 -56 -18 l-372 168q-33 20 -13 61zM522 492h312l-156 337h-2z" />
<glyph unicode="&#xc1;" horiz-adv-x="1355" d="M-8 53l641 1379q10 23 35 22h20q25 0 35 -22l641 -1379q10 -20 -1 -36.5t-34 -16.5h-227q-47 0 -72 51l-74 162h-557l-73 -164q-20 -49 -74 -49h-225q-23 0 -34 16.5t-1 36.5zM434 1665q-10 20 12 39l349 213q8 8 27.5 7t25.5 -13l70 -121q20 -41 -13 -61l-373 -168 q-35 -23 -55 18zM522 492h312l-156 337h-2z" />
<glyph unicode="&#xc2;" horiz-adv-x="1355" d="M-8 53l641 1379q10 23 35 22h20q25 0 35 -22l641 -1379q10 -20 -1 -36.5t-34 -16.5h-227q-47 0 -72 51l-74 162h-557l-73 -164q-20 -49 -74 -49h-225q-23 0 -34 16.5t-1 36.5zM362 1665q-12 18 13 39l276 213q23 16 49 0l283 -213q23 -18 12 -39l-69 -94q-18 -25 -43 -10 l-203 118l-205 -118q-27 -14 -45 8zM522 492h312l-156 337h-2z" />
<glyph unicode="&#xc3;" horiz-adv-x="1355" d="M-8 53l641 1379q10 23 35 22h20q25 0 35 -22l641 -1379q10 -20 -1 -36.5t-34 -16.5h-227q-47 0 -72 51l-74 162h-557l-73 -164q-20 -49 -74 -49h-225q-23 0 -34 16.5t-1 36.5zM354 1712q16 29 41 62.5t77 71.5t101 38q51 0 118 -48t103.5 -48t77.5 63q20 33 52 4l69 -53 q29 -20 2 -59q-94 -160 -204 -160q-57 0 -126 49t-100 49q-16 0 -30.5 -11t-32 -34.5t-19.5 -25.5q-18 -18 -45 -2l-71 57q-25 18 -13 47zM522 492h312l-156 337h-2z" />
<glyph unicode="&#xc4;" horiz-adv-x="1355" d="M-8 53l641 1379q10 23 35 22h20q25 0 35 -22l641 -1379q10 -20 -1 -36.5t-34 -16.5h-227q-47 0 -72 51l-74 162h-557l-73 -164q-20 -49 -74 -49h-225q-23 0 -34 16.5t-1 36.5zM262 1718.5q0 59.5 42 101.5t101.5 42t102.5 -42t43 -101.5t-43 -102.5t-102.5 -43t-101.5 43 t-42 102.5zM522 492h312l-156 337h-2zM805 1718.5q0 59.5 42 101.5t101.5 42t102.5 -42t43 -101.5t-43 -102.5t-102.5 -43t-101.5 43t-42 102.5z" />
<glyph unicode="&#xc5;" horiz-adv-x="1355" d="M-8 53l641 1379q10 23 35 22h20q25 0 35 -22l641 -1379q10 -20 -1 -36.5t-34 -16.5h-227q-47 0 -72 51l-74 162h-557l-73 -164q-20 -49 -74 -49h-225q-23 0 -34 16.5t-1 36.5zM442 1775.5q0 98.5 69 167t167 68.5q96 0 165.5 -68.5t69.5 -167t-69.5 -167t-165.5 -68.5 q-98 0 -167 68.5t-69 167zM522 492h312l-156 337h-2zM588 1775.5q0 -34.5 27.5 -62t62.5 -27.5t61.5 27.5t26.5 62t-26.5 61.5t-61.5 27t-62.5 -27t-27.5 -61.5z" />
<glyph unicode="&#xc6;" horiz-adv-x="1839" d="M-36 16.5q-7 16.5 5 36.5l822 1317q31 49 51 57q14 6 39 7h821q16 0 27.5 -11.5t11.5 -27.5v-224q0 -16 -11.5 -27t-27.5 -11h-567v-254h467q16 0 27 -11.5t11 -27.5v-224q0 -16 -11 -27t-27 -11h-467v-277h567q16 0 27.5 -11t11.5 -28v-223q0 -16 -11.5 -27.5 t-27.5 -11.5h-848q-16 0 -27.5 11.5t-11.5 27.5v174h-377l-108 -178q-20 -35 -60 -35h-276q-23 0 -30 16.5zM590 492h225v362z" />
<glyph unicode="&#xc7;" horiz-adv-x="1382" d="M74 715q0 307 216 523t523 216q287 0 496 -190q31 -29 2 -58l-160 -166q-25 -25 -51 0q-117 104 -277 105q-172 0 -286.5 -124t-114.5 -298q0 -172 115.5 -294t287.5 -122q160 0 275 99q29 25 53 -3l160 -170q27 -27 -2 -55q-195 -193 -484 -198v-86q92 -12 140.5 -67.5 t48.5 -141.5q0 -90 -63.5 -153.5t-153.5 -63.5q-94 0 -156 71q-27 29 8 60l47 41q23 23 43 -5q12 -18 50 -18q25 0 43 20.5t18 45.5q0 80 -139 86q-35 4 -35 36v187q-260 47 -432 249.5t-172 473.5z" />
<glyph unicode="&#xc8;" horiz-adv-x="1200" d="M176 39v1356q0 16 11.5 27.5t27.5 11.5h848q16 0 27.5 -11.5t11.5 -27.5v-224q0 -16 -11.5 -27t-27.5 -11h-567v-254h467q16 0 27 -11.5t11 -27.5v-224q0 -16 -11 -27t-27 -11h-467v-277h567q16 0 27.5 -11t11.5 -28v-223q0 -16 -11.5 -27.5t-27.5 -11.5h-848 q-16 0 -27.5 11.5t-11.5 27.5zM410 1790l69 121q6 12 25.5 13t27.5 -7l349 -213q23 -18 12 -39l-43 -86q-20 -41 -55 -18l-373 168q-33 20 -12 61z" />
<glyph unicode="&#xc9;" horiz-adv-x="1200" d="M176 39v1356q0 16 11.5 27.5t27.5 11.5h848q16 0 27.5 -11.5t11.5 -27.5v-224q0 -16 -11.5 -27t-27.5 -11h-567v-254h467q16 0 27 -11.5t11 -27.5v-224q0 -16 -11 -27t-27 -11h-467v-277h567q16 0 27.5 -11t11.5 -28v-223q0 -16 -11.5 -27.5t-27.5 -11.5h-848 q-16 0 -27.5 11.5t-11.5 27.5zM406 1665q-10 20 12 39l348 213q8 8 27.5 7t25.5 -13l70 -121q20 -41 -12 -61l-373 -168q-35 -23 -55 18z" />
<glyph unicode="&#xca;" horiz-adv-x="1200" d="M176 39v1356q0 16 11.5 27.5t27.5 11.5h848q16 0 27.5 -11.5t11.5 -27.5v-224q0 -16 -11.5 -27t-27.5 -11h-567v-254h467q16 0 27 -11.5t11 -27.5v-224q0 -16 -11 -27t-27 -11h-467v-277h567q16 0 27.5 -11t11.5 -28v-223q0 -16 -11.5 -27.5t-27.5 -11.5h-848 q-16 0 -27.5 11.5t-11.5 27.5zM334 1665q-12 18 12 39l277 213q23 16 49 0l282 -213q23 -18 13 -39l-70 -94q-18 -25 -43 -10l-203 118l-205 -118q-27 -14 -45 8z" />
<glyph unicode="&#xcb;" horiz-adv-x="1200" d="M176 39v1356q0 16 11.5 27.5t27.5 11.5h848q16 0 27.5 -11.5t11.5 -27.5v-224q0 -16 -11.5 -27t-27.5 -11h-567v-254h467q16 0 27 -11.5t11 -27.5v-224q0 -16 -11 -27t-27 -11h-467v-277h567q16 0 27.5 -11t11.5 -28v-223q0 -16 -11.5 -27.5t-27.5 -11.5h-848 q-16 0 -27.5 11.5t-11.5 27.5zM227 1718.5q0 59.5 42 101.5t101.5 42t102.5 -42t43 -101.5t-43 -102.5t-102.5 -43t-101.5 43t-42 102.5zM770 1718.5q0 59.5 42 101.5t101.5 42t102.5 -42t43 -101.5t-43 -102.5t-102.5 -43t-101.5 43t-42 102.5z" />
<glyph unicode="&#xcc;" horiz-adv-x="675" d="M98 1790l70 121q6 12 25.5 13t27.5 -7l348 -213q23 -18 13 -39l-43 -86q-21 -41 -56 -18l-372 168q-33 20 -13 61zM176 39v1356q0 14 12.5 26.5t26.5 12.5h246q14 0 26.5 -12.5t12.5 -26.5v-1356q0 -14 -12.5 -26.5t-26.5 -12.5h-246q-14 0 -26.5 12.5t-12.5 26.5z" />
<glyph unicode="&#xcd;" horiz-adv-x="675" d="M94 1665q-10 20 12 39l349 213q8 8 27.5 7t25.5 -13l70 -121q20 -41 -13 -61l-372 -168q-35 -23 -56 18zM176 39v1356q0 14 12.5 26.5t26.5 12.5h246q14 0 26.5 -12.5t12.5 -26.5v-1356q0 -14 -12.5 -26.5t-26.5 -12.5h-246q-14 0 -26.5 12.5t-12.5 26.5z" />
<glyph unicode="&#xce;" horiz-adv-x="675" d="M23 1665q-12 18 12 39l276 213q23 16 49 0l283 -213q23 -18 12 -39l-69 -94q-18 -25 -43 -10l-203 118l-205 -118q-27 -14 -45 8zM176 39v1356q0 14 12.5 26.5t26.5 12.5h246q14 0 26.5 -12.5t12.5 -26.5v-1356q0 -14 -12.5 -26.5t-26.5 -12.5h-246q-14 0 -26.5 12.5 t-12.5 26.5z" />
<glyph unicode="&#xcf;" horiz-adv-x="675" d="M-78 1718.5q0 59.5 42 101.5t101.5 42t102.5 -42t43 -101.5t-43 -102.5t-102.5 -43t-101.5 43t-42 102.5zM176 39v1356q0 14 12.5 26.5t26.5 12.5h246q14 0 26.5 -12.5t12.5 -26.5v-1356q0 -14 -12.5 -26.5t-26.5 -12.5h-246q-14 0 -26.5 12.5t-12.5 26.5zM465 1718.5 q0 59.5 42 101.5t101.5 42t102.5 -42t43 -101.5t-43 -102.5t-102.5 -43t-101.5 43t-42 102.5z" />
<glyph unicode="&#xd0;" horiz-adv-x="1515" d="M90 692v35q0 16 11.5 27.5t25.5 11.5h59v629q0 16 11.5 27.5t25.5 11.5h500q297 0 508 -210t211 -505q0 -297 -211 -508t-508 -211h-500q-14 0 -25.5 11.5t-11.5 27.5v614h-59q-14 0 -25.5 11.5t-11.5 27.5zM506 303h196q172 0 286 120t114 296q0 174 -114 294t-286 120 h-196v-367h291q16 0 27.5 -11.5t11.5 -27.5v-37q0 -16 -11.5 -26.5t-27.5 -10.5h-291v-350z" />
<glyph unicode="&#xd1;" horiz-adv-x="1583" d="M174 1417q0 14 11.5 25.5t27.5 11.5h51l817 -786h2v727q0 16 11.5 27.5t27.5 11.5h246q16 0 27.5 -12.5t11.5 -26.5v-1379q0 -14 -11.5 -25t-27.5 -11h-33q-16 0 -26 10l-809 813h-2v-764q0 -16 -11.5 -27.5t-27.5 -11.5h-244q-14 0 -26.5 12.5t-12.5 26.5zM471 1712 q16 29 41 62.5t77 71.5t101 38q51 0 117.5 -48t103.5 -48t78 63q20 33 51 4l70 -53q29 -20 2 -59q-94 -160 -205 -160q-57 0 -125.5 49t-99.5 49q-16 0 -30.5 -11t-32 -34.5t-19.5 -25.5q-18 -18 -45 -2l-72 57q-25 18 -12 47z" />
<glyph unicode="&#xd2;" horiz-adv-x="1615" d="M72 715q0 307 214 523t521 216t522 -216t215 -523t-215 -521t-522 -214t-521 214t-214 521zM399 715q0 -168 120 -288t288 -120t289 120t121 288q0 170 -121 290.5t-289 120.5t-288 -120.5t-120 -290.5zM567 1790l70 121q6 12 25.5 13t27.5 -7l348 -213q23 -18 13 -39 l-43 -86q-21 -41 -56 -18l-372 168q-35 20 -13 61z" />
<glyph unicode="&#xd3;" horiz-adv-x="1615" d="M72 715q0 307 214 523t521 216t522 -216t215 -523t-215 -521t-522 -214t-521 214t-214 521zM399 715q0 -168 120 -288t288 -120t289 120t121 288q0 170 -121 290.5t-289 120.5t-288 -120.5t-120 -290.5zM563 1665q-10 20 12 39l349 213q8 8 27.5 7t25.5 -13l70 -121 q23 -41 -13 -61l-372 -168q-35 -23 -56 18z" />
<glyph unicode="&#xd4;" horiz-adv-x="1615" d="M72 715q0 307 214 523t521 216t522 -216t215 -523t-215 -521t-522 -214t-521 214t-214 521zM399 715q0 -168 120 -288t288 -120t289 120t121 288q0 170 -121 290.5t-289 120.5t-288 -120.5t-120 -290.5zM492 1665q-12 18 12 39l276 213q23 16 49 0l283 -213 q23 -18 12 -39l-69 -94q-18 -25 -43 -10l-203 118l-205 -118q-27 -14 -45 8z" />
<glyph unicode="&#xd5;" horiz-adv-x="1615" d="M72 715q0 307 214 523t521 216t522 -216t215 -523t-215 -521t-522 -214t-521 214t-214 521zM399 715q0 -168 120 -288t288 -120t289 120t121 288q0 170 -121 290.5t-289 120.5t-288 -120.5t-120 -290.5zM483 1712q16 29 41 62.5t77 71.5t101 38q51 0 118 -48t104 -48 t77 63q20 33 52 4l69 -53q29 -20 2 -59q-94 -160 -204 -160q-57 0 -126 49t-100 49q-16 0 -30.5 -11t-32 -34.5t-19.5 -25.5q-18 -18 -45 -2l-71 57q-25 18 -13 47z" />
<glyph unicode="&#xd6;" horiz-adv-x="1615" d="M72 715q0 307 214 523t521 216t522 -216t215 -523t-215 -521t-522 -214t-521 214t-214 521zM391 1718.5q0 59.5 42 101.5t101.5 42t102.5 -42t43 -101.5t-43 -102.5t-102.5 -43t-101.5 43t-42 102.5zM399 715q0 -168 120 -288t288 -120t289 120t121 288q0 170 -121 290.5 t-289 120.5t-288 -120.5t-120 -290.5zM934 1718.5q0 59.5 42 101.5t101.5 42t102.5 -42t43 -101.5t-43 -102.5t-102.5 -43t-101.5 43t-42 102.5z" />
<glyph unicode="&#xd7;" horiz-adv-x="940" d="M102 446q-27 27 0 54l211 211l-211 213q-27 27 0 53l101 102q27 27 55 0l211 -211l213 213q27 25 53 -2l103 -102q27 -27 2 -53l-213 -213l213 -213q25 -27 -2 -54l-103 -100q-10 -10 -26.5 -11t-26.5 9l-213 213l-211 -211q-26 -27 -53 0z" />
<glyph unicode="&#xd8;" horiz-adv-x="1628" d="M78 715q0 307 214 523t521 216q272 0 481 -178l144 141q25 29 53 0l25 -24q29 -25 0 -54l-144 -143q178 -209 178 -481q0 -307 -215 -521t-522 -214q-279 0 -481 176l-137 -136q-27 -25 -54 3l-24 24q-27 27 -2 53l137 136q-174 207 -174 479zM406 715q-1 -135 81 -244 l574 571q-115 84 -248 84q-168 0 -287.5 -120.5t-119.5 -290.5zM567 391q106 -84 246 -84q168 0 289 120t121 288q0 141 -84 248z" />
<glyph unicode="&#xd9;" horiz-adv-x="1478" d="M156 549v846q0 14 12 26.5t27 12.5h251q16 0 27.5 -11.5t11.5 -27.5v-830q0 -109 72 -183.5t180 -74.5q111 0 183.5 75t72.5 183v830q0 16 11.5 27.5t27.5 11.5h252q14 0 26.5 -12.5t12.5 -26.5v-846q0 -233 -172 -401t-414 -168q-240 0 -410.5 168t-170.5 401zM500 1790 l69 121q6 12 25.5 13t28.5 -7l348 -213q23 -18 12 -39l-43 -86q-20 -41 -55 -18l-373 168q-33 20 -12 61z" />
<glyph unicode="&#xda;" horiz-adv-x="1478" d="M156 549v846q0 14 12 26.5t27 12.5h251q16 0 27.5 -11.5t11.5 -27.5v-830q0 -109 72 -183.5t180 -74.5q111 0 183.5 75t72.5 183v830q0 16 11.5 27.5t27.5 11.5h252q14 0 26.5 -12.5t12.5 -26.5v-846q0 -233 -172 -401t-414 -168q-240 0 -410.5 168t-170.5 401zM496 1665 q-10 20 12 39l348 213q8 8 27.5 7t25.5 -13l70 -121q20 -41 -12 -61l-373 -168q-35 -23 -55 18z" />
<glyph unicode="&#xdb;" horiz-adv-x="1478" d="M156 549v846q0 14 12 26.5t27 12.5h251q16 0 27.5 -11.5t11.5 -27.5v-830q0 -109 72 -183.5t180 -74.5q111 0 183.5 75t72.5 183v830q0 16 11.5 27.5t27.5 11.5h252q14 0 26.5 -12.5t12.5 -26.5v-846q0 -233 -172 -401t-414 -168q-240 0 -410.5 168t-170.5 401zM422 1665 q-12 18 12 39l277 213q23 16 49 0l282 -213q23 -18 13 -39l-70 -94q-18 -25 -43 -10l-203 118l-204 -118q-27 -14 -46 8z" />
<glyph unicode="&#xdc;" horiz-adv-x="1478" d="M156 549v846q0 14 12 26.5t27 12.5h251q16 0 27.5 -11.5t11.5 -27.5v-830q0 -109 72 -183.5t180 -74.5q111 0 183.5 75t72.5 183v830q0 16 11.5 27.5t27.5 11.5h252q14 0 26.5 -12.5t12.5 -26.5v-846q0 -233 -172 -401t-414 -168q-240 0 -410.5 168t-170.5 401z M322 1718.5q0 59.5 42 101.5t101 42t102 -42t43 -101.5t-43 -102.5t-102 -43t-101 43t-42 102.5zM864 1718.5q0 59.5 42 101.5t101.5 42t102.5 -42t43 -101.5t-43 -102.5t-102.5 -43t-101.5 43t-42 102.5z" />
<glyph unicode="&#xdd;" horiz-adv-x="1208" d="M-14 1414q10 20 34 20h267q18 0 32 -19l285 -420l285 420q14 18 33 19h266q25 0 35 -19.5t-2 -40.5l-459 -682v-653q0 -14 -12.5 -26.5t-26.5 -12.5h-244q-16 0 -27.5 11.5t-11.5 27.5v651l-452 684q-12 20 -2 40zM360 1665q-10 20 13 39l348 213q8 8 27.5 7t25.5 -13 l70 -121q20 -41 -13 -61l-372 -168q-35 -23 -56 18z" />
<glyph unicode="&#xde;" horiz-adv-x="1200" d="M176 39v1356q0 16 11.5 27.5t27.5 11.5h242q14 0 26.5 -12.5t12.5 -26.5v-221h213q188 0 323 -133.5t135 -319.5q0 -190 -134 -325.5t-322 -135.5h-215v-221q0 -14 -12.5 -26.5t-26.5 -12.5h-242q-16 0 -27.5 11.5t-11.5 27.5zM496 559h194q68 0 115 47t47 115 q0 63 -47 107t-115 44h-194v-313z" />
<glyph unicode="&#xdf;" horiz-adv-x="1105" d="M111 39v807q0 299 139 453.5t373 154.5q137 0 240.5 -85t103.5 -243q0 -98 -76 -231t-76 -180q0 -37 82 -111q166 -147 166 -303q0 -313 -397 -321q-35 0 -41 30l-39 172q-4 16 6 30.5t26 16.5q115 18 115 107q0 57 -92 119q-135 102 -135 209q0 74 75.5 223t75.5 227 q0 29 -17 50.5t-50 21.5q-23 0 -49.5 -14.5t-55 -48t-48 -107.5t-19.5 -176v-801q0 -14 -12.5 -26.5t-26.5 -12.5h-229q-14 0 -26.5 12.5t-12.5 26.5z" />
<glyph unicode="&#xe0;" horiz-adv-x="878" d="M55 250q0 121 82 197.5t219 76.5q41 0 80 -8t60 -16l18 -8q0 66 -20.5 93t-90.5 27q-104 0 -204 -30q-41 -14 -49 43l-19 129q-8 43 31 55q20 6 110 18.5t162 12.5q188 0 267 -82t79 -266v-453q0 -14 -11 -26.5t-28 -12.5h-90q-25 0 -37 27l-28 55q-113 -102 -248 -102 q-123 0 -203 74.5t-80 195.5zM229 1278l70 121q6 12 25.5 13t27.5 -7l348 -213q23 -18 13 -39l-43 -86q-21 -41 -56 -18l-372 168q-33 20 -13 61zM322 270q0 -37 25.5 -63.5t62 -26.5t63.5 26.5t27 63.5q-2 35 -28 60.5t-62.5 25.5t-62 -25.5t-25.5 -60.5z" />
<glyph unicode="&#xe1;" horiz-adv-x="878" d="M55 250q0 121 82 197.5t219 76.5q41 0 80 -8t60 -16l18 -8q0 66 -20.5 93t-90.5 27q-104 0 -204 -30q-41 -14 -49 43l-19 129q-8 43 31 55q20 6 110 18.5t162 12.5q188 0 267 -82t79 -266v-453q0 -14 -11 -26.5t-28 -12.5h-90q-25 0 -37 27l-28 55q-113 -102 -248 -102 q-123 0 -203 74.5t-80 195.5zM205 1153q-10 20 12 39l348 213q8 8 27.5 7t25.5 -13l70 -121q20 -41 -12 -61l-373 -168q-35 -23 -55 18zM322 270q0 -37 25.5 -63.5t62 -26.5t63.5 26.5t27 63.5q-2 35 -28 60.5t-62.5 25.5t-62 -25.5t-25.5 -60.5z" />
<glyph unicode="&#xe2;" horiz-adv-x="878" d="M55 250q0 121 82 197.5t219 76.5q41 0 80 -8t60 -16l18 -8q0 66 -20.5 93t-90.5 27q-104 0 -204 -30q-41 -14 -49 43l-19 129q-8 43 31 55q20 6 110 18.5t162 12.5q188 0 267 -82t79 -266v-453q0 -14 -11 -26.5t-28 -12.5h-90q-25 0 -37 27l-28 55q-113 -102 -248 -102 q-123 0 -203 74.5t-80 195.5zM133 1153q-12 18 12 39l277 213q23 16 49 0l283 -213q23 -18 12 -39l-70 -94q-18 -25 -43 -10l-202 118l-205 -118q-27 -14 -45 8zM322 270q0 -37 25.5 -63.5t62 -26.5t63.5 26.5t27 63.5q-2 35 -28 60.5t-62.5 25.5t-62 -25.5t-25.5 -60.5z " />
<glyph unicode="&#xe3;" horiz-adv-x="878" d="M55 250q0 121 82 197.5t219 76.5q41 0 80 -8t60 -16l18 -8q0 66 -20.5 93t-90.5 27q-104 0 -204 -30q-41 -14 -49 43l-19 129q-8 43 31 55q20 6 110 18.5t162 12.5q188 0 267 -82t79 -266v-453q0 -14 -11 -26.5t-28 -12.5h-90q-25 0 -37 27l-28 55q-113 -102 -248 -102 q-123 0 -203 74.5t-80 195.5zM111 1241q16 29 40.5 62.5t77 71.5t101.5 38q51 0 117.5 -48t103.5 -48t78 63q20 33 51 4l70 -53q29 -20 2 -59q-94 -160 -205 -160q-57 0 -126 49t-99 49q-16 0 -31 -11t-32 -34.5t-19 -25.5q-18 -18 -45 -2l-72 57q-25 18 -12 47zM322 270 q0 -37 25.5 -63.5t62 -26.5t63.5 26.5t27 63.5q-2 35 -28 60.5t-62.5 25.5t-62 -25.5t-25.5 -60.5z" />
<glyph unicode="&#xe4;" horiz-adv-x="878" d="M55 250q0 121 82 197.5t219 76.5q41 0 80 -8t60 -16l18 -8q0 66 -20.5 93t-90.5 27q-104 0 -204 -30q-41 -14 -49 43l-19 129q-8 43 31 55q20 6 110 18.5t162 12.5q188 0 267 -82t79 -266v-453q0 -14 -11 -26.5t-28 -12.5h-90q-25 0 -37 27l-28 55q-113 -102 -248 -102 q-123 0 -203 74.5t-80 195.5zM94 1241q0 59 42 101t101.5 42t102.5 -42t43 -101t-43 -102t-102.5 -43t-101.5 43t-42 102zM322 270q0 -37 25.5 -63.5t62 -26.5t63.5 26.5t27 63.5q-2 35 -28 60.5t-62.5 25.5t-62 -25.5t-25.5 -60.5zM514 1241q0 59 42 101t101.5 42 t102.5 -42t43 -101t-43 -102t-102.5 -43t-101.5 43t-42 102z" />
<glyph unicode="&#xe5;" horiz-adv-x="878" d="M55 250q0 121 82 197.5t219 76.5q41 0 80 -8t60 -16l18 -8q0 66 -20.5 93t-90.5 27q-104 0 -204 -30q-41 -14 -49 43l-19 129q-8 43 31 55q20 6 110 18.5t162 12.5q188 0 267 -82t79 -266v-453q0 -14 -11 -26.5t-28 -12.5h-90q-25 0 -37 27l-28 55q-113 -102 -248 -102 q-123 0 -203 74.5t-80 195.5zM213 1218.5q0 98.5 68.5 167t167.5 68.5q96 0 165.5 -68.5t69.5 -167t-69.5 -167t-165.5 -68.5q-98 0 -167 68.5t-69 167zM322 270q0 -37 25.5 -63.5t62 -26.5t63.5 26.5t27 63.5q-2 35 -28 60.5t-62.5 25.5t-62 -25.5t-25.5 -60.5zM358 1218.5 q0 -34.5 28 -62.5t62.5 -28t61.5 28t27 62.5t-27 61.5t-61.5 27t-62.5 -27t-28 -61.5z" />
<glyph unicode="&#xe6;" horiz-adv-x="1353" d="M53 252q0 117 82 194.5t223 77.5q37 0 76 -8t60 -16l20 -8q2 70 -22.5 98t-88.5 28q-78 0 -204 -24q-39 -4 -47 33l-23 141q-2 14 8 26.5t25 14.5q162 31 272 31q180 0 258 -72q106 72 236 72q160 0 274.5 -109.5t114.5 -275.5q0 -90 -43 -90h-492q6 -51 46 -94.5 t112 -43.5q74 0 139 49q33 23 51 0l107 -120q29 -29 2 -56q-121 -121 -307 -120q-190 0 -307 133q-18 -25 -49 -50.5t-97.5 -54t-140.5 -28.5q-129 0 -207 75.5t-78 196.5zM322 270q0 -37 25.5 -63.5t62 -26.5t63.5 26.5t27 63.5q-2 35 -28 60.5t-62.5 25.5t-62 -25.5 t-25.5 -60.5zM809 524h219q-2 39 -34.5 68t-73.5 29t-73 -28t-38 -69z" />
<glyph unicode="&#xe7;" horiz-adv-x="862" d="M49 410q0 178 132 304t311 126q186 0 307 -148q23 -29 -11 -57l-122 -117q-8 -8 -22.5 -6t-22.5 10q-49 53 -119 53q-68 0 -116 -49t-48 -116q0 -70 46 -118t114 -48q76 0 139 63q25 25 45 8l123 -106q33 -31 14 -57q-115 -170 -321 -172v-89q92 -12 140 -67t48 -141 q0 -90 -63.5 -154t-153.5 -64q-94 0 -156 72q-27 29 9 60l47 41q23 23 43 -5q12 -18 49 -18q25 0 43 20.5t18 45.5q0 80 -139 86q-35 4 -35 36v199q-131 45 -215 154.5t-84 253.5z" />
<glyph unicode="&#xe8;" horiz-adv-x="899" d="M49 410q0 176 123 303t301 127q160 0 274.5 -109.5t114.5 -275.5q0 -27 -4 -56q-4 -35 -39 -34h-491q6 -51 46 -93.5t111 -42.5q78 0 144 50q31 25 51 0l102 -123q25 -33 -2 -60q-117 -117 -303 -116q-180 0 -304 126t-124 304zM258 1278l70 121q6 12 25.5 13t27.5 -7 l348 -213q23 -18 12 -39l-43 -86q-20 -41 -55 -18l-373 168q-33 20 -12 61zM354 524h219q-2 39 -34.5 68t-73.5 29t-73 -28t-38 -69z" />
<glyph unicode="&#xe9;" horiz-adv-x="899" d="M49 410q0 176 123 303t301 127q160 0 274.5 -109.5t114.5 -275.5q0 -27 -4 -56q-4 -35 -39 -34h-491q6 -51 46 -93.5t111 -42.5q78 0 144 50q31 25 51 0l102 -123q25 -33 -2 -60q-117 -117 -303 -116q-180 0 -304 126t-124 304zM233 1153q-10 20 13 39l348 213 q8 8 27.5 7t25.5 -13l70 -121q20 -41 -12 -61l-373 -168q-35 -23 -56 18zM354 524h219q-2 39 -34.5 68t-73.5 29t-73 -28t-38 -69z" />
<glyph unicode="&#xea;" horiz-adv-x="899" d="M49 410q0 176 123 303t301 127q160 0 274.5 -109.5t114.5 -275.5q0 -27 -4 -56q-4 -35 -39 -34h-491q6 -51 46 -93.5t111 -42.5q78 0 144 50q31 25 51 0l102 -123q25 -33 -2 -60q-117 -117 -303 -116q-180 0 -304 126t-124 304zM162 1153q-12 18 12 39l277 213 q23 16 49 0l282 -213q23 -18 13 -39l-70 -94q-18 -25 -43 -10l-203 118l-205 -118q-27 -14 -45 8zM354 524h219q-2 39 -34.5 68t-73.5 29t-73 -28t-38 -69z" />
<glyph unicode="&#xeb;" horiz-adv-x="899" d="M49 410q0 176 123 303t301 127q160 0 274.5 -109.5t114.5 -275.5q0 -27 -4 -56q-4 -35 -39 -34h-491q6 -51 46 -93.5t111 -42.5q78 0 144 50q31 25 51 0l102 -123q25 -33 -2 -60q-117 -117 -303 -116q-180 0 -304 126t-124 304zM123 1241q0 59 42 101t101.5 42t102.5 -42 t43 -101t-43 -102t-102.5 -43t-101.5 43t-42 102zM354 524h219q-2 39 -34.5 68t-73.5 29t-73 -28t-38 -69zM543 1241q0 59 42 101t101 42t102 -42t43 -101t-43 -102t-102 -43t-101 43t-42 102z" />
<glyph unicode="&#xec;" horiz-adv-x="524" d="M23 1278l69 121q6 12 25.5 13t27.5 -7l349 -213q23 -18 12 -39l-43 -86q-20 -41 -55 -18l-373 168q-35 20 -12 61zM111 39v739q0 16 11 27.5t28 11.5h225q16 0 27.5 -11t11.5 -28v-739q0 -14 -12.5 -26.5t-26.5 -12.5h-225q-14 0 -26.5 12.5t-12.5 26.5z" />
<glyph unicode="&#xed;" horiz-adv-x="524" d="M18 1153q-10 20 13 39l348 213q8 8 27.5 7t25.5 -13l70 -121q23 -41 -13 -61l-372 -168q-35 -23 -56 18zM111 39v739q0 16 11 27.5t28 11.5h225q16 0 27.5 -11t11.5 -28v-739q0 -14 -12.5 -26.5t-26.5 -12.5h-225q-14 0 -26.5 12.5t-12.5 26.5z" />
<glyph unicode="&#xee;" horiz-adv-x="524" d="M-53 1153q-12 18 12 39l277 213q23 16 49 0l282 -213q23 -18 13 -39l-70 -94q-18 -25 -43 -10l-203 118l-205 -118q-27 -14 -45 8zM111 39v739q0 16 11 27.5t28 11.5h225q16 0 27.5 -11t11.5 -28v-739q0 -14 -12.5 -26.5t-26.5 -12.5h-225q-14 0 -26.5 12.5t-12.5 26.5z " />
<glyph unicode="&#xef;" horiz-adv-x="524" d="M-92 1241q0 59 42 101t101.5 42t102.5 -42t43 -101t-43 -102t-102.5 -43t-101.5 43t-42 102zM111 39v739q0 16 11 27.5t28 11.5h225q16 0 27.5 -11t11.5 -28v-739q0 -14 -12.5 -26.5t-26.5 -12.5h-225q-14 0 -26.5 12.5t-12.5 26.5zM328 1241q0 59 42 101t101 42t102 -42 t43 -101t-43 -102t-102 -43t-101 43t-42 102z" />
<glyph unicode="&#xf0;" horiz-adv-x="1071" d="M49 449q0 209 124 326.5t284 117.5q98 0 194 -41q-29 137 -182 233l-158 -90q-33 -20 -51 13l-18 30q-20 35 12 54l96 55q-51 31 -125 49q-39 12 -24 51l59 158q18 47 78 27q113 -37 262 -142l145 86q33 18 52 -16l18 -29q20 -35 -12 -53l-107 -61q315 -272 316 -680 q0 -246 -131 -401.5t-363 -155.5q-193 0 -331 138t-138 331zM326 459q0 -80 57 -138.5t139 -58.5t139.5 58.5t57.5 138.5q0 82 -57.5 140t-139.5 58t-139 -58t-57 -140z" />
<glyph unicode="&#xf1;" horiz-adv-x="1081" d="M111 39v741q0 16 11 27.5t28 11.5h96q27 0 37 -24l32 -82q117 127 289 127q182 0 285.5 -122t103.5 -306v-373q0 -14 -11 -26.5t-28 -12.5h-219q-16 0 -27.5 11.5t-11.5 27.5v383q0 66 -36.5 109.5t-102.5 43.5q-63 0 -109.5 -40.5t-46.5 -102.5v-393q0 -39 -36 -39h-215 q-14 0 -26.5 12.5t-12.5 26.5zM227 1241q16 29 41 62.5t77 71.5t101 38q51 0 118 -48t104 -48t77 63q20 33 52 4l69 -53q29 -20 2 -59q-94 -160 -204 -160q-57 0 -126 49t-100 49q-16 0 -30.5 -11t-32 -34.5t-19.5 -25.5q-18 -18 -45 -2l-71 57q-25 18 -13 47z" />
<glyph unicode="&#xf2;" horiz-adv-x="946" d="M47 412q0 174 126 301t300 127t300 -127t126 -301q0 -176 -126 -304t-300 -128t-300 128t-126 304zM233 1278l70 121q6 12 25.5 13t27.5 -7l349 -213q23 -18 12 -39l-43 -86q-21 -41 -56 -18l-372 168q-33 20 -13 61zM311 412q0 -70 47.5 -119t115 -49t114.5 49t47 119 q0 68 -47 115.5t-114.5 47.5t-115 -47.5t-47.5 -115.5z" />
<glyph unicode="&#xf3;" horiz-adv-x="946" d="M47 412q0 174 126 301t300 127t300 -127t126 -301q0 -176 -126 -304t-300 -128t-300 128t-126 304zM225 1153q-10 20 13 39l348 213q8 8 27.5 7t25.5 -13l70 -121q20 -41 -13 -61l-372 -168q-35 -23 -56 18zM311 412q0 -70 47.5 -119t115 -49t114.5 49t47 119 q0 68 -47 115.5t-114.5 47.5t-115 -47.5t-47.5 -115.5z" />
<glyph unicode="&#xf4;" horiz-adv-x="946" d="M47 412q0 174 126 301t300 127t300 -127t126 -301q0 -176 -126 -304t-300 -128t-300 128t-126 304zM158 1153q-12 18 12 39l276 213q23 16 50 0l282 -213q23 -18 13 -39l-70 -94q-18 -25 -43 -10l-203 118l-205 -118q-27 -14 -45 8zM311 412q0 -70 47.5 -119t115 -49 t114.5 49t47 119q0 68 -47 115.5t-114.5 47.5t-115 -47.5t-47.5 -115.5z" />
<glyph unicode="&#xf5;" horiz-adv-x="946" d="M47 412q0 174 126 301t300 127t300 -127t126 -301q0 -176 -126 -304t-300 -128t-300 128t-126 304zM150 1241q16 29 40.5 62.5t76.5 71.5t102 38q51 0 117.5 -48t103.5 -48t78 63q20 33 51 4l69 -53q29 -20 3 -59q-94 -160 -205 -160q-57 0 -126 49t-100 49 q-16 0 -30.5 -11t-31.5 -34.5t-19 -25.5q-19 -18 -46 -2l-71 57q-25 18 -12 47zM311 412q0 -70 47.5 -119t115 -49t114.5 49t47 119q0 68 -47 115.5t-114.5 47.5t-115 -47.5t-47.5 -115.5z" />
<glyph unicode="&#xf6;" horiz-adv-x="946" d="M47 412q0 174 126 301t300 127t300 -127t126 -301q0 -176 -126 -304t-300 -128t-300 128t-126 304zM119 1241q0 59 42 101t101.5 42t102.5 -42t43 -101t-43 -102t-102.5 -43t-101.5 43t-42 102zM311 412q0 -70 47.5 -119t115 -49t114.5 49t47 119q0 68 -47 115.5 t-114.5 47.5t-115 -47.5t-47.5 -115.5zM539 1241q0 59 42 101t101 42t102 -42t43 -101t-43 -102t-102 -43t-101 43t-42 102z" />
<glyph unicode="&#xf7;" horiz-adv-x="1011" d="M57 637v143q0 14 12.5 26.5t26.5 12.5h822q14 0 25 -11t11 -28v-143q0 -16 -11 -27.5t-25 -11.5h-822q-14 0 -26.5 12.5t-12.5 26.5zM346 315.5q0 63.5 44 107.5t107.5 44t108.5 -44t45 -107.5t-45 -108.5t-108.5 -45t-107.5 45t-44 108.5zM348 1118.5q0 63.5 44 107.5 t107.5 44t108.5 -44t45 -107.5t-45 -108.5t-108.5 -45t-107.5 45t-44 108.5z" />
<glyph unicode="&#xf8;" horiz-adv-x="954" d="M51 414q0 174 126 300t300 126q141 0 258 -90l58 57q25 29 53 0l24 -25q29 -25 0 -53l-57 -57q90 -117 90 -258q0 -176 -126 -305t-300 -129q-143 0 -258 88l-51 -52q-25 -25 -53 2l-25 25q-10 10 -11 26.5t9 26.5l51 51q-88 115 -88 267zM315 414q1 -41 15 -70l217 217 q-29 14 -70 14q-68 0 -115 -47t-47 -114zM408 258q29 -14 69 -14q68 0 115 50t47 120q0 33 -14 67z" />
<glyph unicode="&#xf9;" d="M92 410v370q0 16 11.5 27.5t27.5 11.5h219q16 0 27.5 -11t11.5 -28v-379q0 -66 35 -111.5t96 -45.5q57 0 90 44t33 101v391q0 39 43 39h209q16 0 27.5 -11t11.5 -28v-741q0 -14 -12.5 -26.5t-26.5 -12.5h-96q-27 0 -39 29l-31 75q-43 -43 -63.5 -59t-81 -40.5 t-131.5 -24.5q-174 0 -267.5 122t-93.5 308zM299 1278l70 121q6 12 25.5 13t27.5 -7l348 -213q23 -18 12 -39l-43 -86q-20 -41 -55 -18l-373 168q-33 20 -12 61z" />
<glyph unicode="&#xfa;" d="M92 410v370q0 16 11.5 27.5t27.5 11.5h219q16 0 27.5 -11t11.5 -28v-379q0 -66 35 -111.5t96 -45.5q57 0 90 44t33 101v391q0 39 43 39h209q16 0 27.5 -11t11.5 -28v-741q0 -14 -12.5 -26.5t-26.5 -12.5h-96q-27 0 -39 29l-31 75q-43 -43 -63.5 -59t-81 -40.5 t-131.5 -24.5q-174 0 -267.5 122t-93.5 308zM274 1153q-10 20 13 39l348 213q8 8 27.5 7t25.5 -13l70 -121q20 -41 -13 -61l-372 -168q-35 -23 -56 18z" />
<glyph unicode="&#xfb;" d="M92 410v370q0 16 11.5 27.5t27.5 11.5h219q16 0 27.5 -11t11.5 -28v-379q0 -66 35 -111.5t96 -45.5q57 0 90 44t33 101v391q0 39 43 39h209q16 0 27.5 -11t11.5 -28v-741q0 -14 -12.5 -26.5t-26.5 -12.5h-96q-27 0 -39 29l-31 75q-43 -43 -63.5 -59t-81 -40.5 t-131.5 -24.5q-174 0 -267.5 122t-93.5 308zM203 1153q-12 18 12 39l277 213q23 16 49 0l282 -213q23 -18 13 -39l-70 -94q-18 -25 -43 -10l-203 118l-205 -118q-27 -14 -45 8z" />
<glyph unicode="&#xfc;" d="M92 410v370q0 16 11.5 27.5t27.5 11.5h219q16 0 27.5 -11t11.5 -28v-379q0 -66 35 -111.5t96 -45.5q57 0 90 44t33 101v391q0 39 43 39h209q16 0 27.5 -11t11.5 -28v-741q0 -14 -12.5 -26.5t-26.5 -12.5h-96q-27 0 -39 29l-31 75q-43 -43 -63.5 -59t-81 -40.5 t-131.5 -24.5q-174 0 -267.5 122t-93.5 308zM164 1241q0 59 42 101t101.5 42t102.5 -42t43 -101t-43 -102t-102.5 -43t-101.5 43t-42 102zM584 1241q0 59 42 101t101 42t102 -42t43 -101t-43 -102t-102 -43t-101 43t-42 102z" />
<glyph unicode="&#xfd;" horiz-adv-x="952" d="M12 766q-10 20 1.5 36.5t33.5 16.5h234q23 0 34 -22l158 -381h4l162 381q8 23 35 22h231q23 0 34 -16.5t1 -36.5l-627 -1356q-12 -25 -34 -24h-230q-23 0 -34 17t-1 38l305 643zM229 1153q-10 20 13 39l348 213q8 8 27.5 7t25.5 -13l70 -121q20 -41 -13 -61l-372 -168 q-35 -23 -56 18z" />
<glyph unicode="&#xfe;" d="M111 -578v1973q0 14 12 26.5t27 12.5h227q16 0 27.5 -12.5t11.5 -26.5v-607q72 51 178 52q172 0 285.5 -119t113.5 -311q0 -180 -126 -305t-302 -125q-77 -1 -149 32v-590q0 -16 -11.5 -27t-27.5 -11h-227q-14 0 -26.5 11t-12.5 27zM383 410q0 -70 46 -117t115.5 -47 t117 47t47.5 117q0 68 -47.5 114.5t-116.5 46.5q-68 0 -115 -46.5t-47 -114.5z" />
<glyph unicode="&#xff;" horiz-adv-x="952" d="M12 766q-10 20 1.5 36.5t33.5 16.5h234q23 0 34 -22l158 -381h4l162 381q8 23 35 22h231q23 0 34 -16.5t1 -36.5l-627 -1356q-12 -25 -34 -24h-230q-23 0 -34 17t-1 38l305 643zM121 1241q0 59 42 101t101.5 42t102.5 -42t43 -101t-43 -102t-102.5 -43t-101.5 43t-42 102 zM541 1241q0 59 42 101t101 42t102 -42t43 -101t-43 -102t-102 -43t-101 43t-42 102z" />
<glyph unicode="&#x152;" horiz-adv-x="2002" d="M72 715q0 307 214 523t521 216q47 0 100.5 -5t81.5 -11l29 -4h848q16 0 27.5 -11.5t11.5 -27.5v-224q0 -16 -11.5 -27t-27.5 -11h-568v-254h467q16 0 27.5 -11.5t11.5 -27.5v-224q0 -16 -11 -27t-28 -11h-467v-277h568q16 0 27.5 -11t11.5 -28v-223q0 -16 -11.5 -27.5 t-27.5 -11.5h-848q-109 -20 -211 -20q-307 0 -521 214t-214 521zM399 715q0 -168 121 -291t287 -123q100 0 172 33v764q-72 33 -172 32q-168 0 -288 -122.5t-120 -292.5z" />
<glyph unicode="&#x153;" horiz-adv-x="1454" d="M49 414q0 174 126 300t300 126q152 0 275 -107q119 106 278.5 106.5t274 -109t114.5 -275.5q0 -27 -4 -56q-4 -35 -39 -34h-491q6 -51 46 -94.5t111 -43.5q74 0 140 49q33 23 51 0q14 -16 48 -56t58 -64q29 -29 2 -56q-121 -121 -307 -120q-162 0 -282 104 q-117 -104 -275 -104q-174 0 -300 129t-126 305zM313 414q0 -70 47.5 -120t115 -50t114.5 50t47 120q0 68 -47 114.5t-114.5 46.5t-115 -46.5t-47.5 -114.5zM909 524h219q-2 39 -34.5 68t-73.5 29t-73 -28t-38 -69z" />
<glyph unicode="&#x178;" horiz-adv-x="1208" d="M-14 1414q10 20 34 20h267q18 0 32 -19l285 -420l285 420q14 18 33 19h266q25 0 35 -19.5t-2 -40.5l-459 -682v-653q0 -14 -12.5 -26.5t-26.5 -12.5h-244q-16 0 -27.5 11.5t-11.5 27.5v651l-452 684q-12 20 -2 40zM188 1718.5q0 59.5 42 101.5t101.5 42t102.5 -42 t43 -101.5t-43 -102.5t-102.5 -43t-101.5 43t-42 102.5zM731 1718.5q0 59.5 42 101.5t101.5 42t102.5 -42t43 -101.5t-43 -102.5t-102.5 -43t-101.5 43t-42 102.5z" />
<glyph unicode="&#x2c6;" horiz-adv-x="763" d="M66 1153q-12 18 12 39l276 213q23 16 49 0l283 -213q23 -18 12 -39l-69 -94q-18 -25 -43 -10l-203 118l-205 -118q-27 -14 -45 8z" />
<glyph unicode="&#x2dc;" horiz-adv-x="778" d="M66 1241q16 29 40.5 62.5t77 71.5t101.5 38q51 0 117.5 -48t103.5 -48t78 63q20 33 51 4l70 -53q29 -20 2 -59q-94 -160 -205 -160q-57 0 -126 49t-100 49q-16 0 -30.5 -11t-31.5 -34.5t-19 -25.5q-18 -18 -45 -2l-72 57q-25 18 -12 47z" />
<glyph unicode="&#x2000;" horiz-adv-x="1005" />
<glyph unicode="&#x2001;" horiz-adv-x="2011" />
<glyph unicode="&#x2002;" horiz-adv-x="1005" />
<glyph unicode="&#x2003;" horiz-adv-x="2011" />
<glyph unicode="&#x2004;" horiz-adv-x="670" />
<glyph unicode="&#x2005;" horiz-adv-x="502" />
<glyph unicode="&#x2006;" horiz-adv-x="335" />
<glyph unicode="&#x2007;" horiz-adv-x="335" />
<glyph unicode="&#x2008;" horiz-adv-x="251" />
<glyph unicode="&#x2009;" horiz-adv-x="402" />
<glyph unicode="&#x200a;" horiz-adv-x="111" />
<glyph unicode="&#x2010;" horiz-adv-x="735" d="M94 401v187q0 39 39 39h469q39 0 39 -39v-187q0 -16 -11.5 -26t-27.5 -10h-469q-16 0 -27.5 10t-11.5 26z" />
<glyph unicode="&#x2011;" horiz-adv-x="735" d="M94 401v187q0 39 39 39h469q39 0 39 -39v-187q0 -16 -11.5 -26t-27.5 -10h-469q-16 0 -27.5 10t-11.5 26z" />
<glyph unicode="&#x2012;" horiz-adv-x="735" d="M94 401v187q0 39 39 39h469q39 0 39 -39v-187q0 -16 -11.5 -26t-27.5 -10h-469q-16 0 -27.5 10t-11.5 26z" />
<glyph unicode="&#x2013;" horiz-adv-x="1095" d="M90 453v104q0 39 39 39h838q39 0 39 -39v-104q0 -16 -11.5 -26.5t-27.5 -10.5h-838q-16 0 -27.5 10t-11.5 27z" />
<glyph unicode="&#x2014;" horiz-adv-x="1546" d="M90 453v104q0 39 39 39h1288q39 0 39 -39v-104q0 -16 -11 -26.5t-28 -10.5h-1288q-16 0 -27.5 10t-11.5 27z" />
<glyph unicode="&#x2018;" horiz-adv-x="417" d="M39 1073q0 209 190 367q25 18 45 -4l31 -31q23 -25 -2 -45q-143 -104 -145 -246q35 14 82 14q61 0 104 -42t43 -103t-46 -104t-116 -43q-72 0 -129 58t-57 179z" />
<glyph unicode="&#x2019;" horiz-adv-x="409" d="M27 1306.5q0 61.5 46 104.5t115 43q72 0 129.5 -58.5t57.5 -178.5q0 -209 -191 -367q-25 -19 -45 4l-30 31q-23 25 2 45q143 104 145 246q-35 -14 -82 -15q-61 0 -104 42t-43 103.5z" />
<glyph unicode="&#x201a;" horiz-adv-x="466" d="M61 124.5q0 61.5 46.5 104.5t115.5 43q72 0 129.5 -58t57.5 -179q0 -209 -191 -367q-25 -18 -45 4l-31 31q-23 25 2 45q143 104 146 246q-35 -14 -82 -14q-61 0 -104.5 41.5t-43.5 103z" />
<glyph unicode="&#x201c;" horiz-adv-x="825" d="M39 1075q0 209 190 367q25 18 45 -4l31 -31q23 -25 -2 -45q-143 -104 -145 -246q35 14 82 14q61 0 104 -41.5t43 -103t-46 -104.5t-116 -43q-72 0 -129 58t-57 179zM446 1075q0 209 191 367q25 18 45 -4l31 -31q23 -25 -2 -45q-143 -104 -146 -246q35 14 82 14 q61 0 104.5 -41.5t43.5 -103t-46 -104.5t-116 -43q-72 0 -129.5 58t-57.5 179z" />
<glyph unicode="&#x201d;" horiz-adv-x="817" d="M27 1306.5q0 61.5 46 104.5t115 43q72 0 129.5 -58.5t57.5 -178.5q0 -209 -191 -367q-25 -19 -45 4l-30 31q-23 25 2 45q143 104 145 246q-35 -14 -82 -15q-61 0 -104 42t-43 103.5zM434 1306.5q0 61.5 46 104.5t116 43q72 0 129 -58.5t57 -178.5q0 -209 -190 -367 q-25 -19 -45 4l-31 31q-23 25 2 45q143 104 146 246q-35 -14 -82 -15q-61 0 -104.5 42t-43.5 103.5z" />
<glyph unicode="&#x201e;" horiz-adv-x="876" d="M61 124.5q0 61.5 46.5 104.5t115.5 43q72 0 129.5 -58t57.5 -179q0 -209 -191 -367q-25 -18 -45 4l-31 31q-23 25 2 45q143 104 146 246q-35 -14 -82 -14q-61 0 -104.5 41.5t-43.5 103zM469 124.5q0 61.5 46 104.5t116 43q72 0 129 -58t57 -179q0 -209 -190 -367 q-25 -18 -45 4l-31 31q-23 25 2 45q143 104 145 246q-35 -14 -82 -14q-61 0 -104 41.5t-43 103z" />
<glyph unicode="&#x2022;" horiz-adv-x="831" d="M123 459q0 121 86 209t203 88q121 0 209 -88t88 -209q0 -117 -88 -203t-209 -86q-117 0 -203 86t-86 203z" />
<glyph unicode="&#x2026;" horiz-adv-x="1413" d="M82 143.5q0 67.5 47 114.5t114.5 47t116 -47t48.5 -114.5t-48.5 -115.5t-116 -48t-114.5 48t-47 115.5zM551 143.5q0 67.5 47 114.5t114.5 47t116 -47t48.5 -114.5t-48.5 -115.5t-116 -48t-114.5 48t-47 115.5zM1006 143.5q0 67.5 47 114.5t114.5 47t115.5 -47t48 -114.5 t-48 -115.5t-115.5 -48t-114.5 48t-47 115.5z" />
<glyph unicode="&#x202f;" horiz-adv-x="402" />
<glyph unicode="&#x2039;" horiz-adv-x="579" d="M43 397q-16 23 0 49l223 304q14 25 37 24h162q27 0 35 -19.5t-4 -43.5l-134 -285l127 -301q12 -25 3 -43.5t-33 -18.5h-172q-19 1 -31 17z" />
<glyph unicode="&#x203a;" horiz-adv-x="579" d="M78 755q8 19 35 19h161q23 0 37 -24l224 -304q16 -27 0 -49l-213 -317q-12 -16 -31 -17h-172q-25 0 -34 18.5t3 43.5l127 301l-133 285q-12 25 -4 44z" />
<glyph unicode="&#x205f;" horiz-adv-x="502" />
<glyph unicode="&#x20ac;" horiz-adv-x="1458" d="M41 547v35q0 16 11 27.5t26 11.5h78q-4 31 -4 94v39h-74q-14 0 -25.5 11t-11.5 28v34q0 16 11 27.5t26 11.5h88q53 254 256 421t469 167q287 0 495 -190q31 -29 3 -58l-160 -166q-25 -25 -51 0q-117 104 -277 105q-133 0 -234.5 -78t-144.5 -201h430q16 0 27.5 -11 t11.5 -28v-39q0 -16 -11 -26t-28 -10h-452v-29q0 -53 12 -102h358q16 0 27.5 -11.5t11.5 -27.5v-37q0 -16 -11 -26.5t-28 -10.5h-315q53 -92 145.5 -146.5t202.5 -54.5q160 0 275 99q29 25 53 -3l160 -170q27 -27 -2 -55q-205 -199 -498 -198q-252 0 -447.5 147t-263.5 381 h-102q-14 0 -25.5 11t-11.5 28z" />
<glyph unicode="&#x2122;" horiz-adv-x="1476" d="M82 1294v101q0 14 12 26.5t27 12.5h432q16 0 27.5 -11.5t11.5 -27.5v-101q0 -39 -39 -39h-123v-442q0 -14 -12 -26.5t-27 -12.5h-108q-16 0 -27.5 11.5t-11.5 27.5v442h-123q-16 0 -27.5 11.5t-11.5 27.5zM639 821l106 592q4 31 39 31h9q23 0 34 -23l187 -352l188 352 q10 23 35 23h8q35 0 39 -31l109 -594q2 -18 -9.5 -31.5t-29.5 -13.5h-107q-14 0 -25.5 10.5t-13.5 24.5l-34 215l-121 -238q-10 -18 -33 -18h-12q-25 0 -35 20l-117 236l-37 -217q-2 -12 -14 -22.5t-25 -10.5h-102q-20 0 -31.5 14.5t-7.5 32.5z" />
<glyph unicode="&#x25fc;" horiz-adv-x="820" d="M0 0v820h820v-820h-820z" />
<glyph unicode="&#xfb01;" horiz-adv-x="1169" d="M72 598v182q0 39 39 39h43v191q0 193 123.5 318.5t314.5 125.5q160 0 317 -84q35 -18 17 -55l-88 -168q-23 -43 -58 -27q-111 51 -184 51q-53 0 -91 -42t-38 -121v-189h553q39 0 39 -39v-741q0 -16 -11.5 -27.5t-27.5 -11.5h-223q-16 0 -27.5 11.5t-11.5 27.5v520h-291 v-520q0 -14 -6 -22.5t-19.5 -12.5t-21.5 -5t-28.5 0t-22.5 1h-176q-16 0 -27.5 12.5t-11.5 26.5v520h-43q-16 0 -27.5 11.5t-11.5 27.5z" />
<glyph unicode="&#xfb02;" horiz-adv-x="1212" d="M70 598v182q0 39 39 39h47v191q0 205 126 324.5t312 119.5q82 0 158.5 -30.5t111.5 -59.5l37 -31l27 62q18 39 53 39h82q14 0 26.5 -12.5t12.5 -26.5v-1356q0 -14 -12.5 -26.5t-26.5 -12.5h-227q-16 0 -27.5 12.5t-11.5 26.5v1048q-16 25 -66.5 54.5t-105.5 29.5 q-68 0 -113 -42t-45 -121v-189h137q16 0 27.5 -11t11.5 -28v-182q0 -16 -12.5 -27.5t-26.5 -11.5h-137v-520q0 -14 -12.5 -26.5t-26.5 -12.5h-235q-14 0 -25.5 11.5t-11.5 27.5v520h-47q-16 0 -27.5 11.5t-11.5 27.5z" />
<glyph unicode="&#xfb03;" horiz-adv-x="1806" d="M72 598v182q0 39 39 39h43v158q0 205 129 331t327 126q86 0 160 -25t102 -49l31 -27q117 121 316 121q170 0 327 -84q16 -8 20.5 -23.5t-3.5 -31.5l-95 -180q-18 -29 -51 -15q-111 51 -184 51q-53 0 -91 -42t-38 -121v-189h553q39 0 39 -39v-741q0 -16 -11.5 -27.5 t-27.5 -11.5h-223q-16 0 -27.5 11.5t-11.5 27.5v520h-291v-520q0 -14 -11.5 -26.5t-27.5 -12.5h-236q-14 0 -26 12.5t-12 26.5v520h-324v-520q0 -14 -12.5 -26.5t-26.5 -12.5h-235q-16 0 -27.5 12.5t-11.5 26.5v520h-43q-16 0 -27.5 11.5t-11.5 27.5zM467 819h324v189 q0 29 4 77q-61 72 -162 72q-74 0 -120 -51t-46 -129v-158z" />
<glyph unicode="&#xfb04;" horiz-adv-x="1849" d="M72 598v182q0 39 39 39h43v158q0 215 131 336t325 121q174 0 293 -101q117 121 332 121q78 0 153.5 -30.5t112.5 -59.5l37 -31l27 62q14 39 53 39h82q16 0 27.5 -12.5t11.5 -26.5v-1356q0 -14 -11.5 -26.5t-27.5 -12.5h-227q-14 0 -26.5 12.5t-12.5 26.5v1048 q-16 25 -66.5 54.5t-105.5 29.5q-68 0 -113 -42t-45 -121v-191h137q16 0 27.5 -11t11.5 -28v-182q0 -14 -11.5 -26.5t-27.5 -12.5h-137v-518q0 -14 -11.5 -26.5t-27.5 -12.5h-236q-14 0 -26 12.5t-12 26.5v520h-324v-520q0 -14 -12.5 -26.5t-26.5 -12.5h-235 q-16 0 -27.5 12.5t-11.5 26.5v520h-43q-16 0 -27.5 11.5t-11.5 27.5zM467 819h324v189q0 29 4 77q-61 72 -162 72q-74 0 -120 -51t-46 -129v-158z" />
</font>
</defs>
</svg>
