<svg xmlns="http://www.w3.org/2000/svg" xmlns:xlink="http://www.w3.org/1999/xlink" preserveAspectRatio="xMidYMid" width="909" height="886" viewBox="0 0 909 886">
  <defs>
    <style>
      .cls-1, .cls-4, .cls-5, .cls-6, .cls-7 {
        opacity: 0.87;
      }

      .cls-2 {
        fill: #3e3e3e;
        opacity: 0.12;
      }

      .cls-3 {
        fill: #232323;
      }

      .cls-3, .cls-4, .cls-7, .cls-8 {
        fill-rule: evenodd;
      }

      .cls-4, .cls-5 {
        fill: #3cb7c8;
      }

      .cls-6, .cls-7 {
        fill: #20c3d8;
      }

      .cls-8 {
        fill: #fff;
      }

      .cls-9 {
        fill: #00bcd4;
      }
    </style>
  </defs>
  <g class="cls-1">
    <rect y="793" width="909" height="93" class="cls-2"/>
    <path d="M815.049,734.204 L815.049,496.189 L901.231,496.189 L901.231,734.204 L815.049,734.204 ZM823.903,202.123 L797.136,202.255 L797.136,225.902 L829.851,225.902 L829.851,285.351 L797.136,285.351 L797.136,844.164 L666.274,844.164 L666.274,749.045 L229.078,749.045 L229.078,847.138 L104.167,847.138 L104.167,309.130 L77.399,309.038 L77.399,267.512 L50.633,267.512 L50.633,208.070 L68.477,208.070 L68.477,148.620 L104.167,148.620 L104.167,131.057 L62.528,130.783 L62.528,71.334 L116.064,71.334 L116.064,32.695 L181.494,32.695 L181.494,74.306 L208.261,74.306 L208.261,44.581 L249.898,44.581 L249.898,14.859 L309.381,14.859 L309.381,29.721 L351.018,29.721 L351.018,-0.001 L407.526,-0.001 L407.526,29.721 L472.956,29.721 L472.956,77.280 L487.826,77.280 L487.826,29.721 L487.826,17.831 L577.051,17.831 L577.051,11.884 L642.482,11.884 L642.482,26.749 L687.093,26.749 L687.093,53.502 L719.808,53.502 C719.808,53.502 719.538,26.450 719.808,26.749 C719.989,26.947 776.316,26.749 776.316,26.749 L776.316,53.502 L823.903,53.502 L823.903,98.084 L829.851,98.084 L829.851,115.923 L862.566,115.923 L862.566,175.370 L823.903,175.370 L823.903,202.123 ZM86.257,734.204 L0.074,734.204 L0.074,496.189 L86.257,496.189 L86.257,734.204 Z" class="cls-3"/>
    <path d="M0.074,686.601 L86.413,686.601 L86.413,733.791 L0.074,733.791 L0.074,686.601 Z" class="cls-4"/>
    <rect x="815" y="687" width="86" height="47" class="cls-5"/>
    <rect x="666" y="794" width="131" height="50" class="cls-6"/>
    <path d="M104.153,793.708 L228.918,793.708 L228.918,847.140 L104.153,847.140 L104.153,793.708 Z" class="cls-7"/>
    <path d="M456.479,136.737 C601.819,136.737 719.640,220.629 719.640,324.114 C719.640,427.599 601.819,511.490 456.479,511.490 C311.139,511.490 193.318,427.599 193.318,324.114 C193.318,220.629 311.139,136.737 456.479,136.737 Z" class="cls-8"/>
    <path d="M585.893,365.062 C585.893,365.062 585.973,366.412 585.973,367.091 C585.973,399.102 526.054,425.054 452.138,425.054 C378.223,425.054 318.304,399.102 318.304,367.091 C318.304,366.400 318.386,365.021 318.386,365.021 L585.893,365.062 Z" class="cls-3"/>
    <path d="M499.814,318.163 C485.132,318.163 473.230,306.093 473.230,291.204 C473.230,276.316 485.132,264.246 499.814,264.246 C514.495,264.246 526.397,276.316 526.397,291.204 C526.397,306.093 514.495,318.163 499.814,318.163 ZM407.804,321.321 C391.380,321.321 378.065,307.946 378.065,291.447 C378.065,274.949 391.380,261.574 407.804,261.574 C424.229,261.574 437.543,274.949 437.543,291.447 C437.543,307.946 424.229,321.321 407.804,321.321 Z" class="cls-3"/>
    <circle cx="450.656" cy="613.985" r="54.375" class="cls-9"/>
  </g>
</svg>
