<svg xmlns="http://www.w3.org/2000/svg" xmlns:xlink="http://www.w3.org/1999/xlink" preserveAspectRatio="xMidYMid" width="280" height="76" viewBox="0 0 280 76">
  <defs>
    <style>
      .cls-1 {
        stroke: #dbdbdb;
        stroke-width: 2px;
        fill: none;
        fill-rule: evenodd;
      }
    </style>
  </defs>
  <path d="M257.840,4.969 C257.840,4.969 188.735,17.582 159.840,15.969 C140.485,14.889 43.071,18.094 17.840,31.969 C-0.996,42.327 6.327,54.718 9.840,56.969 C22.995,65.396 178.352,53.740 215.840,48.969 C253.328,44.198 268.231,44.058 268.840,34.969 C269.449,25.880 262.216,11.476 193.840,8.969 C125.464,6.462 51.516,10.196 25.840,20.969 C0.164,31.742 -3.427,41.481 12.840,47.969 C29.107,54.457 92.347,68.887 148.840,64.969 C205.333,61.051 275.145,49.019 259.840,33.969 C244.535,18.919 190.840,13.969 190.840,13.969 L140.840,2.969 " transform="translate(6.06 5.67)" class="cls-1"/>
</svg>
